<svg width="1920" height="209" viewBox="0 0 1920 209" fill="none" xmlns="http://www.w3.org/2000/svg">
<path d="M0 50.4905C106.667 55.7197 213.333 60.9489 320 73.2155C426.667 85.4821 533.333 104.783 640 98.7811C746.667 92.7791 853.333 61.4742 960 59.0123C1066.67 56.5505 1173.33 82.9316 1280 95.9404C1386.67 108.949 1493.33 108.586 1600 107.303C1706.67 106.02 1813.33 103.821 1920 101.622V184C1813.33 184 1706.67 184 1600 184C1493.33 184 1386.67 184 1280 184C1173.33 184 1066.67 184 960 184C853.333 184 746.667 184 640 184C533.333 184 426.667 184 320 184C213.333 184 106.667 184 0 184V50.4905Z" fill="#5A55D2" fill-opacity="0.28"/>
<path d="M0 132.869C106.667 136.537 213.333 140.202 320 132.869C426.667 125.535 533.333 107.196 640 104.462C746.667 101.729 853.333 114.594 960 115.825C1066.67 117.056 1173.33 106.652 1280 98.7811C1386.67 90.9098 1493.33 85.5768 1600 90.2592C1706.67 94.9417 1813.33 109.646 1920 124.347V184C1813.33 184 1706.67 184 1600 184C1493.33 184 1386.67 184 1280 184C1173.33 184 1066.67 184 960 184C853.333 184 746.667 184 640 184C533.333 184 426.667 184 320 184C213.333 184 106.667 184 0 184V132.869Z" fill="#5A55D2" fill-opacity="0.38"/>
<path d="M0 96.9407C106.667 99.3506 213.333 101.758 320 108.303C426.667 114.849 533.333 125.53 640 131.028C746.667 136.526 853.333 136.835 960 139.55C1066.67 142.265 1173.33 147.382 1280 150.913C1386.67 154.443 1493.33 156.386 1600 148.072C1706.67 139.758 1813.33 121.19 1920 102.622V185C1813.33 185 1706.67 185 1600 185C1493.33 185 1386.67 185 1280 185C1173.33 185 1066.67 185 960 185C853.333 185 746.667 185 640 185C533.333 185 426.667 185 320 185C213.333 185 106.667 185 0 185V96.9407Z" fill="#1A1E29"/>
</svg>
