<svg width="568" height="25" viewBox="0 0 568 25" fill="none" xmlns="http://www.w3.org/2000/svg">
<rect y="11.5" width="247.5" height="2" fill="#666666" fill-opacity="0.25"/>
<path d="M278.006 18.324C277.034 18.324 276.14 18.156 275.324 17.82C274.52 17.484 273.818 17.022 273.218 16.434C272.63 15.834 272.168 15.126 271.832 14.31C271.508 13.482 271.346 12.588 271.346 11.628C271.346 10.668 271.508 9.78 271.832 8.964C272.168 8.136 272.63 7.428 273.218 6.84C273.818 6.24 274.52 5.772 275.324 5.436C276.14 5.1 277.034 4.932 278.006 4.932C278.978 4.932 279.866 5.1 280.67 5.436C281.486 5.772 282.188 6.24 282.776 6.84C283.376 7.428 283.838 8.136 284.162 8.964C284.498 9.78 284.666 10.668 284.666 11.628C284.666 12.588 284.498 13.482 284.162 14.31C283.838 15.126 283.376 15.834 282.776 16.434C282.188 17.022 281.486 17.484 280.67 17.82C279.866 18.156 278.978 18.324 278.006 18.324ZM278.006 16.92C278.75 16.92 279.428 16.782 280.04 16.506C280.664 16.23 281.198 15.852 281.642 15.372C282.086 14.892 282.428 14.334 282.668 13.698C282.92 13.05 283.046 12.36 283.046 11.628C283.046 10.896 282.92 10.212 282.668 9.576C282.428 8.928 282.086 8.364 281.642 7.884C281.198 7.404 280.664 7.026 280.04 6.75C279.428 6.474 278.75 6.336 278.006 6.336C277.262 6.336 276.578 6.474 275.954 6.75C275.342 7.026 274.814 7.404 274.37 7.884C273.926 8.364 273.578 8.928 273.326 9.576C273.086 10.212 272.966 10.896 272.966 11.628C272.966 12.36 273.086 13.05 273.326 13.698C273.578 14.334 273.926 14.892 274.37 15.372C274.814 15.852 275.342 16.23 275.954 16.506C276.578 16.782 277.262 16.92 278.006 16.92ZM287.096 5.256H290.354C290.966 5.256 291.572 5.292 292.172 5.364C292.784 5.436 293.33 5.592 293.81 5.832C294.29 6.072 294.68 6.426 294.98 6.894C295.28 7.35 295.43 7.974 295.43 8.766C295.43 9.702 295.148 10.458 294.584 11.034C294.02 11.61 293.24 11.976 292.244 12.132L295.862 18H294.008L290.552 12.276H288.608V18H287.096V5.256ZM288.608 10.872H289.958C290.378 10.872 290.81 10.86 291.254 10.836C291.71 10.812 292.124 10.734 292.496 10.602C292.88 10.47 293.192 10.266 293.432 9.99C293.684 9.702 293.81 9.294 293.81 8.766C293.81 8.31 293.72 7.944 293.54 7.668C293.36 7.392 293.12 7.182 292.82 7.038C292.532 6.882 292.202 6.78 291.83 6.732C291.47 6.684 291.104 6.66 290.732 6.66H288.608V10.872Z" fill="#666666"/>
<rect x="320.5" y="11.5" width="247.5" height="2" fill="#666666" fill-opacity="0.25"/>
</svg>
