<svg width="1920" height="624" viewBox="0 0 1920 624" fill="none" xmlns="http://www.w3.org/2000/svg">
<g opacity="0.3">
<path d="M720.952 623.637C713.662 623.637 706.566 623.128 699.747 622.113C685.446 619.982 672.234 615.607 660.477 609.109C647.839 602.127 636.756 592.614 627.531 580.833C608.992 557.155 599.716 528.799 590.745 501.376C588.983 495.991 587.161 490.423 585.311 485.02C572.688 448.198 556.686 415.944 536.395 386.415C495.917 327.509 438.992 277.237 371.771 241.034C294.031 199.168 210.447 178.313 136.415 182.312C92.9024 184.663 35.4106 207.023 9.71612 245.208C-5.53249 267.871 -6.76207 293.021 6.16272 317.935L5.90608 318.04C-0.870768 304.974 -3.82347 291.875 -2.86744 279.107C-1.99037 267.395 2.16091 255.946 9.47359 245.078C21.1039 227.793 40.2838 212.473 64.9405 200.773C87.7246 189.963 113.1 183.317 136.398 182.058C175.141 179.968 216.346 184.608 258.869 195.854C297.415 206.05 335.45 221.177 371.918 240.816C439.179 277.039 496.137 327.338 536.638 386.279C556.94 415.829 572.95 448.101 585.582 484.943C587.434 490.345 589.256 495.916 591.016 501.3C599.979 528.704 609.248 557.04 627.763 580.683C645.668 603.551 669.904 617.405 699.795 621.857C741.19 628.024 791.456 615.126 834.255 587.351C895.932 547.328 938.736 489.072 980.133 432.735C987.39 422.861 994.891 412.65 1002.32 402.79C1021.6 377.187 1047.72 344.01 1078.76 314.453C1110.49 284.241 1142.73 262.045 1177.32 246.592C1198.5 237.133 1220.94 230.761 1244.03 227.652C1265.35 224.779 1287.92 224.601 1311.11 227.118C1350.89 231.438 1393.75 243.639 1442.13 264.417C1537.39 305.332 1632.56 354.995 1724.97 412.028C1812.81 466.236 1898.96 527.576 1981.03 594.338L1980.84 594.524C1810.72 456.128 1629.43 345.14 1442.01 264.642C1336.11 219.164 1252.05 213.498 1177.45 246.815C1101.56 280.709 1048.54 341.876 1002.55 402.928C995.128 412.785 987.626 422.996 980.37 432.871C938.962 489.227 896.143 547.501 834.424 587.552C814.48 600.495 792.043 610.591 769.541 616.745C757.654 619.997 745.837 622.123 734.416 623.065C729.864 623.449 725.371 623.637 720.952 623.637Z" fill="#1F1F1F" fill-opacity="0.51"/>
<path d="M728.079 609.596C709.489 609.596 692.269 606.45 676.879 600.24C659.719 593.316 644.91 582.586 632.862 568.352C631.796 567.091 630.739 565.787 629.718 564.473C611.376 540.898 601.688 512.911 592.323 485.843C590.427 480.373 588.47 474.715 586.485 469.225C574.66 436.534 560.421 407.722 542.95 381.145C540.798 377.874 538.57 374.595 536.323 371.401C495.25 313.002 437.862 263.367 370.365 227.861C292.063 186.709 208.242 166.716 134.343 171.567C91.1462 174.433 33.9194 197.158 8.11497 235.051C-7.33669 257.741 -9.08517 282.941 3.0528 307.928L2.79333 308.028C-3.56895 294.932 -6.18322 281.808 -4.97337 269.025C-3.86222 257.285 0.458241 245.81 7.87244 234.92C19.6212 217.665 38.7447 202.327 63.1702 190.567C85.7455 179.697 111.011 172.861 134.317 171.317C173.013 168.777 214.263 172.974 256.921 183.789C295.56 193.586 333.776 208.342 370.506 227.645C438.043 263.171 495.461 312.836 536.56 371.268C538.807 374.464 541.038 377.746 543.19 381.02C560.672 407.614 574.919 436.441 586.75 469.149C588.738 474.64 590.695 480.298 592.59 485.77C601.953 512.82 611.632 540.788 629.949 564.331C630.967 565.639 632.025 566.943 633.088 568.201C657.984 597.625 692.193 609.596 728.167 609.596C728.364 609.596 728.559 609.596 728.756 609.596C728.531 609.594 728.305 609.596 728.079 609.596ZM735.753 609.421C769.197 607.894 803.708 596.47 833.314 579.475C897.176 542.666 943.074 485.813 987.464 430.833C989.291 428.567 991.119 426.306 992.946 424.044C996.959 419.081 1001.72 413.204 1006.57 407.28C1028.36 380.714 1054.72 349.804 1085.09 321.982C1117.4 292.377 1149.67 270.409 1183.76 254.818C1204.71 245.249 1226.84 238.508 1249.55 234.782C1270.59 231.33 1292.83 230.355 1315.64 231.882C1355.04 234.522 1397.4 244.529 1445.15 262.479C1491.71 279.953 1529.98 296.401 1565.59 314.243C1616.04 339.543 1664.09 368.693 1704.44 393.871C1798.26 452.573 1890.31 519.231 1978.04 591.992L1977.84 592.175C1890.13 519.424 1798.09 452.771 1704.28 394.076C1663.93 368.902 1615.89 339.756 1565.45 314.463C1529.85 296.626 1491.59 280.183 1445.05 262.715C1341.02 223.611 1258.04 221.172 1183.89 255.044C1106.93 290.236 1052.13 352.155 1006.8 407.431C1001.94 413.355 997.188 419.229 993.174 424.195C991.347 426.454 989.52 428.717 987.692 430.984C943.289 485.981 897.374 542.854 833.466 579.691C817.62 588.786 800.758 596.011 783.346 601.163C767.139 605.953 751.162 608.724 735.753 609.421Z" fill="#1F1F1F" fill-opacity="0.51"/>
<path d="M735.938 595.876C733.701 595.876 731.479 595.833 729.274 595.745C710.7 595.016 693.511 591.228 678.187 584.482C661.426 577.104 646.905 566.176 635.03 551.999C633.975 550.736 632.923 549.43 631.908 548.116C613.771 524.656 603.681 497.042 593.926 470.34C591.892 464.775 589.789 459.019 587.657 453.434C575.248 420.853 560.634 392.272 542.974 366.054C540.788 362.812 538.526 359.561 536.245 356.392C494.577 298.502 436.727 249.504 368.953 214.695C290.093 174.258 206.035 155.125 132.266 160.828C90.7302 164.089 33.6699 185.519 6.54 224.858C-9.13445 247.586 -11.416 272.853 -0.0591836 297.928L-0.321439 298.02C-6.27198 284.884 -8.54223 271.73 -7.07574 258.925C-5.72771 247.147 -1.22672 235.643 6.30029 224.727C18.1732 207.512 37.2346 192.17 61.4259 180.354C83.7898 169.432 108.94 162.41 132.24 160.58C170.89 157.594 212.186 161.344 254.976 171.728C293.711 181.129 332.105 195.511 369.094 214.479C436.908 249.31 494.789 298.336 536.482 356.259C538.763 359.431 541.028 362.682 543.214 365.929C560.882 392.161 575.504 420.761 587.919 453.358C590.051 458.946 592.155 464.702 594.188 470.268C603.94 496.954 614.022 524.548 632.136 547.981C633.151 549.294 634.198 550.598 635.252 551.856C683.508 609.461 769.027 603.276 832.37 571.596C898.898 538.031 948.338 482.243 996.151 428.294L996.642 427.74C1001.27 422.51 1006.06 417.105 1010.83 411.768C1061.12 355.462 1116.4 297.597 1190.2 263.039C1210.92 253.357 1232.75 246.247 1255.08 241.907C1275.85 237.871 1297.75 236.099 1320.17 236.64C1359.25 237.583 1401.13 245.4 1448.18 260.537C1497.64 276.388 1534.85 290.958 1568.85 307.783C1617.29 331.802 1664.22 362.153 1705.62 388.932C1797.8 448.876 1888.44 516.403 1975.05 589.634L1974.85 589.814C1888.26 516.591 1797.62 449.072 1705.45 389.133C1664.06 362.359 1617.14 332.012 1568.71 308.001C1534.73 291.182 1497.52 276.616 1448.09 260.77C1346.08 227.959 1264.18 228.749 1190.33 263.257C1116.57 297.792 1061.32 355.633 1011.05 411.919C1006.28 417.256 1001.49 422.663 996.862 427.89L996.371 428.444C972.544 455.329 947.907 483.128 921.301 507.96C891.402 535.865 862.357 556.75 832.506 571.809C801.275 587.427 767.256 595.876 735.938 595.876Z" fill="#1F1F1F" fill-opacity="0.51"/>
<path d="M1971.87 587.45C1886.4 513.756 1797.16 445.369 1706.63 384.189C1702.8 381.617 1698.96 379.032 1695.1 376.44C1655.89 350.062 1615.34 322.786 1571.99 301.538C1529.93 280.981 1487.3 268.411 1451.14 258.827C1351.34 232.208 1270.52 236.227 1196.78 271.469C1121.09 307.755 1062.43 367.999 1015.31 416.408C1012.48 419.314 1009.65 422.225 1006.82 425.138C1004.74 427.289 1002.65 429.439 1000.56 431.588C973.725 459.179 949.316 483.848 922.347 506.358C891.537 532.071 861.84 550.904 831.555 563.932C803.173 576.144 772.853 582.604 744.651 582.606C739.513 582.606 734.451 582.393 729.476 581.96C711.314 580.378 694.501 575.933 679.503 568.748C663.138 560.909 648.904 549.773 637.192 535.649C636.146 534.383 635.102 533.074 634.093 531.758C616.171 508.421 605.688 481.195 595.552 454.867C593.37 449.197 591.111 443.331 588.826 437.637C575.825 405.16 560.833 376.806 542.999 350.954C540.779 347.738 538.481 344.517 536.168 341.375C493.903 283.994 435.593 235.632 367.545 201.518C288.127 161.795 203.835 143.527 130.195 150.075C79.8523 154.64 28.3731 181.179 5.00523 214.609C-10.9146 237.385 -13.7376 262.733 -3.1648 287.912L-3.42988 288C-8.96586 274.816 -10.8949 261.622 -9.16329 248.784C-7.5699 236.964 -2.88279 225.422 4.76549 214.476C16.7624 197.311 35.7619 181.969 59.7107 170.111C81.8602 159.143 106.881 151.938 130.167 149.827C168.772 146.393 210.11 149.699 253.033 159.652C291.861 168.657 330.438 182.668 367.686 201.297C435.776 235.432 494.117 283.821 536.408 341.238C538.723 344.381 541.022 347.605 543.241 350.822C561.087 376.688 576.085 405.057 589.094 437.549C591.379 443.245 593.638 449.109 595.82 454.782C605.95 481.095 616.427 508.303 634.327 531.613C635.336 532.926 636.377 534.232 637.421 535.496C687.797 596.249 773.42 588.661 831.433 563.704C900.649 533.927 953.614 479.471 1000.35 431.422C1002.44 429.272 1004.52 427.121 1006.61 424.972C1009.44 422.059 1012.27 419.148 1015.09 416.243C1042 388.611 1068.56 361.759 1097.77 337.016C1131.35 308.56 1163.7 287.047 1196.65 271.249C1217.16 261.449 1238.68 253.971 1260.62 249.025C1281.13 244.399 1302.69 241.832 1324.71 241.391C1363.54 240.614 1404.93 246.239 1451.23 258.586C1487.39 268.175 1530.04 280.75 1572.13 301.319C1615.5 322.576 1656.06 349.859 1695.28 376.242C1699.13 378.834 1702.97 381.419 1706.81 383.991C1797.34 445.176 1886.59 513.57 1972.07 587.272L1971.87 587.45Z" fill="#1F1F1F" fill-opacity="0.51"/>
<path d="M1968.88 585.088C1882.92 509.514 1795.09 440.257 1707.81 379.245C1702.59 375.595 1697.24 371.832 1692.08 368.195C1655.07 342.143 1616.81 315.203 1575.26 295.075C1533.76 275.047 1490.77 264.528 1454.19 256.881C1356.82 236.332 1277.07 243.577 1203.23 279.682C1132.79 314.245 1077.61 366.219 1024.24 416.481L1018.38 421.999C1013.76 426.359 1008.97 430.864 1004.25 435.283C950.833 485.257 897.357 532.094 830.601 556.05C814.402 561.864 797.769 565.893 781.158 568.031C763.32 570.325 745.993 570.358 729.656 568.126C711.912 565.702 695.479 560.611 680.814 552.992C664.855 544.701 650.906 533.363 639.36 519.294C638.32 518.02 637.285 516.709 636.283 515.395C618.581 492.196 607.721 465.372 597.219 439.43C594.875 433.641 592.45 427.655 590.002 421.841C576.397 389.464 561.033 361.338 543.029 335.858C540.779 332.674 538.447 329.478 536.097 326.361C493.237 269.489 434.467 221.764 366.14 188.344C286.161 149.341 201.632 131.933 128.119 139.331C78.2358 144.457 26.9907 171.181 3.50442 204.321C-12.6805 227.154 -16.0618 252.6 -6.27588 277.907L-6.54381 277.99C-11.6652 264.748 -13.2473 251.504 -11.2478 238.628C-9.40344 226.758 -4.52175 215.171 3.26189 204.19C15.3886 187.083 34.3203 171.755 58.0153 159.863C79.9449 148.855 104.83 141.477 128.085 139.085C166.645 135.204 208.025 138.065 251.083 147.586C290.007 156.195 328.762 169.833 366.273 188.126C434.639 221.563 493.442 269.318 536.329 326.224C538.678 329.342 541.013 332.541 543.263 335.725C561.279 361.218 576.651 389.359 590.261 421.753C592.709 427.567 595.135 433.556 597.478 439.345C607.975 465.271 618.83 492.083 636.512 515.255C637.51 516.564 638.545 517.872 639.583 519.146C688.747 579.054 770.436 577.372 830.491 555.82C897.193 531.883 950.647 485.064 1004.04 435.113C1008.76 430.693 1013.55 426.188 1018.18 421.828L1024.04 416.311C1050.23 391.64 1077.32 366.127 1106.73 342.393C1140.05 315.514 1171.57 294.929 1203.09 279.461C1223.38 269.539 1244.6 261.692 1266.14 256.142C1286.4 250.922 1307.63 247.558 1329.24 246.142C1367.9 243.607 1408.79 247.042 1454.25 256.636C1490.85 264.287 1533.86 274.809 1575.39 294.854C1616.97 314.99 1655.24 341.937 1692.25 367.997C1697.42 371.634 1702.76 375.395 1707.98 379.047C1795.27 440.064 1883.11 509.326 1969.07 584.908L1968.88 585.088Z" fill="#1F1F1F" fill-opacity="0.51"/>
<path d="M1965.89 582.727C1880.67 506.312 1794.24 436.188 1708.98 374.304C1702.58 369.654 1696.01 364.818 1689.66 360.142C1654.65 334.371 1618.45 307.722 1578.52 288.617C1537.22 268.932 1494.03 260.546 1457.24 254.941C1362.57 240.298 1283.9 250.772 1209.67 287.9C1144.89 320.437 1091.71 366.55 1040.27 411.144C1034.86 415.837 1029.26 420.688 1023.81 425.388C1017.4 430.908 1012.51 435.103 1007.94 438.983C983.49 459.756 954.375 483.675 923.821 503.57C891.443 524.651 860.638 539.241 829.645 548.176C813.347 552.874 796.784 555.837 780.413 556.98C762.835 558.209 745.815 557.306 729.831 554.295C712.512 551.034 696.462 545.295 682.122 537.241C666.572 528.506 652.914 516.964 641.526 502.94C640.499 501.669 639.47 500.356 638.471 499.037C621.003 475.993 609.779 449.583 598.922 424.042C596.403 418.118 593.8 411.993 591.175 406.044C576.958 373.758 561.219 345.863 543.054 320.761C540.77 317.604 538.404 314.438 536.021 311.347C492.565 254.983 433.333 207.895 364.73 175.17C284.194 136.884 199.429 120.34 126.046 128.583C84.2902 133.376 29.754 155.458 2.04307 193.979C-14.4323 216.883 -18.3862 242.444 -9.38705 267.897L-9.65498 267.972C-14.3618 254.663 -15.5914 241.361 -13.3127 228.435C-11.2089 216.504 -6.12414 204.867 1.80615 193.844C14.0626 176.807 32.9238 161.504 56.3565 149.586C78.0661 138.546 102.802 131 126.012 128.335C164.527 124.008 205.952 126.422 249.14 135.512C288.157 143.725 327.092 156.992 364.862 174.949C433.505 207.692 492.771 254.808 536.252 311.204C538.635 314.295 541.004 317.467 543.288 320.625C561.461 345.74 577.209 373.65 591.434 405.952C594.062 411.903 596.665 418.028 599.184 423.952C610.033 449.48 621.254 475.876 638.703 498.894C639.701 500.21 640.728 501.522 641.754 502.79C682.655 553.165 752.863 570.041 829.557 547.933C899.012 527.912 955.669 483.04 1007.75 438.798C1012.31 434.917 1017.2 430.723 1023.61 425.203C1029.06 420.502 1034.66 415.651 1040.07 410.958C1065.4 389.005 1091.58 366.304 1119.51 345.048C1151.09 321.009 1180.54 302.242 1209.54 287.676C1229.64 277.624 1250.54 269.408 1271.68 263.261C1291.7 257.438 1312.59 253.279 1333.77 250.895C1372.34 246.558 1412.74 247.799 1457.29 254.688C1494.1 260.298 1537.32 268.686 1578.65 288.388C1618.61 307.506 1654.82 334.163 1689.84 359.942C1696.19 364.617 1702.76 369.453 1709.16 374.103C1794.42 435.995 1880.86 506.124 1966.09 582.544L1965.89 582.727Z" fill="#1F1F1F" fill-opacity="0.51"/>
<path d="M1962.89 580.365C1878.42 503.106 1793.39 432.112 1710.16 369.361C1703.08 364.023 1695.81 358.42 1688.77 353.003C1655.27 327.196 1620.63 300.512 1581.79 282.154C1540.45 262.705 1497.17 256.5 1460.29 252.996C1369.91 244.179 1290.04 258.283 1216.12 296.113C1157.26 326.372 1106.8 366.851 1058.01 406C1048.15 413.907 1037.96 422.084 1028.05 429.878C1021.99 434.649 1016.62 438.838 1011.63 442.684C988.419 460.548 957.541 483.454 924.545 502.174C891.392 520.981 860.034 533.453 828.682 540.299C794.488 547.768 760.361 547.823 729.994 540.462C713.109 536.368 697.441 529.986 683.422 521.49C668.286 512.317 654.918 500.574 643.686 486.593C642.668 485.32 641.647 484.003 640.654 482.685C623.434 459.816 611.86 433.839 600.67 408.72C597.962 402.643 595.165 396.361 592.342 390.256C577.502 358.054 561.388 330.385 543.076 305.672C540.758 302.543 538.358 299.404 535.941 296.341C491.891 240.486 432.199 194.032 363.319 162.006C282.229 124.44 197.226 108.759 123.97 117.846C74.3235 124.139 24.7536 150.562 0.624306 183.593C-16.1669 206.58 -20.7046 232.273 -12.4979 257.897L-12.7686 257.965C-17.0581 244.575 -17.9324 231.203 -15.3688 218.222C-12.9999 206.224 -7.69798 194.526 0.387423 183.456C12.7736 166.499 31.5614 151.231 54.7206 139.303C76.2018 128.24 100.782 120.529 123.93 117.596C162.4 112.822 203.87 114.793 247.191 123.449C286.304 131.266 325.419 144.162 363.449 161.78C432.368 193.827 492.094 240.306 536.173 296.195C538.59 299.259 540.99 302.4 543.31 305.531C561.63 330.26 577.753 357.942 592.601 390.158C595.424 396.263 598.222 402.548 600.929 408.624C612.114 433.732 623.682 459.696 640.885 482.542C641.878 483.861 642.896 485.172 643.914 486.445C684.113 536.494 753.159 556.534 828.615 540.056C897.404 525.032 957.141 484.287 1011.45 442.496C1016.43 438.65 1021.81 434.464 1027.86 429.693C1037.77 421.899 1047.96 413.724 1057.81 405.817C1106.62 366.661 1157.08 326.171 1215.97 295.9C1235.89 285.704 1256.5 277.123 1277.2 270.389C1297.01 263.951 1317.57 258.995 1338.3 255.658C1376.86 249.453 1416.77 248.503 1460.31 252.75C1497.22 256.257 1540.54 262.464 1581.92 281.936C1620.79 300.307 1655.44 327.001 1688.96 352.817C1695.99 358.235 1703.26 363.835 1710.34 369.173C1793.57 431.929 1878.62 502.928 1963.1 580.192L1962.89 580.365Z" fill="#1F1F1F" fill-opacity="0.51"/>
<path d="M1959.91 578.004C1876.18 499.892 1792.55 428.033 1711.33 364.419C1703.87 358.573 1696.19 352.383 1688.77 346.397C1656.49 320.372 1623.11 293.46 1585.05 275.693C1543.55 256.41 1500.23 252.416 1463.33 251.053C1376.37 247.603 1297.61 265.029 1222.56 304.328C1169.93 332.019 1123.01 367.067 1077.63 400.958C1062.03 412.613 1047.29 423.621 1032.3 434.368C1026.21 438.743 1020.65 442.674 1015.32 446.381C980.932 470.285 952.319 487.568 925.273 500.77C891.344 517.333 859.437 527.687 827.727 532.42C815.425 534.255 803.169 535.17 791.135 535.17C769.803 535.17 749.163 532.302 730.16 526.621C695.771 516.34 667.406 497.37 645.852 470.237C644.837 468.951 643.824 467.635 642.843 466.322C625.885 443.651 613.987 418.136 602.481 393.457C599.565 387.205 596.553 380.742 593.515 374.457C578.041 342.331 561.549 314.892 543.105 290.572C540.753 287.471 538.319 284.36 535.868 281.324C491.222 225.978 431.068 180.161 361.912 148.829C280.266 111.985 195.029 97.1636 121.9 107.096C72.0478 114.008 23.9077 139.93 -0.737719 173.137C-17.8702 196.218 -23.0085 222.065 -15.6028 247.884L-15.8763 247.946C-19.7428 234.464 -20.256 221.012 -17.3992 207.963C-14.7539 195.885 -9.22921 184.122 -0.971781 172.999C11.5441 156.135 30.2502 140.917 53.1274 128.989C74.3773 117.909 98.7858 110.047 121.857 106.848C160.282 101.628 201.798 103.153 245.248 111.378C284.457 118.801 323.75 131.326 362.042 148.604C431.238 179.956 491.425 225.798 536.1 281.176C538.55 284.214 540.984 287.326 543.339 290.429C561.794 314.762 578.295 342.215 593.775 374.354C596.812 380.639 599.827 387.105 602.74 393.357C614.241 418.023 626.133 443.528 643.077 466.179C644.058 467.49 645.068 468.806 646.083 470.09C686.332 520.76 752.522 543.388 827.679 532.169C899.223 521.49 962.592 482.71 1015.15 446.181C1020.48 442.473 1026.03 438.545 1032.13 434.17C1047.11 423.423 1061.85 412.417 1077.45 400.762C1122.83 366.863 1169.76 331.811 1222.42 304.11C1242.19 293.756 1262.48 284.806 1282.74 277.506C1302.35 270.436 1322.57 264.683 1342.83 260.408C1381.47 252.258 1420.89 249.115 1463.34 250.799C1500.27 252.163 1543.63 256.162 1585.18 275.468C1623.27 293.247 1656.66 320.172 1688.96 346.206C1696.38 352.193 1704.06 358.383 1711.52 364.226C1792.74 427.845 1876.38 499.712 1960.11 577.828L1959.91 578.004Z" fill="#1F1F1F" fill-opacity="0.51"/>
<path d="M1956.92 575.642C1872.78 495.56 1792.83 424.852 1712.51 359.476C1704.84 353.238 1697.3 346.868 1689.31 340.125C1658.08 313.762 1625.79 286.503 1588.32 269.233C1546.29 249.957 1501.08 248.353 1466.38 249.11C1383.38 250.684 1305.73 271.434 1229 312.546C1182.97 337.332 1140.47 367.097 1099.36 395.884C1077.76 411.013 1057.36 425.301 1036.55 438.861C1030.38 442.889 1024.64 446.559 1019.01 450.082C984.153 471.882 954.597 487.541 925.995 499.363C891.279 513.713 858.822 521.948 826.768 524.541C810.298 525.872 793.941 525.621 778.151 523.796C761.433 521.863 745.341 518.155 730.324 512.778C697.038 500.857 669.347 481.045 648.018 453.887C647.011 452.599 646.007 451.28 645.031 449.966C628.358 427.529 616.161 402.5 604.364 378.295C601.217 371.837 597.963 365.159 594.688 358.666C578.566 326.61 561.701 299.399 543.13 275.48C540.742 272.407 538.274 269.323 535.795 266.315C490.554 211.478 429.94 166.298 360.508 135.661C296.423 107.5 230.335 92.8068 169.733 92.8068C152.6 92.8068 135.919 93.98 119.83 96.3541C70.5786 103.765 22.7402 129.779 -2.049 162.63C-19.5453 185.82 -25.3069 211.842 -18.7105 237.881L-18.9869 237.936C-22.4303 224.349 -22.5742 210.804 -19.4156 197.68C-16.4882 185.514 -10.7238 173.673 -2.28592 162.49C10.3597 145.731 28.9784 130.576 51.5622 118.661C72.8798 107.412 96.4705 99.6131 119.779 96.1084C158.159 90.4427 199.719 91.5232 243.302 99.3148C282.604 106.339 322.08 118.49 360.632 135.432C430.104 166.087 490.754 211.293 536.023 266.162C538.505 269.17 540.976 272.257 543.364 275.333C561.944 299.264 578.817 326.487 594.948 358.558C598.222 365.051 601.479 371.73 604.627 378.19C616.418 402.385 628.609 427.404 645.268 449.824C646.244 451.135 647.248 452.453 648.252 453.739C688.137 504.523 753.193 530.234 826.745 524.287C901.172 518.268 968.506 481.356 1018.85 449.871C1024.48 446.349 1030.21 442.679 1036.39 438.653C1057.19 425.098 1077.6 410.808 1099.2 395.681C1140.3 366.891 1182.81 337.119 1228.86 312.325C1268.37 291.159 1307.13 275.734 1347.37 265.164C1386.18 254.971 1425.11 249.636 1466.38 248.854C1489.92 248.34 1509.13 249.233 1526.83 251.659C1549.68 254.793 1569.84 260.466 1588.45 269.005C1625.96 286.29 1658.27 313.563 1689.51 339.939C1697.5 346.683 1705.04 353.05 1712.7 359.288C1793.03 424.666 1872.98 495.38 1957.12 575.467L1956.92 575.642Z" fill="#1F1F1F" fill-opacity="0.51"/>
<path d="M1953.92 573.28C1870.55 492.321 1791.97 420.77 1713.68 354.531C1705.94 347.978 1698.3 341.227 1690.22 334.08C1659.92 307.301 1628.6 279.606 1591.58 262.77C1549.21 243.584 1504.04 244.351 1469.43 247.161C1391.1 253.301 1314.56 277.375 1235.45 320.755C1196.47 342.232 1159.36 366.811 1123.46 390.581C1095.09 409.371 1068.29 427.12 1040.8 443.343C1034.59 447.013 1028.5 450.523 1022.7 453.772C987.774 473.336 956.377 487.783 926.717 497.941C891.203 510.105 858.196 516.227 825.809 516.653C809.331 516.869 793.039 515.545 777.396 512.715C760.996 509.747 745.215 505.106 730.488 498.919C698.344 485.414 671.324 464.759 650.181 437.527C649.188 436.24 648.19 434.919 647.217 433.598C630.857 411.434 618.395 386.934 606.341 363.241C602.932 356.537 599.404 349.603 595.859 342.862C579.076 310.865 561.837 283.886 543.156 260.376C540.733 257.33 538.232 254.274 535.719 251.293C489.883 196.965 428.807 152.421 359.098 122.478C276.343 87.0803 190.63 73.984 117.754 85.6012C69.1405 93.4856 21.6208 119.568 -3.30655 152.045C-21.1976 175.357 -27.5994 201.575 -21.8237 227.868L-22.1001 227.916C-25.112 214.21 -24.8808 200.56 -21.4091 187.346C-18.1857 175.079 -12.1759 163.154 -3.54061 151.902C9.22908 135.264 27.7547 120.185 50.034 108.294C71.1062 97.048 94.5051 89.116 117.704 85.353C156.041 79.2436 197.644 79.8754 241.356 87.2358C280.754 93.8692 320.408 105.649 359.219 122.25C428.97 152.208 490.08 196.779 535.942 251.14C538.457 254.121 540.962 257.179 543.384 260.228C562.076 283.75 579.322 310.743 596.113 342.751C599.661 349.493 603.186 356.427 606.598 363.133C618.646 386.816 631.102 411.306 647.451 433.455C648.424 434.774 649.422 436.095 650.412 437.379C690.718 489.292 753.007 517.36 825.804 516.398C884.872 515.62 947.389 495.65 1022.55 453.553C1028.34 450.304 1034.43 446.797 1040.64 443.127C1068.13 426.907 1094.92 409.163 1123.29 390.373C1159.19 366.6 1196.31 342.017 1235.3 320.535C1275.19 298.662 1313.33 282.106 1351.9 269.915C1390.97 257.565 1429.41 250.037 1469.4 246.903C1504.05 244.088 1549.28 243.323 1591.71 262.539C1628.77 279.396 1660.11 307.103 1690.42 333.894C1698.5 341.042 1706.14 347.79 1713.88 354.341C1792.17 420.582 1870.76 492.138 1954.13 573.102L1953.92 573.28Z" fill="#1F1F1F" fill-opacity="0.51"/>
<path d="M1950.93 570.919C1868.34 489.079 1791.12 416.681 1714.86 349.59C1707.12 342.779 1699.48 335.702 1691.38 328.209C1661.95 300.951 1631.51 272.765 1594.86 256.309C1552.08 237.194 1506.99 240.34 1472.48 245.216C1398.78 255.432 1325.51 282.046 1241.9 328.971C1210.54 346.65 1179.89 366.044 1150.25 384.798C1114.26 407.576 1080.26 429.093 1045.05 447.833C1038.71 451.212 1032.43 454.456 1026.39 457.469C990.839 475.204 958.473 487.979 927.442 496.523C910.062 501.308 892.904 504.775 876.445 506.829C858.89 509.017 841.532 509.672 824.853 508.774C791.014 506.952 759.321 498.974 730.657 485.066C699.7 470.044 673.354 448.55 652.353 421.174C651.365 419.878 650.376 418.554 649.408 417.24C633.398 395.402 620.713 371.484 608.448 348.355C604.734 341.353 600.896 334.113 597.035 327.068C579.576 295.125 561.961 268.373 543.184 245.281C540.728 242.261 538.19 239.232 535.646 236.282C489.215 182.46 427.679 138.553 357.694 109.31C274.386 74.6361 188.439 62.4022 115.685 74.8592C37.7832 88.4042 -38.127 146.929 -24.9287 217.863L-25.2079 217.903C-28.5103 200.159 -26.5756 182.678 -19.4604 165.942C-12.9627 150.657 -2.2997 136.272 12.2326 123.191C25.744 111.027 41.9542 100.525 60.4094 91.9766C77.962 83.8466 97.0574 77.84 115.628 74.611C153.92 68.0553 195.568 68.2434 239.413 75.1726C278.907 81.4124 318.742 92.8215 357.812 109.084C427.837 138.348 489.409 182.279 535.869 236.131C538.415 239.084 540.953 242.113 543.413 245.136C562.198 268.238 579.821 295.004 597.289 326.96C601.15 334.005 604.988 341.245 608.702 348.249C620.964 371.371 633.644 395.28 649.645 417.105C650.61 418.419 651.597 419.742 652.584 421.036C692.949 473.647 754.135 504.715 824.87 508.526C884.753 511.747 950.627 494.978 1026.26 457.254C1032.29 454.24 1038.57 450.999 1044.91 447.62C1080.1 428.885 1114.1 407.371 1150.09 384.595C1179.73 365.838 1210.38 346.442 1241.74 328.76C1325.4 281.815 1398.7 255.191 1472.44 244.968C1495.62 241.691 1514.82 240.644 1532.85 241.674C1555.91 242.99 1576.23 247.703 1594.98 256.084C1631.67 272.557 1662.13 300.76 1691.58 328.033C1699.68 335.524 1707.32 342.601 1715.06 349.41C1791.33 416.506 1868.55 488.906 1951.14 570.751L1950.93 570.919Z" fill="#1F1F1F" fill-opacity="0.51"/>
<path d="M1947.95 568.558C1866.14 485.826 1790.28 412.585 1716.04 344.647C1708.36 337.618 1700.76 330.255 1692.73 322.456C1664.09 294.676 1634.47 265.949 1598.12 249.847C1554.42 230.571 1507.23 236.861 1475.53 243.269C1389.5 260.446 1312.41 300.382 1248.34 337.186C1225.32 350.468 1202.35 364.537 1180.13 378.142C1135.57 405.436 1093.48 431.215 1049.3 452.323C1042.81 455.429 1036.34 458.405 1030.09 461.17C993.84 477.162 960.503 488.263 928.173 495.102C891.522 502.855 856.442 504.806 823.9 500.895C790.47 496.876 759.155 486.889 730.829 471.208C701.119 454.762 675.447 432.428 654.521 404.824C653.545 403.528 652.561 402.202 651.599 400.883C635.987 379.446 623.144 356.184 610.721 333.687C606.652 326.314 602.441 318.693 598.211 311.275C579.81 278.93 562.333 253.166 543.215 230.187C540.725 227.194 538.156 224.196 535.575 221.27C488.543 167.96 426.545 124.69 356.284 96.1384C272.423 62.1919 186.239 50.8179 113.609 64.1147C35.4283 78.6174 -38.9309 136.347 -28.0395 207.858L-28.3187 207.891C-31.0204 190.149 -28.6825 172.686 -21.3726 155.987C-14.6719 140.687 -3.94685 126.287 10.5093 113.191C23.9897 100.977 40.1153 90.3975 58.4408 81.7411C75.8891 73.4982 94.9477 67.3186 113.552 63.8665C151.802 56.8646 193.493 56.6089 237.467 63.1044C277.057 68.9506 317.072 79.9887 356.402 95.9103C426.706 124.477 488.738 167.772 535.792 221.115C538.373 224.043 540.945 227.044 543.438 230.037C562.567 253.026 580.049 278.805 598.459 311.162C602.689 318.58 606.9 326.203 610.969 333.576C623.389 356.066 636.23 379.321 651.831 400.748C652.792 402.066 653.774 403.39 654.75 404.686C695.428 458.345 755.511 492.424 823.934 500.647C885.301 508.022 952.691 495.034 1029.96 460.944C1036.21 458.182 1042.68 455.208 1049.17 452.102C1093.34 430.999 1135.42 405.225 1179.97 377.934C1202.19 364.329 1225.16 350.258 1248.19 336.973C1291.27 312.227 1327.11 293.944 1360.97 279.436C1400.83 262.359 1438.28 250.449 1475.46 243.023C1498.13 238.44 1517.89 236.365 1535.87 236.68C1559.02 237.087 1579.42 241.318 1598.25 249.621C1634.65 265.743 1664.28 294.488 1692.93 322.285C1700.97 330.082 1708.56 337.445 1716.24 344.469C1790.48 412.41 1866.34 485.655 1948.16 568.39L1947.95 568.558Z" fill="#1F1F1F" fill-opacity="0.51"/>
<path d="M1944.96 566.193C1863.94 482.566 1789.44 408.481 1717.21 339.7C1709.64 332.488 1702.14 324.869 1694.21 316.802C1666.32 288.463 1637.49 259.16 1601.39 243.384C1557.21 224.153 1510.14 232.995 1478.58 241.32C1400.64 261.704 1331.11 300.517 1254.79 345.399C1241.02 353.524 1227.1 361.909 1213.64 370.022C1161.85 401.218 1108.3 433.475 1053.55 456.81C1046.9 459.648 1040.25 462.358 1033.78 464.865C997.284 478.984 961.998 488.676 928.898 493.672C891.401 499.333 855.754 499.11 822.939 493.013C789.977 486.888 759.042 474.888 730.993 457.344C702.608 439.59 677.605 416.418 656.679 388.473C655.712 387.174 654.736 385.846 653.78 384.527C638.638 363.592 625.714 341.087 613.215 319.324C608.711 311.482 604.055 303.375 599.376 295.485C580.255 263.173 562.415 237.63 543.232 215.098C540.714 212.139 538.108 209.166 535.491 206.263C487.873 153.454 425.417 110.821 354.874 82.9665C270.464 49.747 184.045 39.2354 111.534 53.3695C35.8348 68.2859 -39.8978 123.99 -31.1525 197.85L-31.4317 197.875C-33.5327 180.133 -30.7915 162.69 -23.2871 146.029C-16.3861 130.711 -5.5962 116.299 8.78097 103.188C35.3074 79.0005 72.7366 60.7525 111.471 53.1213C149.676 45.6757 191.412 44.9738 235.519 51.0356C275.204 56.4907 315.397 67.1552 354.987 82.7359C425.57 110.606 488.062 153.266 535.711 206.1C538.331 209.006 540.937 211.979 543.458 214.94C562.649 237.485 580.498 263.038 599.624 295.363C604.303 303.254 608.962 311.362 613.466 319.204C625.962 340.961 638.884 363.461 654.017 384.387C654.97 385.705 655.946 387.032 656.913 388.33C698.778 444.24 756.208 480.353 822.992 492.765C884.833 504.256 955.709 494.793 1033.66 464.634C1040.13 462.127 1046.78 459.42 1053.42 456.584C1108.15 433.257 1161.69 401.005 1213.47 369.814C1226.94 361.701 1240.86 353.316 1254.63 345.191C1288.04 325.544 1326.91 303.009 1365.5 284.194C1405.85 264.515 1442.82 250.413 1478.49 241.082C1500.95 235.158 1520.71 232.085 1538.88 231.689C1561.8 231.187 1582.87 235.048 1601.51 243.16C1617.68 250.228 1633.96 260.774 1651.27 275.405C1666.56 288.323 1680.72 302.718 1694.41 316.637C1702.35 324.701 1709.84 332.32 1717.41 339.53C1789.65 408.313 1864.14 482.401 1945.17 566.03L1944.96 566.193Z" fill="#1F1F1F" fill-opacity="0.51"/>
<path d="M1941.96 563.832C1861.74 479.302 1788.61 404.372 1718.39 334.759C1710.95 327.389 1703.58 319.54 1695.79 311.232C1668.63 282.304 1640.55 252.391 1604.66 236.926C1571.11 222.518 1530.87 223.321 1481.63 239.378C1412.78 261.702 1351.24 299.043 1286.08 338.58C1277.97 343.504 1269.58 348.593 1261.23 353.619C1257.97 355.592 1254.69 357.57 1251.43 359.546C1189.34 397.072 1125.15 435.877 1057.8 461.303C1051 463.875 1044.16 466.319 1037.47 468.565C1000.17 481.082 963.893 489.049 929.634 492.243C891.271 495.818 855.052 493.427 821.988 485.134C789.54 476.994 758.986 462.98 731.176 443.481C704.221 424.581 679.889 400.574 658.853 372.123C657.895 370.822 656.927 369.491 655.977 368.17C641.411 347.891 628.528 326.294 616.066 305.408C611.021 296.95 605.801 288.203 600.558 279.689C580.698 247.4 562.497 222.077 543.269 200.001C540.714 197.068 538.077 194.125 535.426 191.249C487.204 138.952 424.286 96.953 353.467 69.7953C268.509 37.3052 181.851 27.6535 109.461 42.625C35.1523 58.1204 -40.4732 114.281 -34.2604 187.845L-34.5424 187.865C-36.0399 170.121 -32.8982 152.697 -25.1992 136.079C-18.0952 120.744 -7.24323 106.314 7.05781 93.1926C33.4714 68.9554 70.7709 50.4366 109.396 42.3818C147.558 34.4899 189.336 33.3418 233.573 38.9724C273.354 44.0314 313.731 54.3249 353.579 69.5646C424.439 96.7399 487.396 138.761 535.638 191.086C538.289 193.962 540.931 196.91 543.486 199.843C562.723 221.932 580.935 247.262 600.8 279.564C606.046 288.078 611.263 296.827 616.311 305.285C628.768 326.166 641.65 347.758 656.211 368.029C657.161 369.35 658.126 370.679 659.085 371.98C701.858 429.83 758.213 468.871 822.062 484.885C885.089 500.694 957.528 495.121 1037.37 468.325C1044.05 466.078 1050.89 463.637 1057.69 461.067C1125.01 435.652 1189.2 396.854 1251.26 359.333C1254.54 357.355 1257.8 355.379 1261.07 353.406C1269.42 348.38 1277.81 343.291 1285.92 338.369C1351.09 298.825 1412.65 261.474 1481.53 239.139C1503.77 231.884 1523.52 227.816 1541.9 226.695C1564.91 225.294 1586.06 228.66 1604.78 236.698C1620.86 243.624 1636.93 254.219 1653.92 269.088C1668.91 282.206 1682.68 296.879 1696 311.069C1703.8 319.374 1711.17 327.221 1718.6 334.589C1788.82 404.204 1861.96 479.137 1942.18 563.669L1941.96 563.832Z" fill="#1F1F1F" fill-opacity="0.51"/>
<path d="M1938.98 561.47C1865.76 482.702 1791.94 404.761 1719.56 329.816C1712.2 322.23 1704.89 314.08 1697.16 305.453C1672.02 277.391 1643.52 245.585 1607.92 230.465C1573.99 216.083 1533.67 218.362 1484.67 237.43C1426.41 260.027 1374.86 293.254 1320.27 328.432C1303.18 339.447 1285.51 350.842 1267.68 361.832C1236.56 381.058 1202.89 401.402 1167.6 419.931C1129.81 439.775 1095.28 454.775 1062.05 465.79C1055.06 468.104 1048.04 470.283 1041.15 472.261C1003.07 483.198 965.8 489.423 930.382 490.762C891.173 492.241 854.382 487.698 821.025 477.249C759.427 457.715 705.59 416.844 661.012 355.77C660.061 354.467 659.102 353.133 658.158 351.812C644.33 332.428 631.674 311.979 619.434 292.202C613.672 282.893 607.716 273.267 601.723 263.898C581.108 231.616 562.54 206.517 543.29 184.909C540.698 182.001 538.027 179.086 535.345 176.24C486.537 124.447 423.157 83.0871 352.06 56.6238C266.553 24.8608 179.661 16.0739 107.389 31.8802C32.6291 48.3233 -41.1011 103.739 -37.37 177.84L-37.6521 177.85C-38.546 160.101 -34.9983 142.697 -27.1103 126.121C-19.8004 110.766 -8.88644 96.3213 5.33281 83.1899C18.7286 70.8181 34.6061 60.0007 52.5226 51.0358C69.9173 42.3342 88.3527 35.8061 107.318 31.6346C145.438 23.299 187.261 21.7045 231.628 26.9014C271.505 31.5719 312.059 41.4919 352.167 56.3906C423.306 82.869 486.723 124.254 535.56 176.072C538.242 178.92 540.918 181.838 543.51 184.746C562.768 206.366 581.345 231.476 601.969 263.768C607.962 273.139 613.918 282.765 619.679 292.076C631.919 311.851 644.573 332.298 658.395 351.674C659.336 352.998 660.298 354.329 661.246 355.632C705.79 416.659 759.579 457.497 821.118 477.011C884.507 496.866 960.563 495.141 1041.06 472.02C1047.94 470.042 1054.97 467.866 1061.95 465.554C1136.26 440.929 1204.25 400.71 1267.51 361.624C1285.34 350.633 1303.02 339.242 1320.11 328.226C1374.7 293.041 1426.27 259.807 1484.56 237.199C1533.63 218.101 1574.02 215.822 1608.04 230.237C1623.99 237.009 1639.82 247.623 1656.44 262.682C1671.1 275.962 1684.46 290.875 1697.38 305.295C1705.11 313.922 1712.41 322.069 1719.78 329.65C1792.15 404.598 1865.97 482.539 1939.19 561.31L1938.98 561.47Z" fill="#1F1F1F" fill-opacity="0.51"/>
<path d="M1935.99 559.108C1863.89 479.904 1791.47 401.096 1720.74 324.872C1713.6 317.203 1706.52 308.91 1699.02 300.131C1674.5 271.414 1646.7 238.864 1611.19 224C1576.84 209.643 1536.46 213.398 1487.72 235.477C1436.65 258.576 1389.74 291.191 1344.37 322.736C1321.62 338.552 1298.09 354.908 1274.12 370.042C1236.28 393.953 1204.45 412.194 1173.93 427.449C1136.3 446.258 1101.09 460.267 1066.3 470.275C1059.15 472.33 1051.93 474.241 1044.84 475.953C1007.88 484.87 971.595 489.383 936.879 489.385C934.95 489.385 933.032 489.37 931.114 489.343C890.978 488.761 853.616 482.037 820.068 469.362C803.874 463.21 788.017 455.401 772.937 446.15C758.763 437.456 744.834 427.215 731.537 415.714C707.614 395.021 685.25 370.062 663.174 339.415C662.226 338.096 661.281 336.775 660.342 335.449C647.533 317.366 635.415 298.464 623.697 280.183C616.932 269.631 609.938 258.719 602.893 248.097C581.203 215.371 562.83 191.224 543.311 169.807C540.686 166.927 537.981 164.039 535.266 161.221C485.865 109.941 422.025 69.2185 350.652 43.4496C264.598 12.4161 177.469 4.49163 105.315 21.1327C31.9571 38.0998 -41.6772 93.937 -40.4787 167.829L-40.7607 167.832C-41.3191 133.414 -25.9746 100.686 3.61171 73.187C16.9849 60.7575 32.7778 49.8624 50.5561 40.7972C67.855 31.9778 86.2537 25.2792 105.245 20.8871C143.32 12.1052 185.188 10.0671 229.684 14.8303C269.657 19.1096 310.392 28.6586 350.757 43.2139C422.174 69.0004 486.051 109.748 535.483 161.058C538.198 163.878 540.909 166.769 543.534 169.649C563.061 191.079 581.443 215.233 603.138 247.971C610.183 258.596 617.18 269.508 623.943 280.06C635.66 298.338 647.776 317.238 660.582 335.316C661.521 336.642 662.463 337.963 663.411 339.279C710.321 404.405 761.6 446.88 820.178 469.132C901.311 499.787 987.092 489.631 1044.77 475.712C1051.85 474 1059.07 472.092 1066.21 470.037C1146.24 447.018 1219.27 404.397 1273.96 369.839C1297.92 354.71 1321.45 338.354 1344.19 322.54C1389.58 290.991 1436.5 258.365 1487.59 235.256C1509.4 225.376 1529.14 219.309 1547.93 216.712C1571.11 213.508 1592.43 215.885 1611.31 223.777C1627.21 230.433 1642.89 241.132 1659.24 256.485C1673.65 270.012 1686.66 285.247 1699.25 299.983C1706.74 308.76 1713.82 317.05 1720.96 324.714C1791.68 400.938 1864.1 479.746 1936.21 558.95L1935.99 559.108Z" fill="#1F1F1F" fill-opacity="0.51"/>
<path d="M1933 556.747L1721.92 319.931C1715.02 312.197 1708.18 303.781 1700.93 294.874C1677.01 265.478 1649.9 232.16 1614.46 217.542C1580.18 203.408 1538.57 208.788 1490.77 233.534C1444.82 257.322 1402.91 288.958 1362.37 319.552C1335.96 339.495 1308.64 360.115 1280.57 378.263C1196.2 432.809 1122.47 465.025 1048.54 479.653C1017.86 485.72 987.606 488.774 958.263 488.774C949.368 488.774 940.563 488.493 931.852 487.931C890.768 485.284 852.837 476.384 819.116 461.483C787.863 447.67 759.272 428.171 731.719 401.868C709.716 380.865 688.624 355.825 665.344 323.067C653.056 305.779 641.158 287.817 629.652 270.446C603.611 231.137 576.684 190.49 543.347 154.716C492.211 99.846 425.092 56.8168 349.243 30.2783C262.645 -0.0232128 175.279 -7.08779 103.244 10.3881C33.501 27.3075 -42.1949 80.6604 -43.5881 157.824L-43.8701 157.819C-43.2469 123.329 -27.4229 90.6054 1.88981 63.1869C28.3937 38.3957 64.362 19.5585 103.17 10.145C141.203 0.919401 183.116 -1.56498 227.74 2.76451C267.808 6.65028 308.723 15.8307 349.348 30.0451C386.878 43.1765 422.522 60.4619 455.293 81.4225C488.336 102.559 518.036 127.162 543.561 154.55C576.912 190.337 603.847 230.994 629.894 270.313C641.401 287.682 653.299 305.641 665.584 322.927C699.55 370.724 747.712 429.64 819.243 461.252C901.276 497.505 989.177 491.133 1048.47 479.403C1122.37 464.785 1196.07 432.581 1280.4 378.054C1308.46 359.914 1335.78 339.295 1362.19 319.357C1402.73 288.757 1444.65 257.114 1490.63 233.313C1538.51 208.525 1580.21 203.14 1614.58 217.312C1630.45 223.857 1645.98 234.65 1662.07 250.31C1676.24 264.096 1688.91 279.667 1701.16 294.724C1708.41 303.631 1715.25 312.042 1722.14 319.773L1933.22 556.589L1933 556.747Z" fill="#1F1F1F" fill-opacity="0.51"/>
<path d="M1931.29 538.542C1877.55 472.604 1831.43 419.098 1786.16 370.16C1764.19 346.387 1741.75 322.987 1719.47 300.61C1712.73 293.841 1706.05 286.641 1698.98 279.018C1681.21 259.857 1662.84 240.045 1641.7 225.341C1630.34 217.432 1619.42 211.769 1608.29 208.028C1574.13 196.434 1534.05 204.1 1489.16 230.817C1465.93 244.622 1444.78 260.333 1427.16 273.881C1408.5 288.223 1390.09 304.039 1372.29 319.334C1346.7 341.32 1320.24 364.053 1291.8 383.577C1274.49 395.493 1256.94 406.14 1239.65 415.225C1205.04 433.4 1167.9 448.377 1129.26 459.738C1105.38 466.68 1081.38 471.927 1057.94 475.332C1037.74 478.255 1017.51 479.942 997.791 480.346C968.283 480.952 939.535 478.638 912.343 473.461C883.43 467.956 856.069 459.169 831.021 447.342C808.685 436.795 787.587 423.516 766.523 406.742C727.273 375.51 695.966 339.397 673.078 311.425C661.834 297.619 650.855 283.54 640.237 269.925C609.663 230.714 580.785 193.679 544.647 160.69C515.174 133.961 481.546 110.894 444.69 92.1273C416.367 77.7048 385.562 65.9097 353.133 57.0677C345.409 54.9643 337.538 53.0039 329.746 51.2465C296.197 43.6931 258.429 38.7745 217.495 36.626C176.225 34.4099 140.518 36.3277 108.343 42.4948C90.1532 45.9544 72.53 51.3819 55.9559 58.6245C-2.55676 84.1953 -40.1298 127.122 -44.5518 173.455L-44.9043 173.428C-43.7255 161.076 -40.2651 148.91 -34.622 137.262C-29.2608 126.199 -21.8974 115.53 -12.7375 105.55C4.56979 86.6973 28.2704 70.372 55.8008 58.3412C72.4003 51.0861 90.0517 45.651 108.27 42.1864C140.479 36.0143 176.213 34.094 217.517 36.3127C258.474 38.4611 296.262 43.3848 329.833 50.9432C337.634 52.7031 345.507 54.6635 353.237 56.7693C385.692 65.6164 416.522 77.4216 444.867 91.8566C481.749 110.636 515.405 133.723 544.893 160.469C581.053 193.478 609.937 230.523 640.522 269.744C651.137 283.36 662.116 297.436 673.357 311.239C696.234 339.199 727.526 375.294 766.755 406.506C787.796 423.262 808.871 436.529 831.181 447.063C880.204 470.21 936.255 481.303 997.78 480.032C1017.48 479.629 1037.7 477.941 1057.89 475.021C1081.31 471.616 1105.28 466.374 1129.14 459.438C1167.77 448.084 1204.89 433.117 1239.47 414.952C1256.75 405.874 1274.29 395.232 1291.58 383.327C1320.01 363.813 1346.46 341.085 1372.04 319.106C1389.84 303.809 1408.25 287.988 1426.92 273.64C1444.56 260.085 1465.72 244.369 1488.97 230.553C1508.95 218.658 1528.3 210.44 1546.48 206.126C1568.81 200.826 1589.65 201.367 1608.41 207.735C1619.57 211.488 1630.53 217.166 1641.91 225.093C1663.09 239.819 1681.47 259.644 1699.25 278.817C1706.32 286.438 1713 293.638 1719.73 300.402C1742.02 322.781 1764.47 346.184 1786.44 369.962C1831.71 418.905 1877.83 472.416 1931.58 538.359L1931.29 538.542Z" fill="#1F1F1F" fill-opacity="0.51"/>
<path d="M1929.59 520.331C1879.76 453.278 1832.99 397.168 1786.6 348.796C1763.98 325.168 1740.57 302.455 1717.02 281.289C1710.77 275.673 1704.6 269.837 1698.07 263.66C1678.51 245.161 1658.29 226.033 1635.63 212.799C1624.19 206.088 1613.23 201.415 1602.12 198.512C1559.56 187.391 1516.34 208.46 1487.56 228.091C1467.18 241.96 1448.56 257.641 1429.7 273.828C1413.19 287.997 1397.66 303.24 1381.22 319.374C1356.82 343.326 1331.58 368.092 1303.03 388.887C1286.08 401.294 1268.39 412.021 1250.46 420.77C1217.06 437.071 1180.48 449.728 1138.63 459.47C1115.21 464.92 1091.23 468.804 1067.35 471.007C1047.2 472.845 1027.08 473.502 1007.56 472.953C978.521 472.145 950.133 468.515 923.183 462.165C894.88 455.494 867.875 445.747 842.919 433.195C821.054 422.199 799.942 408.557 778.377 391.489C739.21 360.536 705.659 326.221 680.808 299.783C671.608 289.995 662.555 280.148 653.799 270.622C618.928 232.687 585.991 196.852 545.95 166.664C516.026 144.101 482.429 125.023 446.1 109.962C418.612 98.565 389.477 90.0264 357.033 83.8568C349.546 82.4353 341.929 81.1543 334.396 80.0487C301.31 75.2178 265.999 73.3903 223.276 71.5C192.48 70.0686 152.166 69.126 113.436 74.5961C95.0941 77.1382 77.3637 81.5529 60.7332 87.7125C2.18104 109.405 -37.5381 147.3 -45.5191 189.086L-45.9365 189.023C-43.8214 177.943 -39.5348 167.075 -33.2035 156.719C-27.1684 146.851 -19.2381 137.39 -9.63542 128.591C8.61383 111.874 32.8898 97.6174 60.5697 87.364C77.2312 81.1919 94.9953 76.7696 113.369 74.2226C152.135 68.7449 192.48 69.69 223.296 71.1215C266.032 73.0117 301.355 74.8393 334.464 79.6727C342.002 80.7808 349.625 82.0618 357.121 83.4832C389.595 89.6604 418.758 98.2065 446.277 109.616C482.643 124.692 516.268 143.785 546.224 166.37C586.293 196.582 619.244 232.426 654.126 270.376C662.88 279.9 671.932 289.747 681.132 299.532C705.977 325.96 739.515 360.263 778.659 391.201C800.199 408.251 821.288 421.878 843.128 432.861C892.198 457.542 947.53 470.902 1007.58 472.571C1027.08 473.118 1047.17 472.464 1067.3 470.626C1091.16 468.425 1115.13 464.547 1138.52 459.099C1180.33 449.367 1216.88 436.72 1250.26 420.434C1268.17 411.695 1285.83 400.983 1302.76 388.589C1331.29 367.811 1356.52 343.055 1380.91 319.116C1397.36 302.974 1412.89 287.729 1429.41 273.552C1448.27 257.355 1466.9 241.669 1487.31 227.786C1505.96 215.058 1524.36 205.902 1541.99 200.568C1563.38 194.1 1583.65 193.285 1602.24 198.143C1613.4 201.059 1624.4 205.747 1635.87 212.478C1658.56 225.737 1678.81 244.883 1698.38 263.397C1704.91 269.571 1711.08 275.405 1717.33 281.018C1740.89 302.192 1764.3 324.912 1786.93 348.548C1833.32 396.932 1880.11 453.052 1929.95 520.121L1929.59 520.331Z" fill="#1F1F1F" fill-opacity="0.51"/>
<path d="M1927.89 502.121C1881.25 433.042 1835.18 375.901 1787.04 327.434C1763.77 303.951 1739.39 281.928 1714.58 261.97C1709.28 257.703 1703.82 253.176 1698.54 248.799C1676.73 230.713 1654.19 212.014 1629.58 200.259C1618.02 194.704 1607.03 191.018 1595.96 188.995C1553.5 181.226 1512.7 204.486 1485.96 225.364C1467.84 239.458 1451.27 255.432 1435.25 270.882L1432.25 273.775C1417.7 287.792 1404.05 303.164 1389.6 319.442C1366.59 345.361 1342.8 372.16 1314.26 394.197C1297.65 407.112 1279.82 417.92 1261.27 426.318C1228.93 440.961 1192.93 451.41 1148 459.202C1124.76 463.23 1100.79 465.747 1076.74 466.68C1056.65 467.43 1036.66 467.053 1017.33 465.557C958.808 461.047 904.131 445.398 854.812 419.048C833.492 407.656 812.366 393.655 790.231 376.237C752.77 346.823 719.453 316.589 688.541 288.143C684.396 284.33 680.295 280.542 676.226 276.784C634.005 237.803 594.128 200.984 547.263 172.645C516.667 154.144 483.104 139.057 447.511 127.801C421.379 119.538 393.059 113.927 360.937 110.648C353.698 109.914 346.335 109.31 339.05 108.853C320.725 107.725 301.288 107.542 280.709 107.349C264.181 107.194 247.09 107.033 229.055 106.379C194.224 105.008 154.747 103.456 118.525 106.705C99.8357 108.382 81.9982 111.781 65.5059 116.81C6.97625 134.66 -34.8919 167.528 -46.4912 204.734L-46.9678 204.616C-43.9107 194.806 -38.8006 185.237 -31.7812 176.175C-25.0692 167.508 -16.5749 159.25 -6.53514 151.632C12.6673 137.061 37.5242 124.878 65.3423 116.394C81.8712 111.353 99.7454 107.946 118.471 106.266C154.73 103.015 194.226 104.569 229.072 105.94C247.096 106.592 264.186 106.755 280.709 106.91C301.297 107.103 320.739 107.286 339.081 108.417C346.371 108.876 353.743 109.48 360.988 110.215C393.149 113.496 421.503 119.114 447.671 127.39C483.307 138.658 516.906 153.763 547.536 172.284C594.444 200.648 634.341 237.485 676.578 276.483C680.648 280.241 684.751 284.026 688.894 287.842C719.8 316.283 753.106 346.509 790.555 375.913C812.668 393.312 833.771 407.3 855.066 418.677C904.32 444.995 958.927 460.621 1017.37 465.126C1036.68 466.62 1056.65 466.996 1076.72 466.246C1100.74 465.314 1124.69 462.799 1147.9 458.776C1192.79 450.991 1228.74 440.555 1261.05 425.932C1279.56 417.551 1297.35 406.764 1313.93 393.871C1342.43 371.862 1366.21 345.078 1389.21 319.174C1403.66 302.889 1417.32 287.508 1431.88 273.482L1434.88 270.589C1450.91 255.131 1467.49 239.147 1485.63 225.038C1512.46 204.092 1553.39 180.765 1596.06 188.569C1607.17 190.602 1618.21 194.3 1629.81 199.878C1654.47 211.658 1677.04 230.378 1698.87 248.483C1704.15 252.86 1709.61 257.387 1714.9 261.652C1739.73 281.62 1764.12 303.656 1787.41 327.151C1835.57 375.638 1881.65 432.799 1928.31 501.9L1927.89 502.121Z" fill="#1F1F1F" fill-opacity="0.51"/>
<path d="M1926.19 483.908C1883.37 413.786 1836.7 353.953 1787.49 306.075C1763.56 282.74 1738.21 261.404 1712.14 242.657C1708.38 239.949 1704.52 237.139 1700.79 234.421C1676.15 216.469 1650.67 197.903 1623.53 187.724C1611.88 183.31 1600.85 180.615 1589.81 179.482C1547.47 175.14 1509.1 200.552 1484.37 222.636C1469.01 236.279 1455.15 251.451 1441.75 266.124C1439.43 268.664 1437.11 271.198 1434.79 273.723C1422.04 287.591 1410.12 303.084 1397.5 319.485C1376.05 347.367 1353.86 376.197 1325.49 399.511C1308.83 413.202 1291.36 423.786 1272.08 431.873C1231.76 448.788 1191.46 455.048 1157.36 458.943C1134.3 461.576 1110.34 462.729 1086.14 462.363C1066.1 462.024 1046.24 460.613 1027.09 458.171C970.331 450.949 916.37 433.029 866.71 404.909C846.047 393.211 824.909 378.847 802.086 360.995C779.031 343.005 757.547 325.694 736.768 308.953C722.648 297.574 709.308 286.827 696.282 276.515C647.042 237.537 601.939 203.267 548.585 178.634C517.331 164.207 483.803 153.106 448.929 145.643C423.933 140.293 397.215 137.688 364.848 137.44C357.866 137.395 350.753 137.468 343.711 137.658C333.014 137.967 321.948 138.611 310.236 139.295C287.759 140.606 262.279 142.093 234.833 141.261C224.382 140.942 213.719 140.494 203.405 140.057C176.879 138.937 149.45 137.779 123.609 138.814C104.632 139.576 86.6846 141.963 70.2712 145.909C11.8403 159.96 -32.1739 187.805 -47.4705 220.392L-47.9922 220.199C-43.9876 211.666 -38.0539 203.398 -30.3577 195.624C-22.9661 188.158 -13.9077 181.106 -3.4393 174.666C16.7333 162.256 42.1683 152.146 70.1189 145.425C86.5718 141.469 104.559 139.075 123.578 138.312C149.447 137.275 176.887 138.435 203.428 139.556C213.738 139.992 224.401 140.441 234.85 140.759C262.271 141.592 287.731 140.107 310.196 138.796C321.914 138.112 332.983 137.468 343.691 137.159C350.742 136.969 357.86 136.896 364.851 136.941C397.263 137.187 424.021 139.799 449.058 145.156C483.975 152.63 517.549 163.743 548.841 178.19C572.942 189.316 597.365 203.413 623.505 221.282C646.907 237.279 669.671 254.783 696.654 276.142C709.681 286.456 723.02 297.203 737.143 308.582C757.919 325.321 779.403 342.631 802.453 360.619C825.254 378.453 846.368 392.803 867.006 404.488C916.599 432.57 970.483 450.465 1027.17 457.677C1046.29 460.117 1066.13 461.526 1086.14 461.864C1110.31 462.23 1134.25 461.079 1157.28 458.447C1191.34 454.559 1231.58 448.306 1271.83 431.422C1291.06 423.357 1308.48 412.801 1325.1 399.145C1353.42 375.871 1375.59 347.063 1397.03 319.204C1409.66 302.793 1421.58 287.293 1434.35 273.409C1436.67 270.885 1438.99 268.35 1441.3 265.813C1454.72 251.13 1468.59 235.948 1483.96 222.288C1500.05 207.92 1516.56 196.867 1533.02 189.437C1552.52 180.635 1571.65 177.12 1589.87 178.99C1600.96 180.128 1612.04 182.836 1623.74 187.268C1650.95 197.474 1676.46 216.063 1701.13 234.038C1704.86 236.755 1708.72 239.566 1712.48 242.271C1738.57 261.033 1763.94 282.389 1787.89 305.741C1814.02 331.164 1839.61 360.13 1863.95 391.833C1885.46 419.853 1906.56 450.753 1926.67 483.672L1926.19 483.908Z" fill="#1F1F1F" fill-opacity="0.51"/>
<path d="M1924.49 465.69C1884.85 393.557 1838.91 332.669 1787.93 284.713C1763.35 261.527 1737.03 240.879 1709.71 223.341C1708.41 222.506 1707.11 221.671 1705.8 220.834C1677.39 202.573 1648.01 183.691 1617.5 175.19C1605.68 171.896 1594.61 170.189 1583.68 169.968C1541.5 169.121 1505.53 196.657 1482.79 219.904C1469.4 233.504 1457.52 248.41 1446.03 262.825C1443.19 266.39 1440.25 270.075 1437.35 273.665C1426.31 287.338 1416.04 302.884 1405.17 319.344C1385.4 349.285 1364.95 380.243 1336.73 404.821C1320.4 419.041 1302.79 429.705 1282.9 437.427C1243.7 452.636 1203.9 456.63 1166.73 458.68C1143.81 459.944 1119.86 459.728 1095.54 458.041C1075.57 456.612 1055.83 454.168 1036.86 450.779C982.03 441.001 928.786 420.811 878.612 390.765C858.519 378.734 837.971 364.429 813.952 345.747C768.302 310.339 734.403 285.4 704.042 264.886C643.653 224.085 597.563 200.081 549.934 184.624C518.046 174.275 484.551 167.163 450.374 163.482C426.662 160.93 401.497 161.158 368.784 164.23C362.08 164.866 355.221 165.616 348.397 166.461C341.95 167.27 335.401 168.198 328.467 169.178C302.862 172.801 273.84 176.907 240.624 176.14C223.117 175.736 205.234 174.631 187.941 173.563C168.287 172.35 147.965 171.094 128.698 170.923C109.38 170.753 91.3221 172.126 75.0413 175.009C16.805 185.315 -29.361 208.141 -48.4507 236.066L-48.9922 235.773C-44.0343 228.518 -37.2772 221.551 -28.9098 215.065C-20.8329 208.803 -11.2161 202.959 -0.324654 197.692C20.8322 187.459 46.851 179.422 74.9172 174.455C91.2431 171.567 109.34 170.189 128.703 170.359C147.988 170.529 168.321 171.785 187.983 173.001C205.271 174.069 223.145 175.175 240.638 175.578C273.795 176.343 302.786 172.242 328.362 168.624C335.3 167.641 341.854 166.716 348.304 165.904C355.137 165.059 362.001 164.31 368.71 163.67C401.475 160.597 426.682 160.366 450.444 162.926C484.67 166.611 518.213 173.733 550.145 184.097C597.84 199.575 643.978 223.604 704.419 264.44C734.793 284.962 768.702 309.908 814.363 345.326C838.366 363.993 858.891 378.283 878.962 390.301C929.068 420.304 982.233 440.467 1036.98 450.23C1055.92 453.614 1075.64 456.053 1095.58 457.482C1119.87 459.167 1143.79 459.382 1166.69 458.121C1203.8 456.073 1243.53 452.09 1282.64 436.915C1302.46 429.224 1320.01 418.594 1336.28 404.425C1364.44 379.9 1384.87 348.974 1404.62 319.066C1415.49 302.595 1425.77 287.037 1436.83 273.344C1439.73 269.757 1442.67 266.072 1445.51 262.507C1457.01 248.079 1468.9 233.163 1482.3 219.54C1497.15 204.368 1512.71 192.367 1528.55 183.869C1547.12 173.914 1565.67 169.053 1583.69 169.411C1594.68 169.632 1605.8 171.349 1617.68 174.658C1648.3 183.19 1677.72 202.097 1706.17 220.385C1707.48 221.222 1708.78 222.06 1710.08 222.892C1737.43 240.451 1763.78 261.123 1788.39 284.335C1839.41 332.333 1885.39 393.269 1925.05 465.452L1924.49 465.69Z" fill="#1F1F1F" fill-opacity="0.51"/>
<path d="M1180.76 458.42C1179.18 458.42 1177.62 458.417 1176.08 458.41C1153.28 458.324 1129.34 456.745 1104.93 453.712C1085.03 451.192 1065.41 447.715 1046.62 443.38C1019.77 437.198 992.827 428.314 966.529 416.975C941.134 406.024 915.558 392.447 890.509 376.615C865.965 361.105 843.04 343.822 825.809 330.498C785.492 299.406 747.132 273.419 711.795 253.256C654.563 220.601 603.56 200.693 551.283 190.607C519.745 184.523 485.909 181.314 453.331 181.314C452.826 181.314 452.324 181.314 451.819 181.317C423.832 181.402 397.26 186.025 372.719 191.009C366.331 192.315 359.724 193.741 353.08 195.253C349.439 196.09 345.792 196.953 341.934 197.865C314.723 204.31 283.878 211.613 246.407 211.014C223.586 210.648 200.278 208.547 177.736 206.514C163.181 205.2 148.133 203.844 133.778 203.024C114.046 201.899 95.8866 202.26 79.8004 204.102C21.8743 210.731 -26.4435 228.54 -49.4532 251.744L-49.9834 251.331C-38.181 239.43 -20.4281 229.127 2.78183 220.703C24.9483 212.661 51.5508 206.705 79.7101 203.483C95.8386 201.638 114.046 201.272 133.823 202.403C148.192 203.222 163.249 204.581 177.809 205.895C200.337 207.928 223.631 210.029 246.421 210.392C283.797 210.991 314.587 203.699 341.754 197.266C345.615 196.351 349.261 195.489 352.905 194.651C359.555 193.139 366.168 191.711 372.561 190.404C397.145 185.413 423.761 180.783 451.816 180.695C484.914 180.592 519.356 183.811 551.433 190.001C578.413 195.208 604.57 202.871 631.393 213.431C657.225 223.601 683.65 236.457 712.173 252.735C747.538 272.913 785.926 298.92 826.269 330.031C843.486 343.348 866.394 360.619 890.912 376.112C941.74 408.236 994.187 430.665 1046.79 442.781C1065.56 447.111 1085.15 450.583 1105.02 453.1C1129.4 456.128 1153.31 457.708 1176.08 457.79C1211.71 457.921 1253.09 456.853 1293.44 442.4C1313.86 435.085 1331.53 424.388 1347.45 409.7C1375.42 383.903 1393.96 350.794 1411.89 318.773C1421.12 302.302 1429.83 286.744 1439.3 273.277C1442.34 268.962 1445.4 264.517 1448.36 260.218C1458.37 245.693 1468.71 230.676 1480.63 216.795C1494.25 200.826 1508.87 187.872 1524.07 178.296C1541.7 167.193 1559.67 160.98 1577.49 159.832C1588.48 159.123 1599.64 159.847 1611.6 162.048C1643.59 167.93 1675.29 185.017 1707.65 203.511C1735.87 219.635 1763.96 240.18 1788.87 262.925C1816.55 288.118 1842.55 317.672 1866.16 350.766C1887.19 380.25 1906.46 412.705 1923.42 447.231L1922.78 447.482C1886.35 373.336 1841.13 311.39 1788.37 263.364C1763.49 240.651 1735.45 220.137 1707.27 204.04C1674.96 185.579 1643.33 168.524 1611.46 162.663C1599.56 160.474 1588.46 159.754 1577.54 160.459C1544.8 162.572 1510.59 182.713 1481.19 217.176C1469.3 231.032 1458.96 246.036 1448.96 260.546C1446 264.848 1442.94 269.296 1439.9 273.61C1430.45 287.052 1421.74 302.598 1412.53 319.053C1403.73 334.764 1394.63 351.012 1384.19 366.63C1372.35 384.337 1360.51 398.566 1347.96 410.136C1331.97 424.889 1314.22 435.634 1293.7 442.984C1275.6 449.467 1256.15 453.752 1234.24 456.088C1215.68 458.056 1197.04 458.42 1180.76 458.42Z" fill="#1F1F1F" fill-opacity="0.51"/>
<path d="M1225.99 459.676C1211.61 459.676 1197.79 458.914 1185.43 458.141C1162.71 456.722 1138.78 453.777 1114.31 449.385C1094.49 445.777 1075 441.27 1056.37 435.982C1005.36 421.535 954.99 397.486 902.397 362.466C879.461 347.196 857.839 330.766 837.663 315.248C797.831 284.701 758.095 259.932 719.552 241.626C662.867 214.704 609.831 200.392 552.644 196.587C520.06 194.418 485.699 195.303 453.273 199.144C426.131 202.358 400.544 210.114 376.657 217.78C370.681 219.708 364.325 221.814 357.768 224.038C356.129 224.597 354.477 225.166 352.802 225.74C325.291 235.196 294.162 245.896 254.212 245.896C253.538 245.896 252.866 245.893 252.187 245.886C225.158 245.643 197.563 242.213 170.873 238.894C160.292 237.578 149.35 236.219 138.85 235.118C118.342 232.972 100.58 232.338 84.5479 233.185C26.2354 236.269 -22.9848 248.744 -50.487 267.418L-50.958 266.869C-37.362 257.638 -17.7027 249.624 5.88799 243.692C29.0923 237.858 56.2758 233.988 84.4999 232.496C100.578 231.646 118.384 232.28 138.938 234.431C149.448 235.532 160.393 236.893 170.977 238.207C197.642 241.521 225.212 244.948 252.19 245.191C292.972 245.562 324.608 234.685 352.517 225.091C354.189 224.516 355.845 223.947 357.483 223.386C364.046 221.16 370.405 219.054 376.387 217.126C400.313 209.445 425.948 201.678 453.163 198.454C485.64 194.609 520.057 193.721 552.695 195.892C581.034 197.777 608.054 202.23 635.297 209.5C663.355 216.988 691.032 227.294 719.91 241.012C758.501 259.343 798.288 284.142 838.162 314.719C858.329 330.232 879.938 346.652 902.854 361.907C955.377 396.879 1005.67 420.893 1056.6 435.318C1075.2 440.595 1094.67 445.098 1114.45 448.7C1138.89 453.087 1162.79 456.031 1185.48 457.444C1223.66 459.826 1264.27 461.049 1304.23 447.87C1325.26 440.934 1343.05 430.169 1358.62 414.959C1386.36 387.867 1403.63 350.912 1418.87 318.306C1426.54 301.901 1433.78 286.405 1441.77 273.196C1444.65 268.431 1447.55 263.505 1450.36 258.741C1459.13 243.838 1468.21 228.427 1478.95 214.035C1491.38 197.268 1505.05 183.362 1519.59 172.703C1536.28 160.461 1553.67 152.901 1571.27 150.236C1582.28 148.569 1593.48 148.303 1605.51 149.416C1639.14 152.532 1673.31 167.93 1705.22 184.107C1734.69 199.043 1763.78 218.888 1789.35 241.496C1817.8 266.571 1844.01 296.421 1867.26 330.212C1888.04 360.431 1906.39 393.663 1921.79 428.991L1921.07 429.239C1888.33 354.146 1842.6 289.394 1788.81 241.982C1763.29 219.417 1734.25 199.61 1704.84 184.704C1673.01 168.564 1638.93 153.204 1605.44 150.1C1593.47 148.992 1582.34 149.258 1571.41 150.913C1538.91 155.834 1506.31 178.384 1479.6 214.411C1468.88 228.773 1459.82 244.168 1451.05 259.057C1448.24 263.823 1445.34 268.749 1442.46 273.52C1434.48 286.699 1427.25 302.179 1419.59 318.567C1404.33 351.223 1387.03 388.238 1359.2 415.421C1343.54 430.713 1325.64 441.538 1304.5 448.515C1286.15 454.566 1266.36 458.071 1243.99 459.222C1237.94 459.548 1231.92 459.676 1225.99 459.676Z" fill="#1F1F1F" fill-opacity="0.51"/>
<path d="M1254.37 462.39C1254.16 462.39 1253.96 462.39 1253.75 462.39C1233.43 462.345 1213.48 460.134 1194.78 457.873C1172.09 455.13 1148.18 450.816 1123.69 445.055C1103.96 440.364 1084.6 434.822 1066.12 428.584C1017.15 412.071 968.904 386.568 914.292 348.319C894.624 334.549 875.269 319.72 856.549 305.383C854.208 303.588 851.865 301.795 849.521 300.003C809.484 269.463 768.368 245.911 727.321 230.002C671.112 208.219 614.424 199.244 554.016 202.565C520.894 204.388 486.564 209.369 454.738 216.97C429.628 222.97 407.253 232.594 380.608 244.552C375.207 246.986 369.44 249.613 362.463 252.822L362.074 253.003C348.613 259.235 333.356 266.297 316.243 271.667C296.589 277.834 277.522 280.802 257.97 280.767C227.481 280.699 196.367 275.656 166.278 270.775C158.906 269.579 151.281 268.343 143.92 267.225C122.811 264.023 104.943 262.406 89.2935 262.283C31.672 261.832 -19.6605 269.423 -51.5396 283.106L-51.9062 282.429C-36.291 275.726 -15.2272 270.286 9.00639 266.696C33.2851 263.098 61.0525 261.313 89.302 261.534C104.996 261.657 122.91 263.276 144.064 266.485C151.43 267.603 159.056 268.839 166.431 270.035C196.482 274.908 227.558 279.947 257.973 280.015C258.108 280.015 258.247 280.015 258.382 280.015C301.889 280.015 335.034 264.673 361.684 252.336L362.076 252.155C369.056 248.944 374.824 246.317 380.227 243.882C406.917 231.904 429.332 222.263 454.521 216.246C486.4 208.63 520.786 203.641 553.966 201.816C583.527 200.191 611.41 201.43 639.214 205.606C669.175 210.106 698.107 217.86 727.659 229.315C768.786 245.254 809.971 268.844 850.074 299.434C852.418 301.226 854.761 303.021 857.102 304.816C875.814 319.149 895.163 333.972 914.814 347.733C969.356 385.934 1017.53 411.402 1066.42 427.887C1084.87 434.117 1104.21 439.65 1123.91 444.335C1148.36 450.089 1172.24 454.396 1194.9 457.133C1235.47 462.042 1275.19 465.446 1315.04 453.373C1336.66 446.82 1354.58 435.987 1369.8 420.254C1397.3 391.832 1412.32 352.451 1425.57 317.702C1431.77 301.434 1437.63 286.067 1444.25 273.154C1446.79 268.185 1449.34 263.046 1451.81 258.074C1459.52 242.531 1467.5 226.462 1477.29 211.31C1488.55 193.739 1501.27 178.877 1515.11 167.14C1530.88 153.763 1547.69 144.858 1565.07 140.676C1575.85 138.084 1586.84 136.821 1598.66 136.821C1598.91 136.821 1599.17 136.821 1599.43 136.823C1636.17 136.994 1673.97 151.83 1702.8 164.736C1733.52 178.486 1763.62 197.629 1789.85 220.097C1819.07 245.056 1845.49 275.199 1868.36 309.692C1888.89 340.646 1906.32 374.657 1920.17 410.788L1919.37 411.031C1898.76 357.272 1859.47 280.604 1789.26 220.641C1763.09 198.223 1733.06 179.126 1702.42 165.408C1673.67 152.537 1635.99 137.743 1599.43 137.575C1587.39 137.513 1576.23 138.771 1565.29 141.403C1533.09 149.152 1502.1 174.112 1478.02 211.683C1468.26 226.8 1460.29 242.852 1452.58 258.378C1450.11 263.351 1447.56 268.493 1445.02 273.464C1438.42 286.345 1432.57 301.693 1426.37 317.943C1413.09 352.754 1398.05 392.211 1370.44 420.743C1355.12 436.581 1337.08 447.487 1315.31 454.082C1296.86 459.67 1276.92 462.39 1254.37 462.39Z" fill="#1F1F1F" fill-opacity="0.51"/>
<path d="M1276.94 465.921C1272.56 465.921 1268.09 465.795 1263.51 465.545C1243.46 464.449 1223.98 461.162 1204.13 457.603C1181.11 453.476 1157.87 447.956 1133.07 440.726C1113.45 434.955 1094.2 428.382 1075.88 421.184C1029.38 402.954 983.214 376.117 926.188 334.171C912.025 323.754 897.868 312.829 884.176 302.262C876.722 296.511 869.017 290.562 861.383 284.754C820.869 254.008 778.38 231.677 735.096 218.375C677.906 200.799 619.129 197.58 555.398 208.535C521.729 214.323 487.43 223.401 456.214 234.785C431.137 243.931 409.292 256.774 386.164 270.371L384.564 271.311C380.952 273.442 377.3 275.603 373.603 277.789C371.473 279.05 369.33 280.319 367.167 281.597C353.681 289.612 339.115 297.973 322.411 304.408C303.017 311.879 283.834 315.554 263.76 315.644C230.341 315.79 196.254 308.886 163.292 302.202C158.588 301.247 153.72 300.262 148.996 299.327C126.85 294.939 109.39 292.415 94.0428 291.377C37.4084 287.549 -16.0393 290.246 -52.5999 298.78L-52.834 297.993C-16.1775 289.437 37.3801 286.729 94.1133 290.565C109.503 291.605 127.008 294.137 149.197 298.532C153.923 299.469 158.791 300.455 163.498 301.41C196.056 308.011 229.712 314.832 262.688 314.832C263.044 314.832 263.399 314.832 263.757 314.829C306.409 314.639 336.771 298.68 366.662 280.921C368.825 279.642 370.969 278.373 373.098 277.112C376.795 274.924 380.444 272.765 384.06 270.632L385.659 269.692C408.826 256.072 430.708 243.206 455.867 234.031C487.139 222.624 521.497 213.531 555.227 207.733C619.117 196.75 678.053 199.979 735.398 217.603C778.789 230.94 821.376 253.322 861.981 284.134C869.615 289.946 877.323 295.892 884.776 301.645C898.463 312.21 912.617 323.133 926.771 333.541C983.73 375.44 1029.83 402.239 1076.25 420.44C1094.55 427.625 1113.76 434.19 1133.36 439.951C1158.12 447.171 1181.33 452.684 1204.31 456.803C1239.2 463.058 1282.61 470.844 1325.85 458.851C1348.08 452.687 1366.11 441.786 1380.98 425.526C1408.21 395.744 1420.83 353.855 1431.97 316.9C1436.81 300.846 1441.39 285.681 1446.72 273.096C1448.8 268.193 1450.88 263.121 1452.9 258.215C1459.65 241.762 1466.64 224.75 1475.62 208.57C1485.74 190.182 1497.52 174.365 1510.63 161.56C1525.49 147.05 1541.71 136.804 1558.86 131.105C1569.86 127.448 1581.14 125.194 1593.34 124.214C1609.67 122.9 1627.06 124.304 1646.49 128.496C1662.93 132.045 1680.56 137.556 1700.38 145.345C1732.34 157.907 1763.45 176.351 1790.34 198.68C1820.34 223.521 1846.96 253.963 1869.47 289.156C1889.74 320.846 1906.25 355.638 1918.54 392.567L1917.66 392.798C1891.7 314.832 1846.26 246.104 1789.71 199.277C1762.9 177.008 1731.88 158.617 1700.01 146.092C1657.3 129.31 1623.44 122.614 1593.42 125.026C1581.31 125.999 1570.11 128.237 1559.18 131.867C1518.38 145.423 1491.67 181.257 1476.44 208.929C1467.49 225.068 1460.51 242.06 1453.76 258.493C1451.74 263.402 1449.66 268.476 1447.58 273.382C1442.26 285.929 1437.69 301.076 1432.86 317.111C1421.7 354.146 1409.04 396.122 1381.69 426.04C1366.7 442.428 1348.53 453.416 1326.12 459.631C1310.93 463.842 1294.74 465.921 1276.94 465.921Z" fill="#1F1F1F" fill-opacity="0.51"/>
<path d="M1296.49 469.967C1266.67 469.967 1238 463.155 1213.47 457.329C1190.39 451.849 1167.16 445 1142.44 436.394C1122.93 429.55 1103.81 421.944 1085.62 413.783C1031.09 389.351 982.484 354.281 938.078 320.021C929.011 313.027 919.851 305.817 910.995 298.845C898.7 289.163 885.983 279.153 873.242 269.506C832.121 238.458 788.259 217.342 742.877 206.745C684.17 193.039 623.297 195.574 556.781 214.496C522.532 224.238 488.268 237.412 457.689 252.594C434.104 264.302 414.148 279.083 393.022 294.731C391.525 295.839 390.024 296.952 388.516 298.065L387.698 298.672C382.562 302.48 377.252 306.416 371.868 310.367C358.969 319.876 344.764 329.711 328.333 337.224C309.261 345.945 290.033 350.295 269.544 350.521C233.582 350.919 196.928 341.932 161.484 333.24C159 332.631 156.526 332.024 154.064 331.425C130.691 325.724 113.64 322.345 98.7837 320.465C43.5706 313.481 -11.9979 311.284 -53.6742 314.441L-53.7588 313.566C-12.0148 310.402 43.6354 312.601 98.9219 319.595C113.821 321.48 130.908 324.867 154.324 330.578C156.786 331.177 159.259 331.784 161.747 332.395C197.123 341.069 233.706 350.034 269.53 349.643C314.024 349.152 345.359 328.763 371.237 309.69C376.62 305.739 381.931 301.803 387.066 297.998L387.884 297.391C389.393 296.275 390.893 295.165 392.391 294.057C413.553 278.381 433.542 263.575 457.206 251.827C487.842 236.618 522.172 223.421 556.479 213.661C588.014 204.692 617.634 199.512 647.029 197.828C679.818 195.95 712.149 198.665 743.125 205.897C788.651 216.527 832.643 237.703 873.879 268.837C886.629 278.489 899.348 288.501 911.647 298.186C920.502 305.157 929.656 312.365 938.721 319.357C983.082 353.579 1031.63 388.611 1086.06 412.999C1104.23 421.146 1123.32 428.742 1142.8 435.576C1167.48 444.17 1190.68 451.009 1213.72 456.482C1249.1 464.885 1293.14 475.344 1336.65 464.339C1359.48 458.563 1377.63 447.595 1392.14 430.808C1419.09 399.624 1429.17 355.159 1438.07 315.925C1441.65 300.161 1445.02 285.272 1449.18 273.046C1450.72 268.523 1452.27 263.851 1453.76 259.331C1459.61 241.652 1465.66 223.368 1473.93 205.837C1482.93 186.617 1493.76 169.84 1506.13 155.979C1520.08 140.338 1535.72 128.751 1552.63 121.539C1563.61 116.856 1574.93 113.609 1587.23 111.611C1603.8 108.921 1622.19 109.011 1641.88 111.879C1659.13 114.391 1677.99 119.127 1697.93 125.958C1731.14 137.332 1763.26 155.074 1790.81 177.266C1821.59 201.992 1848.42 232.727 1870.56 268.621C1890.56 301.049 1906.15 336.622 1916.91 374.352L1915.95 374.567C1893.17 294.621 1848.49 224.782 1790.15 177.917C1762.69 155.799 1730.68 138.115 1697.58 126.778C1654.68 112.085 1618.64 107.405 1587.41 112.476C1575.2 114.459 1563.96 117.683 1553.06 122.331C1512.83 139.491 1488.32 177.396 1474.84 206.176C1466.59 223.662 1460.55 241.92 1454.71 259.576C1453.22 264.096 1451.67 268.772 1450.13 273.299C1445.98 285.485 1442.61 300.354 1439.04 316.098C1434.76 334.973 1429.91 356.364 1422.86 376.42C1414.79 399.399 1405 417.363 1392.92 431.342C1385.94 439.424 1377.91 446.304 1369.06 451.789C1359.55 457.688 1348.73 462.195 1336.92 465.183C1323.4 468.605 1309.83 469.967 1296.49 469.967Z" fill="#1F1F1F" fill-opacity="0.51"/>
<path d="M1314.12 474.406C1304.26 474.406 1293.93 473.554 1283.02 471.852C1261.53 468.5 1240.96 462.418 1222.81 457.056C1199.93 450.294 1176.05 441.884 1151.82 432.059C1132.43 424.152 1113.44 415.513 1095.37 406.378C1043.52 380.188 998.841 345.364 949.967 305.869C945.624 302.359 941.214 298.78 936.95 295.315C920.155 281.68 902.792 267.581 885.101 254.259C843.298 222.847 798.065 202.949 750.658 195.117C690.86 185.237 626.092 193.761 558.163 220.455C523.305 234.153 489.071 251.421 459.164 270.396C436.645 284.683 418.108 301.527 398.482 319.362C396.488 321.174 394.486 322.992 392.472 324.817C387.461 329.364 382.063 334.245 376.572 339.131C365.058 349.412 351.025 361.127 334.259 370.034C315.491 380.007 296.215 385.034 275.334 385.397C237.11 386.066 198.2 374.815 160.571 363.935L159.138 363.521C140.714 358.197 121.224 352.817 103.53 349.55C49.5974 339.595 -6.61127 332.684 -54.7373 330.089L-54.6724 329.151C-6.49565 331.748 49.7637 338.665 103.744 348.63C121.489 351.907 141.013 357.294 159.465 362.626L160.898 363.04C198.445 373.895 237.276 385.119 275.315 384.454C319.244 383.687 349.583 361.897 375.825 338.462C381.316 333.578 386.708 328.697 391.719 324.152C393.733 322.33 395.735 320.51 397.729 318.7C417.389 300.835 435.959 283.961 458.552 269.626C488.516 250.614 522.815 233.313 557.737 219.59C589.607 207.068 620.97 198.439 650.949 193.947C685.202 188.815 718.816 188.895 750.856 194.187C798.443 202.049 843.842 222.017 885.786 253.537C903.491 266.871 920.863 280.975 937.666 294.618C941.93 298.08 946.341 301.66 950.684 305.17C999.509 344.627 1044.14 379.413 1095.9 405.558C1113.94 414.678 1132.9 423.305 1152.26 431.201C1176.46 441.011 1200.3 449.409 1223.15 456.161C1258.96 466.745 1303.52 479.914 1347.46 469.823C1370.9 464.441 1389.17 453.408 1403.32 436.09C1429.97 403.462 1437.68 354.283 1443.88 314.766C1446.3 299.374 1448.57 284.836 1451.67 273.003C1452.64 269.273 1453.62 265.43 1454.57 261.712C1459.51 242.398 1464.62 222.425 1472.27 203.112C1484.1 173.056 1506.56 132.85 1546.42 111.984C1557.43 106.223 1568.79 101.982 1581.14 99.0185C1613.46 91.1542 1651.94 93.6988 1695.51 106.577C1729.96 116.763 1763.09 133.802 1791.3 155.856C1822.86 180.464 1849.9 211.495 1871.67 248.094C1881.66 264.881 1890.48 282.81 1897.9 301.384C1904.99 319.126 1910.84 337.549 1915.29 356.144L1914.25 356.339C1894.66 274.407 1850.75 203.458 1790.6 156.56C1762.5 134.59 1729.5 117.615 1695.17 107.467C1651.81 94.6464 1613.53 92.1094 1581.42 99.9235C1569.15 102.864 1557.88 107.073 1546.96 112.792C1507.37 133.512 1485.04 173.512 1473.27 203.42C1465.63 222.684 1460.53 242.629 1455.6 261.917C1454.65 265.635 1453.67 269.481 1452.69 273.214C1449.62 285.006 1447.34 299.524 1444.93 314.894C1441.81 334.779 1438.28 357.317 1432.23 378.588C1425.29 403.031 1416.11 422.021 1404.17 436.642C1397.36 444.982 1389.39 452.017 1380.49 457.547C1370.9 463.506 1359.88 467.943 1347.73 470.731C1337.06 473.183 1325.93 474.406 1314.12 474.406Z" fill="#1F1F1F" fill-opacity="0.51"/>
<path d="M1330.36 479.095C1318.55 479.095 1306.08 477.733 1292.77 475.003C1271.2 470.584 1250.45 463.248 1232.15 456.775C1209.1 448.628 1185.22 438.853 1161.19 427.72C1141.93 418.757 1123.06 409.086 1105.11 398.97C1055.73 371.156 1013.37 335.306 968.522 297.356C966.303 295.478 964.084 293.598 961.858 291.718C941.003 274.089 919.44 255.859 896.961 239.012C854.43 207.201 807.827 188.519 758.446 183.485C696.419 177.16 629.5 191.603 559.543 226.407C524.55 243.815 489.425 265.758 460.637 288.193C438.899 305.133 421.465 324.193 403.007 344.374C400.821 346.763 398.63 349.16 396.422 351.561C392.011 356.367 386.763 362.065 381.269 367.894C371.094 378.716 357.23 392.47 340.179 402.816C321.71 414.024 302.392 419.738 281.12 420.277C263.635 420.665 244.339 418.266 222.128 412.939C203.058 408.366 184.611 402.39 164.199 395.621C145.566 389.366 125.901 382.906 108.258 378.639C55.9975 365.999 0.795712 354.931 -55.8105 345.735L-55.6075 344.75C1.0326 353.948 56.2654 365.026 108.554 377.671C126.245 381.95 145.938 388.421 164.593 394.681C198.808 406.03 241.389 420.159 281.089 419.274C326.476 418.121 355.645 393.588 380.403 367.247C385.894 361.424 391.14 355.728 395.548 350.924C397.756 348.523 399.947 346.126 402.13 343.74C420.619 323.526 438.084 304.433 459.892 287.439C488.74 264.959 523.933 242.973 558.993 225.532C629.161 190.623 696.312 176.143 758.576 182.49C782.448 184.924 805.898 190.578 828.267 199.292C852.27 208.64 875.626 221.749 897.688 238.247C920.193 255.111 941.77 273.352 962.637 290.993C964.862 292.876 967.084 294.754 969.304 296.632C1014.11 334.549 1056.43 370.363 1105.72 398.125C1123.64 408.226 1142.48 417.885 1161.71 426.832C1185.71 437.948 1209.55 447.71 1232.57 455.845C1268.74 468.631 1313.76 484.542 1358.27 475.314C1382.38 470.315 1400.77 459.215 1414.48 441.38C1440.9 407.316 1445.6 355.279 1449.39 313.468C1450.74 298.514 1452.02 284.39 1454.13 272.968C1454.57 270.612 1455.01 268.243 1455.45 265.861C1459.4 244.349 1463.49 222.103 1470.6 200.392C1480.75 169.166 1501.06 126.823 1540.2 102.436C1551.12 95.6321 1562.51 90.3976 1575.03 86.4316C1592.44 80.8687 1611.83 78.2539 1632.68 78.655C1651.71 79.021 1672.03 81.8965 1693.07 87.1987C1728.76 96.1911 1762.9 112.529 1791.78 134.445C1824.12 158.932 1851.37 190.264 1872.76 227.565C1882.58 244.68 1891.09 262.978 1898.04 281.951C1904.69 300.121 1909.95 318.958 1913.65 337.939L1912.54 338.109C1896.39 255.402 1852.11 181.447 1791.05 135.207C1762.29 113.386 1728.3 97.1162 1692.76 88.1589C1648.93 77.1133 1608.35 76.8425 1575.41 87.3717C1562.98 91.3076 1551.68 96.502 1540.84 103.253C1501.97 127.473 1481.77 169.597 1471.68 200.668C1464.59 222.321 1460.51 244.535 1456.56 266.019C1456.12 268.401 1455.68 270.772 1455.25 273.129C1453.13 284.508 1451.86 298.615 1450.51 313.546C1446.71 355.477 1442 407.664 1415.41 441.947C1408.8 450.543 1400.9 457.738 1391.92 463.326C1382.26 469.338 1371.02 473.7 1358.53 476.292C1349.5 478.157 1340.15 479.095 1330.36 479.095Z" fill="#1F1F1F" fill-opacity="0.51"/>
<path d="M1345.63 483.976C1332.16 483.976 1317.9 482.04 1302.53 478.155C1280.78 472.657 1259.9 464.07 1241.48 456.497C1218.2 446.925 1194.34 435.782 1170.56 423.383C1151.43 413.38 1132.69 402.673 1114.85 391.565C1070.92 364.219 1033.38 330.718 993.629 295.25C987.131 289.452 980.411 283.458 973.744 277.564C950.308 256.856 930.297 239.781 908.815 223.765C865.526 191.533 817.555 174.067 766.231 171.851C701.739 169.066 632.66 189.422 560.915 232.353C525.274 253.683 490.18 279.83 462.099 305.982C440.945 325.685 424.408 347.131 406.9 369.837C404.731 372.65 402.554 375.473 400.363 378.298C396.46 383.339 391.293 389.983 385.96 396.644C363.518 424.742 334.196 453.669 286.9 455.148C285.425 455.191 283.944 455.211 282.466 455.211C245.533 455.211 207.828 442.217 169.254 427.71L166.845 426.797C147.739 419.547 129.69 412.701 112.983 407.717C50.023 388.935 -10.8671 373.081 -56.8809 361.368L-56.5509 360.343C-10.5259 372.061 50.3811 387.917 113.364 406.707C130.116 411.703 148.184 418.559 167.316 425.817L169.722 426.73C209.709 441.769 248.76 455.183 286.857 454.085C333.63 452.621 362.705 423.917 384.982 396.029C390.312 389.374 395.473 382.735 399.376 377.696C401.567 374.868 403.742 372.048 405.91 369.235C423.446 346.495 440.009 325.013 461.231 305.248C489.367 279.04 524.532 252.84 560.244 231.468C593.389 211.633 626.546 196.404 658.791 186.198C695.789 174.488 731.958 169.304 766.287 170.785C817.877 173.011 866.09 190.563 909.582 222.945C931.095 238.987 951.126 256.079 974.584 276.804C981.254 282.698 987.974 288.695 994.475 294.493C1034.19 329.926 1071.69 363.394 1115.54 390.685C1133.35 401.78 1152.07 412.47 1171.16 422.458C1194.91 434.842 1218.73 445.968 1241.98 455.524C1278.47 470.528 1323.88 489.2 1369.07 480.794C1393.78 476.199 1412.28 465.033 1425.64 446.66C1451.73 411.044 1453.3 356.079 1454.56 311.914C1454.97 297.504 1455.36 283.891 1456.6 272.923L1456.63 272.673C1459.42 248.112 1462.3 222.717 1468.92 197.66C1474.64 175.804 1482.62 156.155 1492.63 139.253C1503.91 120.198 1517.81 104.594 1533.97 92.8744C1544.78 85.0327 1556.21 78.8029 1568.92 73.8316C1603.26 60.3217 1645.34 58.2359 1690.62 67.8049C1708.84 71.6556 1726.81 77.4893 1744.04 85.1405C1761.37 92.8368 1777.59 102.22 1792.26 113.025C1825.38 137.395 1852.84 169.023 1873.86 207.031C1892.76 241.193 1905.96 280.163 1912.02 319.725L1910.84 319.868C1897.86 235.194 1854.36 160.101 1791.49 113.845C1762.09 92.18 1727.11 76.6168 1690.34 68.8478C1645.33 59.3339 1603.51 61.3972 1569.41 74.8143C1556.8 79.748 1545.46 85.9276 1534.73 93.7067C1504.57 115.59 1482.22 151.622 1470.09 197.908C1463.49 222.9 1460.61 248.26 1457.82 272.785L1457.8 273.036C1456.56 283.964 1456.17 297.557 1455.75 311.946C1454.49 356.247 1452.91 411.377 1426.65 447.244C1420.21 456.103 1412.36 463.454 1403.33 469.089C1393.59 475.166 1382.15 479.456 1369.32 481.845C1361.67 483.264 1353.8 483.976 1345.63 483.976Z" fill="#1F1F1F" fill-opacity="0.51"/>
<path d="M287.777 490.115C271.262 490.115 253.278 487.255 232.981 481.414C212.814 475.61 192.87 467.598 174.319 459.806C170.96 458.387 167.627 456.971 164.316 455.565C147.835 448.563 132.267 441.949 117.718 436.798C59.7047 416.263 4.40704 397.807 -49.0717 379.963L-57.9326 377.004L-57.487 375.949L-48.6261 378.907C4.85543 396.757 60.1616 415.213 118.186 435.752C132.775 440.916 148.362 447.537 164.863 454.549C168.171 455.956 171.504 457.372 174.86 458.788C212.941 474.783 253.399 490.283 292.639 488.902C340.875 487.117 369.781 453.714 389.573 424.817C394.644 417.426 399.528 410.061 403.217 404.47C405.253 401.389 407.275 398.311 409.292 395.24C426.015 369.782 441.811 345.735 462.584 323.062C490.005 293.139 525.136 262.72 561.51 237.412C595.256 213.932 629.31 195.381 662.728 182.275C701.06 167.241 738.5 159.439 774.009 159.085C827.44 158.379 877.066 174.719 921.489 207.648C946.115 225.923 968.194 245.693 986.548 262.622C996.534 271.835 1006.52 281.279 1016.18 290.412C1050.37 322.744 1085.72 356.174 1125.37 383.252C1143.08 395.35 1161.67 407.073 1180.62 418.091C1204.07 431.696 1227.88 444.186 1251.4 455.211C1288.17 472.444 1333.92 493.891 1379.88 486.28C1405.18 482.091 1423.8 470.859 1436.81 451.945C1462.55 414.714 1460.81 356.738 1459.42 310.154C1459 296.378 1458.61 283.365 1459.08 272.888C1460.14 249.27 1461.73 221.822 1467.25 194.937C1471.9 172.157 1478.93 151.547 1488.12 133.683C1498.53 113.474 1511.86 96.5321 1527.75 83.3255C1538.28 74.5738 1550.08 67.1457 1562.82 61.2443C1581 52.7959 1601.4 47.4837 1623.45 45.4581C1644.11 43.5603 1665.88 44.5581 1688.18 48.4213C1706.98 51.6803 1725.51 57.0402 1743.26 64.3555C1761.12 71.7159 1777.77 80.8863 1792.74 91.611C1810.01 103.96 1825.88 118.543 1839.92 134.956C1853.23 150.507 1865.02 167.85 1874.97 186.501C1893.59 221.396 1905.84 261.171 1910.4 301.52L1909.13 301.633C1899.35 214.985 1856.63 138.757 1791.95 92.4909C1762.32 71.2771 1725.38 56.0199 1687.94 49.5294C1641.63 41.5046 1598.57 45.9018 1563.41 62.2446C1550.77 68.0983 1539.06 75.4687 1528.62 84.1503C1498.68 109.034 1478.45 146.375 1468.5 195.14C1462.99 221.952 1461.4 249.353 1460.35 272.933C1459.88 283.372 1460.27 296.366 1460.68 310.124C1461.37 333.105 1462.15 359.155 1459.54 384.337C1456.5 413.558 1449.42 435.865 1437.9 452.534C1431.63 461.654 1423.84 469.162 1414.75 474.848C1404.94 480.99 1393.28 485.209 1380.12 487.388C1373.48 488.488 1366.84 488.987 1360.24 488.987C1320.74 488.987 1282.46 471.042 1250.81 456.206C1227.26 445.163 1203.41 432.656 1179.93 419.031C1160.95 407.998 1142.34 396.258 1124.6 384.142C1084.87 357.009 1049.48 323.544 1015.26 291.182C1005.6 282.051 995.617 272.61 985.637 263.402C967.308 246.493 945.26 226.75 920.68 208.51C876.497 175.757 827.161 159.512 774.029 160.209C690.589 161.041 612.831 203.13 562.294 238.295C525.993 263.552 490.933 293.907 463.571 323.769C442.86 346.374 427.087 370.383 410.389 395.801C408.372 398.872 406.348 401.951 404.311 405.034C400.62 410.628 395.732 417.998 390.659 425.396C382.351 437.527 369.308 455.186 352.031 468.423C343.641 474.85 334.713 479.902 325.494 483.439C315.214 487.383 304.176 489.599 292.692 490.022C291.065 490.085 289.427 490.115 287.777 490.115Z" fill="#1F1F1F" fill-opacity="0.51"/>
<path d="M293.079 525.017C276.544 525.017 258.597 521.936 238.407 515.648C217.504 509.14 196.838 499.99 179.381 491.895C174.017 489.403 168.665 486.876 163.487 484.432C149.014 477.6 135.342 471.145 122.451 465.875C76.1578 446.948 30.1667 428.469 -14.3129 410.597C-29.0257 404.686 -44.2376 398.574 -58.9814 392.637L-58.4287 391.552C-43.6849 397.488 -28.473 403.6 -13.7602 409.512C30.7194 427.384 76.7162 445.865 123.012 464.795C135.937 470.079 149.626 476.54 164.116 483.381C169.291 485.826 174.643 488.35 180.002 490.842C216.207 507.623 258.202 525.388 298.415 523.716C347.787 521.615 375.518 485.141 394.165 453.601C398.945 445.521 403.567 437.409 407.059 431.244C408.852 428.081 410.635 424.919 412.414 421.765C428.41 393.399 443.518 366.608 463.941 340.879C490.504 307.416 525.607 272.783 562.777 243.359C614.541 202.558 694.546 152.79 781.728 147.393C837.172 143.868 888.203 158.995 933.396 192.357C953.702 207.354 973.781 224.652 998.508 248.45C1011 260.476 1023.4 272.941 1035.4 284.992C1066.6 316.346 1098.85 348.768 1135.2 375.831C1152.81 388.945 1171.27 401.697 1190.08 413.736C1212.85 428.299 1236.65 442.152 1260.83 454.912C1297.96 474.394 1344.18 498.644 1390.69 491.78C1416.2 488.094 1435.47 476.475 1447.98 457.246C1473.36 418.331 1467.92 354.665 1463.94 308.178C1462.82 295.132 1461.77 282.81 1461.56 272.87C1461.1 250.779 1461.14 221.651 1465.59 192.232C1473.26 141.253 1492.09 101.403 1521.54 73.7938C1531.86 64.0668 1543.7 55.6159 1556.72 48.6742C1575.24 38.7868 1596.14 32.1359 1618.84 28.9094C1640.23 25.871 1662.73 25.9186 1685.74 29.0523C1705.15 31.7548 1724.23 36.6534 1742.47 43.6076C1760.88 50.6321 1777.96 59.5819 1793.23 70.2088C1810.88 82.4879 1827 97.1209 1841.15 113.704C1854.56 129.42 1866.31 147.009 1876.08 165.987C1894.41 201.615 1905.71 242.193 1908.77 283.332L1907.44 283.41C1900.85 194.784 1858.92 117.417 1792.4 71.149C1762.24 50.1583 1724.29 35.6255 1685.54 30.2306C1637.76 23.7251 1593.45 30.4562 1557.41 49.697C1544.5 56.5811 1532.76 64.9643 1522.52 74.6136C1493.26 102.04 1474.55 141.664 1466.92 192.392C1462.48 221.731 1462.44 250.802 1462.9 272.85C1463.11 282.755 1464.16 295.062 1465.28 308.091C1467.33 332.12 1469.66 359.358 1468.33 385.949C1466.78 416.912 1460.5 440.43 1449.14 457.845C1443.03 467.239 1435.31 474.91 1426.17 480.646C1416.27 486.866 1404.41 491.007 1390.92 492.958C1369.99 496.044 1347.47 493.271 1322.06 484.479C1299.98 476.836 1278.82 465.735 1260.15 455.943C1235.94 443.165 1212.1 429.291 1189.3 414.708C1170.47 402.653 1151.98 389.882 1134.34 376.751C1097.92 349.633 1065.63 317.176 1034.39 285.789C1022.41 273.74 1010.01 261.283 997.527 249.268C972.842 225.512 952.799 208.246 932.542 193.285C887.617 160.113 836.91 145.076 781.818 148.579C695.011 153.956 615.271 203.571 563.662 244.249C526.566 273.612 491.536 308.173 465.03 341.566C444.663 367.222 429.578 393.976 413.607 422.299C411.827 425.456 410.045 428.617 408.251 431.781C404.757 437.95 400.132 446.07 395.346 454.158C376.536 485.978 348.526 522.778 298.474 524.906C296.694 524.979 294.892 525.017 293.079 525.017Z" fill="#1F1F1F" fill-opacity="0.51"/>
<path d="M298.487 559.921C253.308 559.921 205.904 535.255 163.881 513.387C150.967 506.669 138.77 500.321 127.179 494.954L-60.0312 408.271L-59.3798 407.16L127.831 493.843C139.453 499.223 151.664 505.578 164.595 512.307C208.242 535.02 257.716 560.764 304.19 558.532C354.651 556.113 381.234 516.569 398.755 482.391C404.486 471.213 410.019 459.839 415.372 448.838C430.011 418.755 445.147 387.646 465.291 358.694C481.287 335.705 501.158 311.596 522.755 288.975C546.447 264.159 571.814 241.391 598.146 221.305C627.18 199.162 656.701 180.843 685.887 166.862C718.169 151.399 749.972 141.304 780.419 136.854C841.41 127.942 896.883 141.467 945.291 177.058C985.521 206.632 1019.71 243.204 1052.78 278.572C1081.56 309.357 1111.32 341.188 1145.02 368.398C1183.95 399.825 1226.08 428.828 1270.25 454.597C1307.46 476.31 1353.77 503.334 1401.5 497.26C1441.81 492.131 1465.12 468.154 1472.75 423.957C1479.25 386.363 1473.07 341.767 1468.11 305.935C1466.42 293.724 1464.82 282.189 1464.04 272.836C1459.71 221.273 1462.47 178.707 1472.47 142.71C1478.7 120.25 1487.91 100.23 1499.82 83.2053C1513.13 64.1876 1530.22 48.3336 1550.61 36.0847C1568.25 25.4878 1588.13 17.7915 1609.7 13.2088C1630.23 8.84672 1651.85 7.38518 1673.96 8.86428C1717.43 11.7723 1759.96 25.9516 1793.7 48.7874C1811.73 60.9937 1828.11 75.6794 1842.37 92.4333C1855.88 108.312 1867.59 126.149 1877.17 145.453C1895.21 181.816 1905.57 223.198 1907.13 265.122L1905.72 265.164C1902.4 175.887 1860.2 95.3715 1792.84 49.7877C1721.31 1.37853 1619.77 -3.94872 1551.39 37.1251C1483.67 77.8128 1455.55 154.884 1465.44 272.743C1466.22 282.066 1467.82 293.586 1469.51 305.782C1474.48 341.692 1480.67 386.383 1474.14 424.147C1470.59 444.717 1463.45 461.248 1452.92 473.284C1447 480.05 1439.86 485.58 1431.7 489.717C1423.02 494.119 1412.93 497.075 1401.7 498.504C1397.11 499.088 1392.44 499.381 1387.7 499.381C1370.4 499.381 1351.98 495.493 1331.79 487.616C1309.05 478.741 1287.1 465.936 1269.47 455.647C1225.24 429.841 1183.05 400.8 1144.07 369.328C1110.29 342.06 1080.5 310.192 1051.69 279.374C1018.66 244.051 984.514 207.525 944.386 178.026C896.302 142.678 841.21 129.24 780.639 138.092C658.114 155.997 531.901 265.34 466.481 359.355C446.391 388.228 431.274 419.294 416.655 449.337C411.299 460.343 405.763 471.724 400.027 482.913C388.394 505.603 376.905 521.851 363.87 534.04C355.734 541.646 346.907 547.642 337.634 551.861C327.323 556.552 316.094 559.219 304.254 559.788C302.342 559.876 300.416 559.921 298.487 559.921Z" fill="#1F1F1F" fill-opacity="0.51"/>
</g>
</svg>
