<svg width="138" height="26" viewBox="0 0 138 26" fill="none" xmlns="http://www.w3.org/2000/svg">
<g id="Group">
<g id="Group_2">
<path id="Vector" d="M3.65907 20.3181C2.63036 20.3203 1.68003 19.7689 1.17155 18.8746C0.670393 17.9859 0.700445 16.8932 1.24969 16.0333L6.37233 7.98901C6.90611 7.10883 7.87218 6.58392 8.90109 6.61502C9.92926 6.63966 10.8645 7.21613 11.3485 8.12359C11.826 9.02657 11.7663 10.113 11.1943 10.9606L6.07496 19.0049C5.54733 19.8271 4.63599 20.3224 3.65907 20.3181Z" fill="#90A2B2"/>
<path id="Vector_2" d="M12.4469 20.3177C11.4137 20.3177 10.4629 19.7653 9.96368 18.8775C9.46364 17.9912 9.4937 16.9012 10.0418 16.0438L15.1547 8.01796C15.6808 7.12515 16.6497 6.58792 17.6856 6.61466C18.7275 6.63745 19.6717 7.22026 20.1493 8.13192C20.6236 9.04358 20.5541 10.1365 19.9648 10.9819L14.853 19.0078C14.327 19.8264 13.4199 20.3203 12.4469 20.3177Z" fill="#90A2B2"/>
<path id="Vector_3" d="M21.035 20.386C22.4915 20.386 23.6723 19.23 23.6723 17.804C23.6723 16.3781 22.4915 15.2221 21.035 15.2221C19.5785 15.2221 18.3977 16.3781 18.3977 17.804C18.3977 19.23 19.5785 20.386 21.035 20.386Z" fill="#90A2B2"/>
</g>
<path id="Vector_4" d="M135.608 15.3707C136.405 15.3707 136.881 15.9372 136.881 16.8651V20.0451H137.963V16.7924C137.963 15.2144 137.22 14.2995 135.822 14.2995C135.275 14.2995 134.406 14.4492 133.889 15.4553C133.644 14.8507 133.086 14.4296 132.438 14.3592C132.237 14.3225 132.033 14.3104 131.83 14.3233C131.385 14.3592 130.593 14.6359 130.296 15.2632V14.4199H129.213V20.0451H130.296V17.0095C130.296 15.8287 131.069 15.3707 131.843 15.3707C132.568 15.3707 133.044 15.9253 133.044 16.8532V20.0451H134.121V17.0095C134.121 16.0696 134.685 15.3598 135.608 15.3707ZM125.238 19.1052C125.733 19.1161 126.21 18.9185 126.556 18.5604C126.904 18.2022 127.088 17.7149 127.07 17.2146C127.07 16.0815 126.236 15.3707 125.238 15.3707C124.238 15.3707 123.406 16.0815 123.406 17.2146C123.386 17.7138 123.571 18.2001 123.916 18.5571C124.261 18.9153 124.736 19.1139 125.229 19.1052H125.238ZM125.238 20.1601C123.655 20.1601 122.335 18.9912 122.335 17.2081C122.335 15.4249 123.655 14.293 125.238 14.293C126.82 14.293 128.152 15.4249 128.152 17.2081C128.152 18.9912 126.813 20.1655 125.23 20.1655L125.238 20.1601ZM116.762 17.2081L116.751 17.2146C116.751 15.4314 118.106 14.2995 119.699 14.293C120.509 14.2773 121.287 14.6054 121.841 15.1959L121.02 15.8949C120.668 15.5492 120.193 15.3585 119.699 15.3652C118.701 15.3652 117.833 16.0761 117.833 17.2081C117.833 17.9732 118.288 18.6624 118.985 18.9554C119.683 19.2485 120.486 19.0857 121.02 18.5452L121.853 19.2441C121.297 19.8407 120.515 20.1736 119.699 20.1601C118.118 20.1601 116.762 18.9912 116.762 17.2081ZM113.296 18.9652C113.294 18.7666 113.371 18.5752 113.509 18.4331C113.648 18.291 113.838 18.2099 114.036 18.2077C114.235 18.2099 114.425 18.291 114.563 18.4331C114.702 18.5752 114.779 18.7666 114.777 18.9652C114.756 19.3605 114.432 19.672 114.036 19.6761C113.641 19.672 113.316 19.3605 113.296 18.9652Z" fill="#90A2B2"/>
<path id="Vector_5" d="M116.257 7.26946H112.403L109.702 14.2339L107.015 7.26946H103.161L107.846 18.2745L104.932 25.5503H108.758L116.257 7.26946ZM92.8189 13.3906C92.8189 15.1488 94.3557 16.3057 95.8654 16.3057C97.349 16.3057 98.8066 15.2291 98.8066 13.3895C98.8066 11.5499 97.349 10.4722 95.8654 10.4722C94.3557 10.4722 92.8189 11.6302 92.8189 13.3895V13.3906ZM98.8066 19.5356V18.1431C98.0251 19.3261 96.2018 19.7733 95.2663 19.7733C92.1688 19.7733 89.0703 17.3313 89.0703 13.3895C89.0703 9.44875 92.1678 7.00681 95.2663 7.00681C96.0466 7.00681 97.8699 7.26729 98.8066 8.63477V7.2738H102.399V19.5378L98.8066 19.5367V19.5356ZM88.0479 19.5356H84.4556V18.0118C83.8554 19.1405 82.4 19.7982 80.8893 19.7982C77.7647 19.7982 75.0047 17.3031 75.0047 13.4394C75.0047 9.50302 77.7647 7.00464 80.8893 7.00464C82.3978 7.00464 83.8576 7.63412 84.4556 8.76392V0.588318H88.0479V19.5356ZM84.3774 13.3624C84.3774 11.5239 83.0501 10.4461 81.5665 10.4461C80.0297 10.4461 78.7534 11.602 78.7534 13.3624C78.7534 15.1792 80.0297 16.3296 81.5654 16.3296C83.0772 16.3318 84.3774 15.1227 84.3774 13.3624ZM66.1226 13.0455C66.1226 11.1809 67.0863 10.5503 68.3616 10.5503C69.5847 10.5503 70.4703 11.3643 70.4703 12.9923V19.5334H74.0887V12.2054C74.0887 8.71291 72.3696 7.00464 69.6357 7.00464C68.2042 7.00464 66.7727 7.81862 66.1215 9.0537V7.26946H62.5053V19.5334H66.1226V13.0455ZM55.1578 19.744C51.7217 19.744 48.8554 17.2228 48.8554 13.3613C48.8554 9.49759 51.7184 7.00139 55.1578 7.00139C58.5971 7.00139 61.4851 9.49759 61.4851 13.3613C61.4851 17.225 58.5938 19.745 55.1578 19.745V19.744ZM55.1578 16.1733C56.6663 16.1733 57.9177 15.0685 57.9177 13.3624C57.9177 11.7073 56.6674 10.5775 55.1578 10.5775C54.4231 10.566 53.7161 10.8567 53.202 11.3817C52.6851 11.9093 52.4044 12.624 52.4239 13.3624C52.4249 15.0706 53.6741 16.1733 55.1578 16.1733ZM42.3685 10.5514C43.4354 10.5514 44.3731 11.3925 44.3731 12.9934V19.5356H47.9654V12.5701C47.9654 8.86703 46.1649 7.00247 43.2791 7.00247C42.4217 7.00247 40.8068 7.26295 39.6346 9.18177C38.9574 7.76327 37.6561 7.02744 35.7329 7.02744C34.3692 7.0205 33.1274 7.81159 32.5573 9.05045V7.27054H28.9368V19.5345H32.5541V13.0455C32.5541 11.1809 33.5699 10.5503 34.6628 10.5503C35.7047 10.5503 36.6403 11.3643 36.6674 12.9141V19.5345H40.2858V13.0455C40.2858 11.2623 41.2235 10.5525 42.3685 10.5525V10.5514Z" fill="#90A2B2"/>
</g>
</svg>
