<svg width="138" height="22" viewBox="0 0 138 22" fill="none" xmlns="http://www.w3.org/2000/svg">
<g id="Group">
<path id="Vector" d="M130.325 9.79242V12.6519H132.334V15.489C132.34 15.7063 132.33 15.9382 132.3 16.1378L132.283 16.2347C132.28 16.2563 132.276 16.2785 132.271 16.3012L132.255 16.371C132.252 16.3829 132.248 16.3949 132.245 16.4069L132.222 16.4805C132.041 17.0029 131.497 17.6649 130.274 17.6649C128.972 17.6649 128.449 16.905 128.306 16.371L128.289 16.3012L128.277 16.2347C128.241 16.0159 128.226 15.7425 128.226 15.489V6.52811C128.226 6.24637 128.242 5.94095 128.293 5.69214L128.328 5.54094C128.33 5.53047 128.333 5.51982 128.336 5.50903L128.355 5.44244C128.358 5.43105 128.362 5.41954 128.366 5.4079L128.391 5.33672C128.577 4.84163 129.068 4.18223 130.264 4.18223C131.186 4.18223 131.683 4.55825 131.949 4.94689L131.996 5.01982C132.011 5.04412 132.025 5.06838 132.038 5.09251L132.075 5.16443L132.108 5.23505L132.136 5.30384L132.16 5.37026L132.181 5.43379L132.198 5.49388L132.212 5.55001L132.223 5.60164C132.229 5.62732 132.233 5.65458 132.238 5.68293L132.249 5.7707C132.251 5.7857 132.253 5.80085 132.254 5.81608L132.266 5.95371L132.274 6.08571L132.281 6.26569L132.283 6.35793V7.44603H137.221L137.222 6.76868L137.225 6.52644L137.224 6.33866L137.22 6.12001L137.216 6.0023L137.207 5.81883L137.194 5.63088L137.183 5.50522C136.849 2.19507 134.361 0.921515 131.334 0.699906L131.131 0.686679L130.927 0.676505C130.825 0.67217 130.722 0.668955 130.619 0.666824L130.411 0.663997C130.377 0.663646 130.342 0.663646 130.307 0.663646L130.099 0.665066C130.064 0.665541 130.03 0.666136 129.995 0.666853L129.789 0.672619L129.584 0.681363L129.381 0.693146L129.18 0.708033C129.113 0.71352 129.046 0.719534 128.98 0.726087L128.782 0.747371C128.749 0.751191 128.716 0.755148 128.684 0.759244L128.489 0.785491C128.037 0.850663 127.601 0.943505 127.189 1.06763L127.014 1.12276C125.1 1.75043 123.71 3.08492 123.425 5.50522L123.395 5.77388L123.375 5.9819L123.356 6.19998L123.34 6.41695C123.331 6.55874 123.326 6.69232 123.326 6.80278L123.326 15.1516L123.328 15.2552L123.332 15.4127L123.337 15.5231L123.344 15.6411L123.352 15.7693L123.364 15.9106L123.386 16.153L123.404 16.3389C123.681 19.4149 126.013 20.7832 128.865 21.1061L129.065 21.1269C129.4 21.1589 129.741 21.1769 130.086 21.182L130.293 21.1835L130.502 21.182C130.849 21.1769 131.192 21.1589 131.527 21.1269L131.728 21.1061C134.59 20.7832 136.906 19.4149 137.188 16.3389L137.211 16.0676L137.228 15.8381L137.243 15.581L137.252 15.3595L137.26 15.0459V9.79242H130.325ZM96.2781 1.19108H91.3195V15.6957C91.3273 15.9484 91.3195 16.2324 91.2759 16.4406L91.2613 16.5037L91.2432 16.5709C91.2366 16.5939 91.2293 16.6175 91.2214 16.6416L91.1954 16.7152C91.0084 17.2138 90.5318 17.8646 89.3918 17.8646C88.3227 17.8646 87.8345 17.2773 87.6301 16.791L87.6001 16.7152C87.5955 16.7027 87.5911 16.6903 87.5868 16.6781L87.5634 16.6059L87.5441 16.5368C87.5412 16.5256 87.5385 16.5146 87.5359 16.5037L87.5222 16.4406C87.4726 16.2324 87.4663 15.9484 87.4726 15.6957V1.19108H82.5155V15.2455L82.5146 15.3585L82.5163 15.5561L82.5232 15.8468L82.5368 16.2001L82.5463 16.378L82.5528 16.4724L82.559 16.5418C82.8019 19.1421 84.3274 20.4956 86.4818 21.0619L86.6653 21.1079C87.0662 21.2035 87.4875 21.2732 87.9252 21.3198L88.1284 21.3396L88.3339 21.3563L88.5415 21.3697C88.6458 21.3757 88.7509 21.3805 88.8568 21.3841L89.0694 21.39L89.2839 21.3929C89.3198 21.3932 89.3557 21.3932 89.3918 21.3932L89.6076 21.3918C89.6434 21.3913 89.6791 21.3907 89.7148 21.39L89.9278 21.3841C90.0338 21.3805 90.1391 21.3757 90.2436 21.3697L90.4515 21.3563L90.6573 21.3396L90.8608 21.3198C93.761 21.0118 95.9364 19.6914 96.2361 16.5418L96.2401 16.5105L96.2482 16.428L96.2602 16.2634L96.2709 16.0643L96.2768 15.9203L96.2828 15.6995L96.2845 15.5561L96.284 15.4212L96.2808 15.2997C96.28 15.2809 96.2791 15.2628 96.2781 15.2455V1.19108ZM50.7173 1.19108L48.2438 16.5171L45.7718 1.19108H37.7732L37.3489 20.7976H42.2492L42.3819 2.64725L45.7534 20.7976H50.7251L54.0997 2.64725L54.2329 20.7976H59.1455L58.7069 1.19108H50.7173ZM21.1027 1.19108L17.4708 20.7976H22.7671L25.5039 2.64725L28.1751 20.7976H33.4346L29.8178 1.19108H21.1027ZM113.608 16.9766L108.99 1.19108H101.715V20.5931H106.528L106.248 4.30257L111.207 20.5931H118.185V1.19108H113.34L113.608 16.9766ZM69.0872 6.29373C69.0001 5.90652 69.0252 5.49515 69.0703 5.28015C69.0831 5.22309 69.0981 5.16556 69.1159 5.10812L69.1447 5.02209C69.3403 4.47855 69.7979 3.96798 70.8472 3.96798C71.9796 3.96798 72.6435 4.67391 72.6435 5.73331V6.93219H77.4773V5.56564C77.4773 2.48175 75.4589 1.29544 73.3023 0.879657L73.1248 0.847194L72.9468 0.818063L72.7688 0.792123L72.5908 0.769237L72.4131 0.749264L72.2359 0.732067C72.1769 0.726781 72.1181 0.721935 72.0595 0.717505L71.8841 0.705439L71.7099 0.695731L71.5372 0.688242L71.3662 0.682832L71.1972 0.679363L70.9477 0.677493L70.8377 0.677881L70.619 0.681001C70.5827 0.681784 70.5465 0.682699 70.5103 0.683747L70.2945 0.691642C70.2229 0.694813 70.1516 0.698525 70.0807 0.702787L69.869 0.717231C66.92 0.942807 64.6188 2.15411 64.1585 4.99465C64.0223 5.8597 63.9886 6.62756 64.2053 7.60741C64.5465 9.21755 65.8879 10.3633 67.4276 11.3244L67.6659 11.4708C67.7058 11.495 67.7459 11.519 67.786 11.543L68.0279 11.6855L68.2712 11.8256L68.5154 11.9636L68.8818 12.1671L69.8447 12.6948L70.0787 12.8246L70.3086 12.9539L70.5339 13.0829L70.7539 13.2121C71.8033 13.8366 72.6441 14.47 72.9466 15.2271C73.1141 15.677 73.0775 16.2441 72.9965 16.6058L72.9826 16.6642C72.9626 16.7512 72.9375 16.8382 72.9059 16.9237L72.872 17.0087C72.6493 17.529 72.1625 17.9726 71.0929 17.9726C69.8729 17.9726 69.1385 17.2712 69.1385 16.214L69.137 14.3324H63.9342V15.8281C63.9342 19.3386 66.1614 20.8636 68.9509 21.3163L69.1585 21.3479C69.2976 21.3677 69.438 21.3849 69.5794 21.3997L69.7923 21.42C70.0415 21.4416 70.2938 21.4558 70.5479 21.4634L70.7661 21.4682C70.8026 21.4687 70.8391 21.4691 70.8756 21.4694L70.9852 21.4697C71.0581 21.4697 71.1308 21.4692 71.2032 21.4682L71.4196 21.4635C71.4555 21.4624 71.4913 21.4612 71.5271 21.4599L71.7408 21.4503C71.8117 21.4466 71.8822 21.4423 71.9525 21.4375L72.1621 21.4213C72.3012 21.4094 72.4389 21.3953 72.575 21.3789L72.778 21.3525L72.9786 21.3225C73.045 21.312 73.1111 21.3008 73.1766 21.2891L73.3721 21.252C75.7334 20.7789 77.4903 19.496 77.8431 17.0295C77.8917 16.6616 77.9215 16.3218 77.9376 16.0113L77.9464 15.8086C77.9475 15.7755 77.9485 15.7428 77.9493 15.7105L77.9526 15.5209V15.3401L77.9495 15.1681L77.9439 15.0052L77.936 14.8512C77.9345 14.8263 77.933 14.8017 77.9313 14.7776L77.9206 14.6373L77.9084 14.5061L77.895 14.3842L77.8735 14.2189L77.8512 14.0747L77.8221 13.9158L77.8086 13.8508C77.4681 12.1434 75.9734 10.9374 74.3128 9.94476L74.0745 9.80436L73.8346 9.66669L73.5938 9.53154L73.2321 9.33315L72.7524 9.07574L71.9344 8.64062L71.5977 8.45849C71.5609 8.43836 71.5243 8.41826 71.488 8.39819L71.2726 8.27806L71.0633 8.15841C70.0329 7.56102 69.2542 6.97446 69.0872 6.29373ZM5.32347 6.24564C5.23449 5.87508 5.2484 5.48528 5.29405 5.25877L5.31294 5.17396L5.33439 5.09004C5.49769 4.5013 5.94415 3.89447 7.09812 3.89447C8.24488 3.89447 8.92009 4.6072 8.92009 5.67516V6.88863H13.8105V5.51126C13.8105 2.56838 11.9797 1.33246 9.93398 0.848998L9.75559 0.808831C9.60654 0.776901 9.45661 0.748776 9.30641 0.724094L9.12609 0.696105L8.94574 0.671282L8.7656 0.649484L8.58592 0.630573C8.52613 0.624735 8.46645 0.619355 8.40693 0.614409L8.22886 0.600853L8.05194 0.589765L7.87642 0.581006L7.70254 0.574436L7.53052 0.569916L7.27651 0.566467H7.19303C7.11971 0.566467 7.04668 0.56698 6.97394 0.568013L6.75664 0.572682C6.61239 0.576848 6.46939 0.583129 6.32778 0.591593L6.11641 0.605934C6.08136 0.6086 6.0464 0.611404 6.01153 0.614347L5.80345 0.633692C5.73446 0.640703 5.66587 0.648281 5.59767 0.656434L5.3943 0.682624C5.22584 0.7059 5.06 0.732819 4.89699 0.763511L4.70277 0.80216L4.51138 0.844482L4.32291 0.890525C4.26058 0.906499 4.19876 0.923101 4.13746 0.94034L3.95512 0.993976C2.05719 1.57739 0.689447 2.80098 0.344182 4.92416C0.201687 5.80305 0.177266 6.5762 0.383205 7.56687C0.745769 9.27884 2.22449 10.4711 3.87882 11.4728L4.12206 11.6181C4.16277 11.6421 4.20356 11.666 4.24442 11.6898L4.49019 11.8314L4.86028 12.0399L5.35296 12.3117L6.07966 12.71L6.43268 12.9065L6.77587 13.1023L6.99811 13.2328C7.03466 13.2546 7.07097 13.2764 7.10701 13.2982L7.31999 13.4292C8.22823 13.9981 8.93957 14.584 9.21415 15.2709C9.39398 15.7177 9.35193 16.2846 9.26695 16.6581L9.25241 16.7186C9.23143 16.8045 9.20566 16.8906 9.17379 16.9753L9.13985 17.0595C8.91139 17.589 8.42109 18.0431 7.33754 18.0431C6.11273 18.0431 5.38011 17.3296 5.38011 16.2578L5.37332 14.3712H0.112061V15.8704C0.112061 20.0787 3.28495 21.4619 6.7988 21.5658L7.01884 21.5706L7.2396 21.5722L7.4579 21.5707C7.56663 21.5691 7.67472 21.5664 7.78212 21.5625L7.99596 21.553C8.10241 21.5475 8.20812 21.5408 8.31305 21.5328L8.52185 21.5151L8.72847 21.4942C8.79697 21.4866 8.86508 21.4785 8.93281 21.4698L9.13477 21.442C9.20169 21.4321 9.26819 21.4217 9.33427 21.4107L9.5312 21.3758C11.9764 20.9179 13.7988 19.6208 14.1657 17.0839C14.2163 16.7214 14.2479 16.3861 14.2655 16.0789L14.2753 15.8782L14.2813 15.6859C14.2826 15.6231 14.2835 15.5618 14.2837 15.502L14.2831 15.3266L14.2796 15.1597L14.2737 15.0014L14.2656 14.8518L14.2557 14.711L14.2444 14.5789L14.2252 14.3974L14.2046 14.236L14.1768 14.0524L14.1451 13.8744C13.8058 12.1873 12.3556 10.987 10.7241 9.99977L10.4841 9.85679C10.444 9.8332 10.4037 9.80973 10.3634 9.78638L10.1208 9.6476L9.87718 9.51139L9.63326 9.37755L9.38967 9.2459L8.31485 8.67537L7.97114 8.49117L7.74794 8.36946L7.53023 8.24841L7.31868 8.12784C7.28397 8.10777 7.24954 8.08771 7.21541 8.06766L7.01429 7.94743C6.12626 7.4065 5.47417 6.8653 5.32347 6.24564Z" fill="#90A2B2"/>
</g>
</svg>
