<svg width="138" height="18" viewBox="0 0 138 18" fill="none" xmlns="http://www.w3.org/2000/svg">
<g id="Group">
<path id="Vector" d="M59.9128 11.7542H68.9753L64.1834 4.04474L55.3885 17.9838H51.3859L62.0833 1.24002C62.5484 0.563504 63.3236 0.154785 64.1834 0.154785C65.0148 0.154785 65.79 0.549418 66.241 1.21184L76.9807 17.9838H72.9781L71.0894 14.869H61.9141L59.9128 11.7542ZM101.49 14.869V0.323914H98.0937V16.2925C98.0937 16.7294 98.2628 17.1522 98.587 17.4764C98.9111 17.8006 99.348 17.9838 99.8272 17.9838H115.317L117.318 14.869H101.49ZM45.2972 12.2616C48.5953 12.2616 51.2732 9.59782 51.2732 6.2998C51.2732 3.00179 48.5953 0.323914 45.2972 0.323914H30.4378V17.9838H33.8331V3.43871H45.0717C46.6503 3.43871 47.9188 4.72126 47.9188 6.2998C47.9188 7.87834 46.6503 9.1609 45.0717 9.1609L35.4962 9.1468L45.6354 17.9838H50.5685L43.7469 12.2616H45.2972ZM9.53636 17.9838C4.66116 17.9838 0.704926 14.0375 0.704926 9.1609C0.704926 4.28435 4.66116 0.323914 9.53636 0.323914H19.801C24.6776 0.323914 28.631 4.28435 28.631 9.1609C28.631 14.0375 24.6776 17.9838 19.801 17.9838H9.53636ZM19.5727 14.869C22.7312 14.869 25.2893 12.318 25.2893 9.1609C25.2893 6.00383 22.7312 3.43871 19.5727 3.43871H9.76322C6.60615 3.43871 4.04661 6.00383 4.04661 9.1609C4.04661 12.318 6.60615 14.869 9.76322 14.869H19.5727ZM84.07 17.9838C79.1935 17.9838 75.2331 14.0375 75.2331 9.1609C75.2331 4.28435 79.1935 0.323914 84.07 0.323914H96.2614L94.2742 3.43871H84.2955C81.1385 3.43871 78.5734 6.00383 78.5734 9.1609C78.5734 12.318 81.1385 14.869 84.2955 14.869H96.5433L94.5419 17.9838H84.07ZM125.605 14.869C122.998 14.869 120.785 13.1213 120.109 10.7112H134.626L136.627 7.59645H120.109C120.785 5.20046 122.998 3.43871 125.605 3.43871H135.57L137.585 0.323914H125.38C120.503 0.323914 116.543 4.28435 116.543 9.1609C116.543 14.0375 120.503 17.9838 125.38 17.9838H135.852L137.853 14.869H125.605Z" fill="#90A2B2"/>
</g>
</svg>
