<svg width="63" height="65" viewBox="0 0 63 65" fill="none" xmlns="http://www.w3.org/2000/svg">
<g id="Group 39795">
<path id="Rectangle 4506" d="M34.168 8.84617C34.168 5.87276 37.784 4.4073 39.8541 6.54178L60.2467 27.5691C61.5029 28.8643 62.2054 30.5978 62.2054 32.4022V56.8328C62.2054 59.8062 58.5894 61.2716 56.5193 59.1371L36.1267 38.1099C34.8705 36.8146 34.168 35.0811 34.168 33.2767V8.84617Z" fill="#0C7FDA"/>
<path id="Rectangle 4505" d="M16.793 8.16745C16.793 5.19405 20.4091 3.72858 22.4792 5.86307L42.5903 26.6001C44.027 28.0815 44.8305 30.0641 44.8305 32.1278V56.1541C44.8305 59.1275 41.2144 60.5929 39.1444 58.4584L18.7518 37.4312C17.4956 36.1359 16.793 34.4024 16.793 32.598V8.16745Z" fill="#2196F3"/>
<path id="Rectangle 4504" d="M0 8.84617C0 5.87276 3.61605 4.4073 5.68611 6.54178L26.0787 27.5691C27.3349 28.8643 28.0375 30.5978 28.0375 32.4022V56.8328C28.0375 59.8062 24.4214 61.2716 22.3513 59.1371L1.95872 38.1099C0.702527 36.8146 0 35.0811 0 33.2767V8.84617Z" fill="#6EBBF7"/>
</g>
</svg>
