<svg width="138" height="29" viewBox="0 0 138 29" fill="none" xmlns="http://www.w3.org/2000/svg">
<path d="M25.2652 15.0698L25.2834 15.0712L27.179 15.2694C27.3121 15.2837 27.4343 15.3487 27.5207 15.4502L27.5348 15.4675L27.5168 15.4764C27.6054 15.5883 27.6444 15.7314 27.6248 15.8727C27.2106 19.1655 25.65 22.2071 23.2167 24.4638C20.6919 26.8055 17.3756 28.1066 13.9321 28.1066C12.2596 28.1092 10.6013 27.8013 9.04162 27.1986L8.95664 27.1655C8.82898 27.1183 8.72642 27.0212 8.67211 26.8971L8.66395 26.8773C8.61077 26.7538 8.60782 26.6147 8.65508 26.4895L9.40334 24.6639C9.50473 24.4059 9.79207 24.2759 10.0516 24.3674L10.0688 24.3738C13.8934 25.8506 18.2252 25.0188 21.231 22.2305C23.1442 20.4726 24.3779 18.0976 24.716 15.5215C24.7519 15.2555 24.9827 15.0619 25.2471 15.069L25.2652 15.0698ZM70.0357 7.32211C71.6521 7.32211 72.9162 7.81527 73.7235 8.76239L73.7505 8.79449V7.993C73.7614 7.76929 73.9346 7.58848 74.1557 7.56665L74.1737 7.56523H76.3305C76.5524 7.58057 76.729 7.75523 76.7481 7.97508L76.7493 7.993V19.9657C76.8191 21.6539 76.3002 23.314 75.2814 24.662C74.1197 26.0758 72.3547 26.7918 70.0357 26.7918C66.8119 26.7918 64.2678 24.7521 63.849 21.8387C63.8283 21.6285 63.9564 21.4329 64.1555 21.3669L64.1733 21.3615L66.2805 20.8662C66.2915 20.8637 66.3025 20.8616 66.3137 20.86C66.545 20.8261 66.7599 20.9861 66.7938 21.2174C66.9863 22.8516 68.3908 24.0707 70.0357 24.0316C72.5276 24.0316 73.7 22.765 73.7232 20.1183L73.7235 20.0377V18.9886C72.7894 20.0362 71.4386 20.6151 70.0357 20.569C66.4516 20.569 63.8536 17.7864 63.8536 13.959C63.8208 12.2371 64.4271 10.5639 65.5556 9.26273C66.7017 8.0035 68.3332 7.29685 70.0357 7.32211ZM5.12535 21.8837L5.15207 21.8835L5.1789 21.8838C6.03923 21.8936 6.73193 22.5893 6.74128 23.4465L6.74135 23.4733C6.74135 23.4822 6.74125 23.4911 6.74109 23.5C6.72611 24.3777 6.00255 25.0772 5.12484 25.0623C4.24713 25.0473 3.54774 24.3237 3.56257 23.446C3.57724 22.5862 4.27187 21.8975 5.12535 21.8837ZM107.37 7.15552L107.481 7.15633C111.334 7.20954 113.721 9.89149 113.721 14.1842C113.721 14.4113 113.709 14.6383 113.685 14.8641C113.665 15.0718 113.495 15.2319 113.288 15.2418L113.271 15.2423H104.112C104.168 17.1658 105.759 18.6878 107.683 18.6598C109.174 18.7536 110.534 17.8051 110.961 16.3725C111.039 16.1669 111.261 16.0562 111.47 16.1152L111.487 16.1204L113.315 16.7642C113.417 16.7967 113.499 16.8684 113.546 16.9625L113.554 16.9804C113.604 17.0796 113.613 17.1948 113.577 17.3001C112.728 19.8141 110.335 21.4775 107.683 21.3975C105.944 21.4148 104.27 20.7354 103.036 19.5109C101.689 18.0933 100.97 16.1926 101.041 14.2382C101.041 9.84745 104.197 7.20866 107.279 7.15632L107.37 7.15552ZM55.5461 7.15553H55.5505C59.4725 7.15553 61.9084 9.84812 61.9084 14.1842C61.9081 14.4113 61.8961 14.6383 61.8724 14.8641C61.8542 15.0729 61.6832 15.2342 61.4755 15.242L61.4581 15.2423H52.2996C52.3561 17.1712 53.9544 18.6953 55.8838 18.6599C57.3762 18.7553 58.7363 17.8062 59.1618 16.3725C59.238 16.1652 59.4614 16.0538 59.6716 16.115L59.6886 16.1204L61.5166 16.7642C61.6235 16.7988 61.7104 16.8775 61.7553 16.9804C61.7981 17.0827 61.7981 17.1978 61.7553 17.3001C60.9068 19.8125 58.5164 21.4755 55.8658 21.3975C54.1239 21.4172 52.4468 20.7377 51.2099 19.5109C49.8644 18.0922 49.1457 16.1923 49.2153 14.2382C49.2153 9.8031 52.4347 7.15553 55.5461 7.15553ZM41.6778 7.15097C43.4383 7.15097 44.8612 7.57874 45.9148 8.4207C46.6272 8.98849 47.1552 9.75468 47.4322 10.6226L47.433 10.6261C47.4692 10.7757 47.3813 10.9264 47.2354 10.9698L47.2206 10.9737L45.0368 11.6942C44.9398 11.7326 44.832 11.7326 44.7351 11.6942C44.6524 11.6556 44.5902 11.5835 44.564 11.4961L44.5523 11.4531C44.3534 10.7421 43.7032 9.60045 41.6778 9.60045C40.2369 9.60045 39.3724 10.429 39.3724 11.2305L39.3727 11.2622C39.3836 11.7833 39.6669 12.4375 40.9096 12.6862L40.9483 12.6938L43.3528 13.144C46.0095 13.679 47.5409 15.123 47.5713 17.1353L47.5717 17.1965L47.5628 17.1606L47.5622 17.2216C47.5235 19.2388 45.5724 21.3615 41.9794 21.3615C37.7694 21.3615 36.1169 18.9796 35.8107 17.5748C35.7907 17.4278 35.8804 17.289 36.0206 17.2458L36.0359 17.2415L38.2872 16.5391C38.3275 16.5326 38.3686 16.5326 38.4088 16.5391C38.4661 16.5381 38.5226 16.5502 38.5743 16.5745L38.5934 16.5841C38.6761 16.6238 38.7371 16.698 38.76 16.7867C39.0437 18.1376 40.2639 18.9436 42.02 18.9436C43.6544 18.9436 44.3974 18.088 44.3974 17.3136C44.3974 16.5476 43.7499 15.9798 42.6337 15.7453L42.5963 15.7376L40.0703 15.2468C37.7154 14.8011 36.2475 13.3377 36.2475 11.433C36.2475 9.11414 38.7375 7.15097 41.6778 7.15097ZM132.488 3.40025H134.456C134.688 3.41419 134.87 3.60249 134.879 3.83312L134.879 3.8505V7.54723H137.247C137.478 7.56342 137.657 7.75089 137.666 7.97979L137.667 7.99748V9.96066L137.666 9.97775C137.66 10.1979 137.485 10.3766 137.265 10.3879L137.247 10.3884H134.879V16.9579C134.879 18.0475 135.311 18.4978 136.423 18.4978C136.648 18.4939 136.874 18.4768 137.097 18.4466L137.18 18.4347C137.303 18.4139 137.428 18.4486 137.522 18.5293C137.607 18.6082 137.658 18.7166 137.666 18.8318L137.667 18.8535V20.7041C137.668 20.8927 137.545 21.0597 137.365 21.1139C136.846 21.259 136.311 21.3319 135.772 21.3306L135.699 21.33C133.349 21.33 131.883 19.8339 131.854 17.4142L131.854 17.3406V10.4155H129.805C129.581 10.4023 129.402 10.227 129.383 10.0057L129.381 9.98768V8.01547C129.381 7.78281 129.558 7.58917 129.787 7.5666L129.805 7.56523L130.355 7.56516L130.414 7.56411C131.057 7.54564 132.045 7.28505 132.065 5.84985L132.065 5.80463V3.8505C132.064 3.61783 132.242 3.4242 132.471 3.40162L132.488 3.40025ZM94.2447 7.15352L94.2962 7.15553H94.2916C96.6098 7.15553 98.9499 8.77065 98.9965 12.2981L98.9972 12.4056V20.7446C98.9866 20.9683 98.8128 21.1491 98.592 21.171L98.574 21.1724H96.4169C96.1936 21.1592 96.0149 20.984 95.995 20.7627L95.9937 20.7446V12.6758L95.9933 12.6137C95.9802 11.5856 95.6308 9.93362 93.5131 9.93362C91.948 9.93362 90.8333 11.1517 90.8112 12.9236L90.8109 12.9775V20.7446C90.8003 20.9683 90.6273 21.1491 90.4057 21.171L90.3876 21.1724H88.2044C87.9803 21.1592 87.8016 20.984 87.7824 20.7627L87.7812 20.7446V12.6758L87.7808 12.6137C87.7676 11.5856 87.4182 9.93362 85.2998 9.93362C83.6728 9.93362 82.5711 11.1428 82.5492 12.9496L82.5489 13.0045V20.7446C82.5376 20.9683 82.3645 21.1491 82.1437 21.171L82.1257 21.1724H79.9686C79.7468 21.1571 79.5704 20.9823 79.5513 20.7626L79.5501 20.7446V7.96597C79.5606 7.74384 79.7315 7.56366 79.9508 7.53979L79.9686 7.5382H82.0446C82.2679 7.55136 82.4473 7.72662 82.4666 7.94793L82.4678 7.96597V8.73595C83.4015 7.71219 84.7291 7.13699 86.1146 7.15553C87.7194 7.10849 89.2169 7.95693 90.0007 9.35726C90.9343 7.93087 92.5437 7.09641 94.2447 7.15352ZM126.54 8.7449C127.367 9.83349 127.793 11.1724 127.749 12.537L127.747 12.5947V20.7446C127.736 20.9668 127.565 21.1469 127.346 21.1708L127.328 21.1724H125.145C124.921 21.1592 124.742 20.984 124.722 20.7627L124.721 20.7446V13.0315C124.721 11.0143 123.771 9.98768 121.97 9.98768C121.174 9.96196 120.414 10.3164 119.921 10.9422C119.444 11.6292 119.198 12.4491 119.217 13.284L119.219 13.3332V20.7446C119.208 20.9683 119.035 21.1491 118.814 21.171L118.796 21.1724H116.616C116.393 21.1592 116.214 20.984 116.194 20.7627L116.193 20.7446V7.95693C116.204 7.73322 116.377 7.55249 116.598 7.53059L116.616 7.52916H118.746C118.968 7.5445 119.145 7.71924 119.164 7.93902L119.165 7.95693V8.8575C120.078 7.75065 121.449 7.12348 122.884 7.15553C124.282 7.09575 125.63 7.68184 126.54 8.7449ZM1.04088 15.6161H16.5437C16.8286 15.6185 17.0587 15.8466 17.0659 16.1293L17.0661 16.1474V18.0881C17.0684 18.373 16.8442 18.607 16.5618 18.6189L16.5436 18.6194H1.04088C0.755938 18.6169 0.525868 18.3888 0.518555 18.1061V18.088V16.1473V16.1292C0.525716 15.8527 0.746113 15.6284 1.02238 15.6165L1.04088 15.6161ZM70.4095 10.0147C68.2842 10.0147 66.9334 11.5276 66.9334 13.959C66.9334 16.3905 68.2662 17.8989 70.4095 17.8989C72.4537 17.8989 73.8316 16.314 73.8316 13.959C73.8316 11.5996 72.4537 10.0147 70.4095 10.0147ZM52.3955 12.6455L52.3897 12.6938H58.797C58.641 10.9821 57.4347 9.91465 55.628 9.89347L55.5731 9.89315C53.9811 9.86726 52.6254 11.0316 52.4019 12.5979L52.3955 12.6455ZM104.226 12.6455L104.22 12.6938H110.628C110.472 10.9821 109.265 9.91465 107.459 9.89347L107.404 9.89315C105.812 9.86726 104.456 11.0316 104.232 12.5979L104.226 12.6455ZM18.4843 0.806661C18.6186 0.855084 18.7274 0.955791 18.786 1.08585C18.8398 1.21713 18.8398 1.36433 18.786 1.49555L18.1106 3.29669C18.017 3.56375 17.725 3.70469 17.4577 3.61186C13.9194 2.37712 9.99322 3.07867 7.10152 5.46243C5.29937 6.97087 4.01976 9.01011 3.44533 11.2889C3.38587 11.5191 3.17866 11.68 2.94102 11.6807H2.82395L0.968821 11.2349C0.830503 11.2024 0.711725 11.1145 0.640133 10.9917H0.631097C0.55603 10.8691 0.534869 10.7209 0.572635 10.582C1.30932 7.66493 2.95771 5.05906 5.27791 3.14354C8.9673 0.106192 13.9767 -0.780246 18.4843 0.806661ZM11.6177 8.58736H27.1205C27.3984 8.58962 27.6255 8.80696 27.642 9.08219L27.6428 9.10062V11.0413C27.6452 11.3263 27.4211 11.5602 27.1386 11.5722L27.1205 11.5727H11.6177C11.3347 11.5678 11.1072 11.3405 11.1 11.0597L11.0999 11.0413V9.11862C11.0974 8.83555 11.3188 8.60241 11.5994 8.58799L11.6177 8.58736ZM22.3797 2.66624L22.4064 2.66603L22.4332 2.66627C23.2936 2.67613 23.9863 3.37178 23.9956 4.22888L23.9957 4.25572C23.9957 4.26468 23.9956 4.27364 23.9954 4.28252C23.9805 5.16023 23.2569 5.85962 22.3792 5.84471C21.5015 5.82981 20.8021 5.10617 20.817 4.22854C20.8316 3.36866 21.5263 2.67998 22.3797 2.66624Z" fill="#90A2B2"/>
</svg>
