<svg width="138" height="33" viewBox="0 0 138 33" fill="none" xmlns="http://www.w3.org/2000/svg">
<g id="Group">
<path id="Vector" d="M0.521263 24.3274C0.356788 24.2324 0.222046 23.9995 0.222046 23.8104V8.32749C0.222046 8.1381 0.356788 7.90557 0.521263 7.81035L14.102 0.0712809C14.2667 -0.0237603 14.536 -0.0237603 14.7006 0.0712809L28.2805 7.81121C28.4452 7.90625 28.5797 8.13879 28.5797 8.32818V23.8111C28.5797 24 28.4452 24.2327 28.2805 24.3281L14.7006 32.0674C14.536 32.1624 14.2667 32.1624 14.102 32.0674L0.521263 24.3274ZM41.3361 9.86843V16.1484H44.0215C45.9704 16.1484 46.8366 15.3544 46.8366 14.0551V11.9617C46.8366 10.6626 45.9704 9.86843 44.0215 9.86843H41.3361ZM41.3361 18.1454V23.7517C41.3361 24.0884 41.2494 24.2327 40.9463 24.2327H39.6251C39.3436 24.2327 39.2354 24.0884 39.2354 23.7517V8.35276C39.2354 8.0159 39.3436 7.87137 39.6251 7.87137H44.0215C47.7463 7.87137 48.9373 9.60376 48.9373 11.5768V14.4402C48.9373 16.413 47.7463 18.1454 44.0215 18.1454H41.3361ZM53.8244 9.86843V15.7634H56.5097C58.4588 15.7634 59.3251 14.9934 59.3251 13.6701V11.9617C59.3251 10.6626 58.4588 9.86843 56.5097 9.86843H53.8244ZM53.8244 17.7605V23.7517C53.8244 24.0884 53.7377 24.2327 53.4345 24.2327H52.1135C51.832 24.2327 51.7237 24.0884 51.7237 23.7517V8.35276C51.7237 8.0159 51.832 7.87137 52.1135 7.87137H56.5097C60.2347 7.87137 61.4257 9.60376 61.4257 11.5768V14.0791C61.4257 15.5468 60.7544 16.8702 58.8919 17.4478L61.4906 23.7517C61.5989 24.0404 61.404 24.2327 61.1009 24.2327H59.8014C59.4982 24.2327 59.4549 24.0404 59.3251 23.7517L56.8778 17.7605H53.8244ZM72.8102 11.7693C72.8102 10.47 71.896 9.67595 69.8388 9.67595C67.8044 9.67595 66.8903 10.47 66.8903 11.7693V20.3348C66.8903 21.6343 67.8044 22.4281 69.8388 22.4281C71.896 22.4281 72.8102 21.6343 72.8102 20.3348V11.7693ZM64.6502 11.3843C64.6502 9.41127 65.9303 7.67905 69.8388 7.67905C73.7702 7.67905 75.0504 9.41127 75.0504 11.3843V20.72C75.0504 22.693 73.7702 24.4254 69.8388 24.4254C65.9303 24.4254 64.6502 22.693 64.6502 20.72V11.3843ZM87.1191 7.87137C87.4163 7.87137 87.5534 7.99184 87.5534 8.32853V9.41127C87.5534 9.74813 87.4163 9.86843 87.1191 9.86843H83.462V23.7517C83.462 24.0884 83.3477 24.2327 83.0504 24.2327H81.6334C81.3362 24.2327 81.2219 24.0884 81.2219 23.7517V9.86843H77.5647C77.2448 9.86843 77.1305 9.74813 77.1305 9.41127V8.32853C77.1305 7.99184 77.2448 7.87137 77.5647 7.87137H87.1191ZM97.7713 11.7693C97.7713 10.47 96.857 9.67595 94.7999 9.67595C92.7656 9.67595 91.8512 10.47 91.8512 11.7693V20.3348C91.8512 21.6343 92.7656 22.4281 94.7999 22.4281C96.857 22.4281 97.7713 21.6343 97.7713 20.3348V11.7693ZM89.6112 11.3843C89.6112 9.41127 90.8912 7.67905 94.7999 7.67905C98.7313 7.67905 100.011 9.41127 100.011 11.3843V20.72C100.011 22.693 98.7313 24.4254 94.7999 24.4254C90.8912 24.4254 89.6112 22.693 89.6112 20.72V11.3843ZM113.242 23.7756C113.242 24.0884 113.155 24.2327 112.852 24.2327H111.661C111.445 24.2327 111.358 24.1605 111.271 24.0162L106.182 14.1034C105.706 13.2129 105.446 12.467 105.402 12.3708V23.7756C105.402 24.0884 105.294 24.2327 105.013 24.2327H103.8C103.518 24.2327 103.41 24.0884 103.41 23.7756V8.32853C103.41 8.0159 103.518 7.87137 103.8 7.87137H105.013C105.186 7.87137 105.294 7.94355 105.359 8.06385L110.578 18.1936C110.882 18.771 111.25 19.7333 111.25 19.7333V8.32853C111.25 8.0159 111.38 7.87137 111.661 7.87137H112.852C113.155 7.87137 113.242 8.0159 113.242 8.32853V23.7756ZM116.966 24.2327C116.685 24.2327 116.576 24.0884 116.576 23.7517V8.35276C116.576 8.0159 116.685 7.87137 116.966 7.87137H124.373C124.654 7.87137 124.784 7.99184 124.784 8.32853V9.41127C124.784 9.74813 124.654 9.86843 124.373 9.86843H118.677V14.7288H123.983C124.286 14.7288 124.416 14.8491 124.416 15.1859V16.2206C124.416 16.5334 124.286 16.6777 123.983 16.6777H118.677V22.2358H124.611C124.892 22.2358 125.022 22.3321 125.022 22.6688V23.7756C125.022 24.1126 124.892 24.2327 124.611 24.2327H116.966ZM136.959 7.87137C137.24 7.87137 137.37 7.99184 137.37 8.32853V9.41127C137.37 9.74813 137.24 9.86843 136.959 9.86843H133.494V23.7517C133.494 24.0884 133.385 24.2327 133.104 24.2327H131.761C131.48 24.2327 131.371 24.0884 131.371 23.7517V9.86843H127.906C127.603 9.86843 127.495 9.74813 127.495 9.41127V8.32853C127.495 7.99184 127.603 7.87137 127.906 7.87137H136.959Z" fill="#90A2B2"/>
</g>
</svg>
