<svg width="138" height="22" viewBox="0 0 138 22" fill="none" xmlns="http://www.w3.org/2000/svg">
<g id="Group">
<g id="Group_2">
<path id="Vector" d="M19.2721 21.7498V16.1895H13.2168C11.5701 16.1895 10.0448 17.0539 9.20137 18.4652L7.23828 21.7498H19.2721Z" fill="#90A2B2"/>
<path id="Vector_2" d="M0 0.388672V5.94906H15.949L19.2722 0.388672H0Z" fill="#90A2B2"/>
<path id="Vector_3" d="M7.63304 9.07888L0.0175781 21.7499H6.50577L15.6125 6.59082H12.0297C10.2276 6.59082 8.55802 7.53562 7.63304 9.07888Z" fill="#90A2B2"/>
</g>
<path id="Vector_4" d="M33.0774 16.4131C29.8148 16.4131 27.4141 14.0416 27.4141 10.8592C27.4141 7.70744 29.8302 5.30535 33.0927 5.30535C36.3553 5.30535 38.7714 7.73804 38.7714 10.8592C38.7714 14.011 36.3399 16.4131 33.0774 16.4131ZM33.0927 14.47C35.1549 14.47 36.6323 12.94 36.6323 10.8592C36.6323 8.80903 35.1549 7.24844 33.0927 7.24844C31.0152 7.24844 29.5378 8.80903 29.5378 10.8592C29.5378 12.94 31.0152 14.47 33.0927 14.47ZM40.9561 19.7332V8.16644H42.926V9.19153H43.0337C43.2492 8.85493 43.9879 7.96754 45.4652 7.96754C47.7275 7.96754 49.2818 9.65053 49.2818 12.1597C49.2818 14.6689 47.7429 16.4131 45.5268 16.4131C44.0956 16.4131 43.3261 15.6175 43.0645 15.1738H42.9568V19.7332H40.9561ZM45.0805 14.6077C46.3732 14.6077 47.2504 13.6132 47.2504 12.1903C47.2504 10.7215 46.3732 9.77293 45.0651 9.77293C43.7416 9.77293 42.9106 10.8286 42.9106 12.1903C42.9106 13.6897 43.834 14.6077 45.0805 14.6077ZM55.0061 16.4131C52.6207 16.4131 50.9279 14.6383 50.9279 12.2362C50.9279 9.69643 52.6361 7.96754 55.0061 7.96754C57.6069 7.96754 59.0227 9.88003 59.0227 12.1444V12.7717H52.867C52.9285 13.9957 53.7749 14.8219 55.0676 14.8219C56.0526 14.8219 56.8066 14.3629 57.0836 13.705H58.9458C58.5456 15.3421 57.099 16.4131 55.0061 16.4131ZM52.8977 11.3641H57.1144C57.0221 10.2778 56.1757 9.55873 55.0061 9.55873C53.8827 9.55873 53.0208 10.3543 52.8977 11.3641ZM61.1766 16.2142V8.16644H63.0849V9.14563H63.1927C63.5158 8.54893 64.3161 7.96754 65.4703 7.96754C67.2862 7.96754 68.3943 9.23743 68.3943 10.951V16.2142H66.3936V11.4712C66.3936 10.492 65.7627 9.83413 64.8393 9.83413C63.8698 9.83413 63.1773 10.5991 63.1773 11.6089V16.2142H61.1766ZM70.3789 16.2142V14.3935L75.9807 7.37084V7.26374H70.579V5.50425H78.5353V7.30964L72.9336 14.3323V14.4547H78.5661V16.2142H70.3789ZM83.9826 16.4131C81.5972 16.4131 79.9044 14.6383 79.9044 12.2362C79.9044 9.69643 81.6126 7.96754 83.9826 7.96754C86.5834 7.96754 87.9992 9.88003 87.9992 12.1444V12.7717H81.8434C81.905 13.9957 82.7514 14.8219 84.0441 14.8219C85.029 14.8219 85.7831 14.3629 86.0601 13.705H87.9222C87.5221 15.3421 86.0755 16.4131 83.9826 16.4131ZM81.8742 11.3641H86.0909C85.9986 10.2778 85.1522 9.55873 83.9826 9.55873C82.8591 9.55873 81.9973 10.3543 81.8742 11.3641ZM90.1531 19.7332V8.16644H92.123V9.19153H92.2307C92.4462 8.85493 93.1848 7.96754 94.6622 7.96754C96.9245 7.96754 98.4788 9.65053 98.4788 12.1597C98.4788 14.6689 96.9398 16.4131 94.7238 16.4131C93.2926 16.4131 92.5231 15.6175 92.2615 15.1738H92.1538V19.7332H90.1531ZM94.2775 14.6077C95.5702 14.6077 96.4474 13.6132 96.4474 12.1903C96.4474 10.7215 95.5702 9.77293 94.2621 9.77293C92.9386 9.77293 92.1076 10.8286 92.1076 12.1903C92.1076 13.6897 93.031 14.6077 94.2775 14.6077ZM100.633 19.7332V8.16644H102.603V9.19153H102.71C102.926 8.85493 103.664 7.96754 105.142 7.96754C107.404 7.96754 108.958 9.65053 108.958 12.1597C108.958 14.6689 107.419 16.4131 105.203 16.4131C103.772 16.4131 103.003 15.6175 102.741 15.1738H102.633V19.7332H100.633ZM104.757 14.6077C106.05 14.6077 106.927 13.6132 106.927 12.1903C106.927 10.7215 106.05 9.77293 104.742 9.77293C103.418 9.77293 102.587 10.8286 102.587 12.1903C102.587 13.6897 103.511 14.6077 104.757 14.6077ZM114.683 16.4131C112.297 16.4131 110.604 14.6383 110.604 12.2362C110.604 9.69643 112.313 7.96754 114.683 7.96754C117.283 7.96754 118.699 9.88003 118.699 12.1444V12.7717H112.544C112.605 13.9957 113.452 14.8219 114.744 14.8219C115.729 14.8219 116.483 14.3629 116.76 13.705H118.622C118.222 15.3421 116.776 16.4131 114.683 16.4131ZM112.574 11.3641H116.791C116.699 10.2778 115.852 9.55873 114.683 9.55873C113.559 9.55873 112.697 10.3543 112.574 11.3641ZM122.823 16.2142C121.407 16.2142 120.607 15.3727 120.607 13.9498V4.73926H122.608V13.7662C122.608 14.2252 122.838 14.47 123.254 14.47H123.577V16.2142H122.823ZM126.501 7.09544C125.777 7.09544 125.269 6.65175 125.269 5.93265C125.269 5.24415 125.777 4.78516 126.501 4.78516C127.224 4.78516 127.732 5.24415 127.732 5.93265C127.732 6.65175 127.224 7.09544 126.501 7.09544ZM125.5 16.2142V8.16644H127.501V16.2142H125.5ZM129.932 16.2142V8.16644H131.84V9.14563H131.948C132.271 8.54893 133.071 7.96754 134.225 7.96754C136.041 7.96754 137.149 9.23743 137.149 10.951V16.2142H135.149V11.4712C135.149 10.492 134.518 9.83413 133.594 9.83413C132.625 9.83413 131.932 10.5991 131.932 11.6089V16.2142H129.932Z" fill="#90A2B2"/>
</g>
</svg>
