<svg xmlns="http://www.w3.org/2000/svg" width="52" height="147" viewBox="0 0 52 147" fill="none">
  <path d="M39.4674 45.6059C39.4674 45.6059 39.4752 49.7754 39.2584 50.4658C39.1656 50.7707 38.6702 51.237 38.3141 52.0619C37.7335 53.4069 37.602 55.3347 37.602 55.3347L36.4718 60.096L34.6992 57.1908C34.6992 57.1908 35.2952 54.3036 35.4191 53.3262C35.6436 51.5239 35.7365 50.4838 35.7365 50.4838C35.7365 50.4838 36.6344 49.2912 36.7427 48.9325C37.0446 47.9193 37.8032 46.3143 38.1361 45.9287C38.585 45.4086 37.9193 49.0491 37.9193 49.0491C37.9193 49.0491 38.4689 45.041 38.8714 45.041C39.2739 45.041 38.8559 47.5786 38.8559 47.5786C38.8559 47.5786 38.8482 45.3459 39.4674 45.6059Z" fill="#FFBDAE"/>
  <path d="M11.1058 42.5305C11.3148 42.5036 11.4154 42.7098 11.4464 43.0057C11.5238 42.5126 11.6322 42.1001 11.787 42.1449C12.0115 42.2077 12.027 43.5348 12.0037 44.6735C12.0579 43.7679 12.1585 42.8712 12.3366 43.203C12.5843 43.6693 12.801 45.8392 12.8939 46.9062C12.9249 47.2828 13.0797 47.4442 13.3583 47.6594C13.3583 47.6594 13.6989 44.9694 14.0472 45.615C14.3956 46.2606 13.7299 50.9143 13.7299 50.9143L13.4899 55.0748L11.3303 55.4245L11.2297 52.9767C11.2297 52.9767 11.5316 51.9455 11.3535 50.5736C11.1832 49.2645 10.5253 47.6325 10.3627 47.3277C10.0299 46.7 11.1058 42.5305 11.1058 42.5305Z" fill="#FFBDAE"/>
  <path d="M5.48668 33.1155C8.08752 39.6701 10.8509 39.7688 11.8572 43.6603C13.2196 48.9506 13.1886 50.0356 14.4503 50.0356C21.9432 50.0356 22.4464 50.3494 22.9108 49.1748C24.0409 46.3234 23.3365 47.2918 26.9514 47.0676C27.7564 47.0138 27.9035 47.8477 28.4763 49.3003C28.8711 50.2956 28.8866 50.0266 37.1148 50.0266C39.0268 50.0266 37.9508 44.0817 41.8211 39.5984C45.2889 35.5903 47.4021 30.291 47.4021 24.4806C47.4021 19.827 46.1094 17.137 46.2488 17.1011C47.1544 16.8052 47.9207 16.0072 48.5245 15.2629C48.5787 15.2002 50.7693 16.0341 52 12.3488C51.3343 13.9628 50.2739 15.2629 48.7645 14.8863C49.5153 13.4427 49.5772 11.2907 48.3774 9.93675C47.286 8.79798 44.6155 10.0174 46.6513 13.4965C47.3711 14.7339 47.5647 14.4111 47.317 14.6532C46.9222 15.0298 46.1481 15.6485 45.645 15.5499C37.8347 -3.28008 11.8882 -2.39238 5.16157 16.7424C4.95258 17.3432 4.77454 17.3253 2.19692 18.7599C1.26804 19.28 1.4693 19.4235 0.424316 28.0942C0.0837291 30.9725 4.41073 30.4076 5.48668 33.1155ZM46.6745 10.8782C46.8835 10.4478 47.464 10.3313 47.7737 10.672C48.5864 11.7749 48.2923 13.371 47.7504 14.2049C47.1467 13.4965 46.2642 11.7211 46.6745 10.8782Z" fill="#2FCBED"/>
  <path d="M7.40601 18.1681C7.2899 18.9393 7.39827 19.6118 7.64597 19.6566C7.88593 19.7014 8.18007 19.1186 8.28844 18.3385C8.40455 17.5674 8.29618 16.8949 8.04848 16.85C7.80852 16.8052 7.51438 17.397 7.40601 18.1681Z" fill="#184655"/>
  <path d="M17.2138 5.22918C16.6333 4.52081 13.0726 0.566523 6.57825 0.324424C6.33829 0.315457 6.18348 0.60239 6.28411 0.844489C7.05043 2.69162 9.54291 8.91446 10.2705 13.335C10.3015 13.5143 10.4408 13.6399 10.5956 13.6309C11.896 13.5681 17.3532 12.8508 17.3067 5.47127C17.299 5.39057 17.268 5.30091 17.2138 5.22918Z" fill="#2FCBED"/>
  <path opacity="0.5" d="M13.1955 7.91024C13.1955 7.74884 13.1878 7.58744 13.18 7.43501C13.0717 5.91068 12.4756 4.50292 11.539 3.42692C10.4399 2.17159 8.7679 0.853495 6.38379 0.396196C6.43023 0.351363 6.4999 0.324463 6.5773 0.324463C13.0717 0.575529 16.6324 4.52982 17.2129 5.22921C17.2671 5.29198 17.298 5.38165 17.298 5.48028C17.3445 12.8509 11.8874 13.5682 10.5869 13.6399C10.4321 13.6489 10.2928 13.5234 10.2618 13.344C10.2386 13.2275 10.2231 13.1019 10.1999 12.9764C11.957 12.3218 12.9788 11.4252 13.1955 7.91024Z" fill="#80E4FA"/>
  <path opacity="0.2" d="M35.1558 7.77568C34.5133 8.93238 35.4499 10.9499 37.238 12.2859C39.0338 13.6219 40.9999 13.7654 41.6424 12.6087C42.2849 11.452 41.3483 9.43451 39.5602 8.09848C37.7721 6.76245 35.7982 6.61898 35.1558 7.77568Z" fill="white"/>
  <path d="M20.3179 5.21126C26.6342 2.81717 32.192 5.1754 32.2462 5.2023L32.6564 4.27873C32.5945 4.25183 31.1315 3.62417 28.8326 3.30137C26.7116 3.00547 23.4529 2.94271 19.9541 4.2608L20.3179 5.21126Z" fill="#184655"/>
  <path opacity="0.5" d="M47.4015 24.4985C47.4015 19.8448 46.1089 17.1548 46.2482 17.119C47.1538 16.8231 47.9202 16.025 48.5239 15.2808C48.5781 15.218 50.7687 16.0519 51.9995 12.3667C51.3338 13.9806 50.2733 15.2808 48.7639 14.9042C49.5147 13.4606 49.5767 11.3086 48.3769 9.95463C47.2854 8.81586 44.6149 10.0353 46.6507 13.5144C47.3706 14.7518 47.5641 14.429 47.3164 14.6711C46.9216 15.0477 46.1476 15.6664 45.6444 15.5677C41.7819 6.26934 33.5149 1.76808 25.3176 1.90258C28.6306 4.86158 31.7345 9.81116 32.5628 16.1237C34.0412 27.3678 25.5188 35.3571 14.6974 33.7342C6.37629 32.4878 5.02168 32.0126 4.72754 31.9767C4.76624 32.0126 4.7972 32.0574 4.82817 32.1022C5.10683 32.3802 5.33131 32.712 5.49386 33.1065C8.09471 39.6611 10.8581 39.7597 11.8644 43.6513C13.2267 48.9416 13.1958 50.0265 14.4575 50.0265C21.9504 50.0265 22.4535 50.3404 22.918 49.1657C24.0481 46.3144 23.3437 47.2827 26.9586 47.0586C27.7636 47.0048 27.9107 47.8387 28.4835 49.2913C28.8783 50.2866 28.8937 50.0176 37.122 50.0176C39.0339 50.0176 37.958 44.0727 41.8283 39.5894C45.2883 35.6082 47.4015 30.3089 47.4015 24.4985ZM46.6739 10.8782C46.8829 10.4478 47.4635 10.3312 47.7731 10.672C48.5859 11.7749 48.2917 13.3709 47.7499 14.2048C47.1461 13.4964 46.2637 11.7211 46.6739 10.8782Z" fill="#80E4FA"/>
  <path d="M13.7923 45.301C14.5276 45.9556 13.7381 50.9052 13.7381 50.9052L12.7705 47.6772C12.7705 47.6772 13.1034 47.6951 13.2814 47.2916C13.6375 46.4757 13.3046 44.8706 13.7923 45.301Z" fill="#FFBDAE"/>
  <path d="M10.9896 44.3596C10.9896 44.3596 10.889 45.4804 11.2683 46.2516C11.6476 47.0227 13.2654 48.0001 13.2654 48.0001L13.3815 47.5966L10.9896 44.3596Z" fill="#FFBDAE"/>
  <path d="M21.5946 61.3244C21.5946 61.3244 23.0266 59.5759 24.1799 61.701C24.1799 61.701 25.0701 61.1272 25.6893 62.1494C25.6893 62.1494 27.2916 61.5934 27.6864 64.3731C27.6864 64.3731 28.5147 64.1938 28.623 65.3325C28.7314 66.4713 28.236 67.2245 28.236 67.2245C28.236 67.2245 28.7004 67.628 28.4914 68.6771C28.3134 69.5648 27.6787 69.6993 27.6787 69.6993C27.6787 69.6993 27.5084 71.1967 26.9433 71.645C26.386 72.0934 25.6197 71.8782 25.6197 71.8782C25.6197 71.8782 25.4184 72.6941 24.7605 72.6224C24.1025 72.5507 23.2975 71.8244 22.5621 72.1561C21.8268 72.4789 19.9303 72.1382 19.9303 72.1382C19.9303 72.1382 17.7939 71.0353 18.4364 68.5067C18.4364 68.5067 17.314 67.3321 18.2971 65.9243C18.2971 65.9243 17.5772 63.7185 19.0015 62.4184C20.4102 61.1272 21.5946 61.3244 21.5946 61.3244Z" fill="#323E41"/>
  <path d="M37.5254 123.167C37.5254 123.167 39.9946 122.845 40.4049 122.611C40.8152 122.378 42.8896 124.674 42.4794 125.822C42.2472 126.467 41.5118 126.386 41.5118 126.386L40.9158 125.714L37.7808 126.467L37.5254 123.167Z" fill="#FFBDAE"/>
  <path d="M23.4213 135.228C23.4213 135.228 24.7218 137.684 25.0778 138.016C25.4339 138.348 24.5128 141.495 23.4446 141.549C22.8408 141.576 22.5931 140.778 22.5931 140.778L22.864 139.872L20.9443 136.904L23.4213 135.228Z" fill="#FFBDAE"/>
  <path d="M25.0011 137.918C25.0011 137.918 24.2503 139.021 23.8478 139.46C23.3214 140.025 22.648 140.581 22.648 140.581C22.648 140.581 21.8816 142.186 21.6727 142.751C21.2082 143.997 20.6896 145.387 20.7593 146.086C20.7825 146.31 21.216 146.544 21.5798 146.418C23.0892 145.88 26.944 141.791 27.4317 140.697C27.9967 139.433 25.0011 137.918 25.0011 137.918Z" fill="#323E41"/>
  <path d="M13.9869 100.518C14.1262 100.06 14.2578 99.6389 14.3894 99.2444C15.9917 99.6479 17.803 100.096 19.6685 100.554L19.9007 109.287C19.9007 108.677 18.4997 121.096 18.4997 121.096C18.4997 121.096 22.308 129.856 24.785 135.272C23.771 136.743 22.9892 137.388 21.5107 138.384C17.6637 133.04 12.7484 123.625 12.5394 122.002C12.4233 121.078 12.3149 105.969 13.9869 100.518Z" fill="#D1821A"/>
  <path d="M28.3142 102.804C27.8807 108.292 27.1531 116.595 27.0215 119.393C30.0868 119.904 37.3165 122.423 38.6712 122.423C39.182 123.75 39.4607 125.355 39.1124 126.682C39.0427 126.942 24.8387 127.471 21.1696 124.755C20.2098 124.046 19.9234 117.285 19.9079 109.296L19.3506 101.136C22.4546 101.899 25.636 102.078 28.3142 102.804Z" fill="#E2A22F"/>
  <path d="M18.1116 74.6938L21.5949 75.3036C21.5949 75.3036 24.219 75.3484 24.9234 75.3574C24.9853 75.3574 27.7177 90.8069 28.3834 96.6262C29.0491 102.437 28.5305 103.468 28.5305 103.468C28.5305 103.468 23.8939 104.678 20.4648 104.32C16.8964 103.952 12.8867 101.719 12.8867 101.719C12.8867 101.719 16.339 90.6186 16.9428 87.1306C17.5543 83.6515 18.1116 74.6938 18.1116 74.6938Z" fill="white"/>
  <path d="M10.9443 53.129C10.9443 53.129 11.254 67.4398 11.6255 68.3275C12.1674 69.6097 16.0686 78.7467 16.0686 78.7467C16.0686 78.7467 13.1349 92.9678 11.9042 97.8725C11.7803 98.3657 11.2307 101.558 11.2307 101.872C11.2307 102.562 13.8238 103.441 14.1335 103.387C14.4121 103.342 16.6724 89.8205 18.1199 83.1942C18.6075 80.9525 19.4513 78.8364 20.5969 76.9444L21.6031 75.2945L15.6429 66.9466C15.6429 66.9466 14.3502 53.7298 14.3502 52.9049C14.3579 52.6807 11.3159 52.322 10.9443 53.129Z" fill="#323E41"/>
  <path d="M24.9243 75.3574L30.8923 64.9292C30.8923 64.9292 34.7626 53.972 34.8633 53.5685C34.9562 53.174 37.9982 53.6223 38.9658 53.5147C39.2754 53.4788 35.5444 65.0548 35.08 66.9736C34.5382 69.2422 30.993 78.0923 30.993 78.0923C30.993 78.0923 28.9804 83.4095 29.2978 87.5252C29.8164 94.3577 30.8536 104.194 30.5982 104.49C29.0346 105.629 24.1193 105.593 23.74 104.885C19.5446 97.0657 24.9243 75.3574 24.9243 75.3574Z" fill="#323E41"/>
  <path d="M21.8357 73.2144L21.5725 75.4471C21.5725 75.4471 20.992 78.6571 21.7428 79.2758C22.4936 79.8945 24.9242 75.3484 24.9242 75.3484L24.6688 69.6995L21.8357 73.2144Z" fill="#FFBDAE"/>
  <path d="M24.7541 71.5286C24.1348 73.4564 22.6641 74.64 21.6191 75.0973L21.8359 73.2053L24.669 69.6904L24.7541 71.5286Z" fill="#E2A22F"/>
  <path d="M28.6475 65.8617C28.6475 66.7225 28.2218 67.4219 27.7031 67.4219C27.1845 67.4219 26.7588 66.7225 26.7588 65.8617C26.7588 65.0009 27.1845 64.3015 27.7031 64.3015C28.2295 64.3015 28.6475 65.0009 28.6475 65.8617Z" fill="#323E41"/>
  <path d="M25.8137 62.5082C25.8137 63.0014 25.3028 63.4049 24.6681 63.4049C24.0333 63.4049 23.5225 63.0014 23.5225 62.5082C23.5225 62.0151 24.0333 61.6116 24.6681 61.6116C25.3028 61.6116 25.8137 62.0151 25.8137 62.5082Z" fill="#323E41"/>
  <path d="M22.9423 63.7635C21.4252 63.1627 19.8074 64.3284 19.5752 66.1397C19.4745 66.9287 19.3817 67.9151 19.3662 69C19.3275 71.6093 20.4886 74.1379 21.5103 74.1379C22.5321 74.1379 25.3497 72.4522 25.458 68.7579C25.52 66.4714 24.5292 64.4001 22.9423 63.7635Z" fill="#FFBDAE"/>
  <path d="M24.6992 69.0448C24.6992 69.6186 25.0243 70.0849 25.4346 70.0849C25.8371 70.0849 26.1699 69.6186 26.1699 69.0448C26.1699 68.4709 25.8448 68.0046 25.4346 68.0046C25.0321 68.0046 24.6992 68.4709 24.6992 69.0448Z" fill="#FFBDAE"/>
  <path d="M18.514 62.4722C17.4613 63.4406 17.0897 64.9112 17.6857 65.754C18.2818 66.5969 19.6286 66.4983 20.6814 65.5299C21.7341 64.5615 22.1056 63.0909 21.5096 62.2481C20.9136 61.4052 19.5667 61.5038 18.514 62.4722Z" fill="#323E41"/>
  <path d="M21.2705 63.2614C21.2705 63.6829 21.7117 64.0236 22.2536 64.0236C22.7954 64.0236 23.2366 63.6829 23.2366 63.2614C23.2366 62.84 22.7954 62.4993 22.2536 62.4993C21.7117 62.4993 21.2705 62.84 21.2705 63.2614Z" fill="#323E41"/>
  <path d="M18.3594 66.4984C18.3594 67.0364 18.7309 67.4757 19.1954 67.4757C19.6598 67.4757 20.0313 67.0364 20.0313 66.4984C20.0313 65.9604 19.6598 65.521 19.1954 65.521C18.7309 65.521 18.3594 65.9604 18.3594 66.4984Z" fill="#323E41"/>
  <path d="M40.2969 122.647C40.2969 122.647 40.8465 123.903 41.0168 124.512C41.2412 125.301 41.3883 126.252 41.3883 126.252C41.3883 126.252 42.3249 127.731 42.6732 128.189C43.455 129.202 44.4071 130.403 44.9877 130.619C45.1735 130.69 45.6998 130.502 45.6921 130.036C45.6766 128.207 44.1594 122.244 43.5092 121.275C42.7506 120.146 40.2969 122.647 40.2969 122.647Z" fill="#323E41"/>
  <path d="M10.4248 45.7046C10.4248 45.7046 10.8351 42.2524 11.1756 42.1448C11.5162 42.0372 11.6323 42.6739 11.4853 43.2119C11.3459 43.7499 11.2221 45.8032 11.3305 46.5833C11.4388 47.3634 10.4248 45.7046 10.4248 45.7046Z" fill="#FFBDAE"/>
  <path d="M39.4053 49.067C39.4053 49.067 39.475 46.3411 39.1266 45.4893C39.0802 45.3728 38.9796 45.2383 38.8712 45.5342C38.7241 45.9466 38.8325 48.1345 38.8325 48.1345C38.8325 48.1345 38.817 44.6106 38.4068 44.6106C37.9965 44.6106 38.1978 45.8211 38.1978 46.3053C38.1978 46.7895 38.2287 48.4483 38.2287 48.4483C38.2287 48.4483 38.0584 44.7092 38.0197 44.4851C37.9733 44.2519 37.6559 44.2071 37.5553 44.5568C37.4547 44.9155 37.416 48.52 37.416 48.52C37.416 48.52 37.6095 44.8079 37.1528 44.8079C36.6884 44.8079 36.9593 49.4257 36.5335 49.9099C36.1155 50.3941 35.7285 50.5644 35.7285 50.5644C37.0367 51.1204 38.1978 51.9453 39.4053 49.067Z" fill="#FFBDAE"/>


    <path d="M12.7738 11.3302C11.9827 12.9554 12.3293 16.1712 12.9848 17.1999C13.6478 18.2372 15.2149 18.5571 15.2149 18.5571L17.5203 19.3697C17.5203 19.3697 19.1778 16.7417 19.6374 15.082C19.8182 14.4423 19.8484 14.0187 19.6374 12.6615C19.3662 10.898 18.9744 9.99033 17.3018 9.78286C15.682 9.57539 13.7307 9.35928 12.7738 11.3302Z" fill="#184655"/>
<path d="M20.1339 15.6611C20.0511 16.2489 19.697 16.6811 19.3429 16.6206C18.9812 16.5601 18.7627 16.0328 18.8381 15.4449C18.9209 14.8571 19.275 14.4249 19.6291 14.4854C19.9908 14.5459 20.2168 15.0732 20.1339 15.6611Z" fill="#F7A491"/>
<path d="M10.6121 55.9966C10.3786 56.5067 9.28613 57.3971 9.28613 57.3971C10.2204 58.6765 13.2265 61.3908 13.2265 61.3908C13.2265 61.3908 13.6032 60.9413 13.4374 60.5264C13.2642 60.1115 12.4354 57.5527 12.8121 56.7055C12.9101 56.4894 13.6333 54.8469 14.2662 53.9392C13.4224 53.6107 12.6087 53.1439 11.8251 52.729C11.3279 53.896 10.6875 55.8324 10.6121 55.9966Z" fill="#F7A491"/>
<path d="M10.4157 56.2991C10.4157 56.2991 12.6232 58.9962 13.0451 59.2814C13.3917 59.5148 13.8513 62.3762 13.3465 62.454C12.8492 62.5404 9.12738 58.1836 9.01436 57.5871C8.91642 56.9993 10.4157 56.2991 10.4157 56.2991Z" fill="#323E41"/>
<path d="M21.3026 49.8935C21.0314 50.3862 19.8711 51.1988 19.8711 51.1988C20.7074 52.5387 23.4875 55.4606 23.4875 55.4606C23.4875 55.4606 23.9019 55.037 23.7663 54.6134C23.6306 54.1898 22.9978 51.5705 23.4348 50.758C23.5478 50.5418 24.3991 48.9685 25.0998 48.1041C24.2861 47.7151 23.5101 47.1964 22.7567 46.7209C22.1765 47.8447 21.393 49.7293 21.3026 49.8935Z" fill="#F7A491"/>
<path d="M20.8656 50.395C20.8656 50.395 23.0505 53.0662 23.4724 53.3601C23.819 53.5935 24.2635 56.4548 23.7663 56.5413C23.269 56.6277 19.3739 52.5648 19.2684 51.9683C19.1629 51.3719 20.8656 50.395 20.8656 50.395Z" fill="#323E41"/>
<path d="M19.8035 33.7542C19.8035 33.7542 27.5712 37.5837 28.1513 40.4882C28.4602 42.0529 24.5123 50.3603 24.5123 50.3603L21.4309 48.8907C21.4309 48.8907 22.0713 45.8392 22.885 43.825C23.2617 42.8914 23.5103 42.3468 23.5103 42.3468C22.8774 41.7331 15.5693 39.2088 15.5693 39.2088L16.8727 34.2469L19.8035 33.7542Z" fill="#355389"/>
<path d="M10.6712 33.7542C10.6712 33.7542 10.0459 34.8866 11.1911 37.9208C11.9445 39.9091 14.3177 45.7268 14.2574 45.8392C12.5773 49.1068 10.3623 53.9564 10.3623 53.9564L14.0088 55.9965C14.0616 56.1003 18.6423 48.9253 18.8231 46.7555C18.9663 45.1044 17.7457 34.1259 17.7457 34.1259L10.6712 33.7542Z" fill="#466EB6"/>
<path d="M7.10873 13.3702C6.40052 12.4366 4.95397 9.26403 4.46425 8.18346C4.47932 8.07972 4.5396 7.4746 4.15536 6.55828C3.88413 5.90994 3.84646 4.61326 3.53002 4.87259C3.20606 5.13193 3.62797 6.28166 3.34167 6.19521C3.05537 6.10877 2.03827 3.76609 1.74444 3.9995C1.45061 4.2329 2.52799 6.37675 2.27182 6.29895C2.01566 6.22114 1.20951 4.14645 0.795137 4.47495C0.38076 4.80344 1.93279 6.81762 1.70677 6.99915C1.48074 7.17204 0.531442 5.87536 0.199941 6.14334C-0.131561 6.41132 1.57115 7.84632 1.42047 7.8031C1.26979 7.75987 0.192407 7.37087 0.132134 7.61292C0.0643267 7.88954 2.72387 9.2208 2.95743 9.80863C3.38687 11.3992 4.14029 14.2865 5.2026 15.7907C6.506 17.632 9.36897 21.7208 9.36897 21.7208L11.9758 19.456C11.9758 19.456 7.95255 14.4767 7.10873 13.3702Z" fill="#F7A491"/>
<path d="M22.5377 11.5895C23.0048 10.4744 23.6904 6.97333 23.9164 5.78902C23.8787 5.69393 23.6828 5.12339 23.8411 4.12062C23.9541 3.41177 23.6979 2.15831 24.0671 2.30527C24.4363 2.46087 24.2931 3.69704 24.5493 3.52415C24.8054 3.35126 25.2499 0.783826 25.589 0.922139C25.928 1.06045 25.3705 3.45499 25.5965 3.29939C25.8301 3.14379 26.1314 0.90485 26.6061 1.09503C27.0807 1.28521 26.041 3.69704 26.2972 3.80078C26.5533 3.90451 27.1711 2.36578 27.5554 2.52138C27.9396 2.67698 26.6211 4.57014 26.7568 4.48369C26.8924 4.39725 27.8417 3.69704 27.9547 3.91315C28.0828 4.1552 25.8225 6.23854 25.7321 6.87824C25.6794 8.53799 25.6116 11.5549 24.926 13.3271C24.0897 15.4969 22.1459 20.2427 22.1459 20.2427L19.2227 18.8855C19.2227 18.9201 21.9801 12.9121 22.5377 11.5895Z" fill="#F7A491"/>
<path d="M3.20625 6.79175C3.10077 6.93006 3.03296 7.10295 2.98022 7.27584C2.98022 7.31042 2.79187 7.86367 3.11584 8.44286C3.03296 8.03656 2.93502 7.5784 3.20625 6.79175Z" fill="#F48C7F"/>
<path d="M10.6792 17.2775C10.6792 17.2775 7.8916 20.0783 7.9142 20.1475C8.06488 20.6489 10.9278 22.836 10.9278 24.1672C10.9278 25.6714 10.0162 35.8892 10.0162 35.8892C10.0162 35.8892 12.5326 36.8402 15.6065 36.3042C18.6805 35.7769 20.7975 34.1258 20.7975 34.1258C20.7975 34.1258 20.6092 31.3422 20.6092 28.7748C20.6092 26.2073 20.9482 23.9943 20.9482 23.9943L23.2913 17.9604L20.3756 16.1191C20.3756 16.1191 18.3565 20.5711 17.8216 20.5711C16.3072 20.5711 14.5819 20.2685 14.5819 20.2685L10.6792 17.2775Z" fill="#F7CC7F"/>
<path d="M17.6032 18.3322C17.6032 18.3322 17.2566 21.1331 17.9875 21.8851C18.7559 22.6804 15.1923 22.4643 14.9437 21.1417C14.808 20.4242 15.2978 17.2776 15.2978 17.2776L17.6032 18.3322Z" fill="#F7A491"/>
<path d="M15.2986 17.2861L17.604 18.3321C17.604 18.3321 17.5211 19.0151 17.5211 19.8017C16.9561 19.8968 16.3157 19.7585 15.6225 19.309C15.4191 19.1793 15.2383 19.0324 15.0801 18.8768C15.178 18.0296 15.2986 17.2861 15.2986 17.2861Z" fill="#F48C7F"/>
<path d="M16.1717 11.3647C16.1717 11.3647 15.0792 11.6846 14.4388 12.8689C13.7984 14.0532 13.4443 17.4678 15.7347 18.9633C18.0251 20.4588 19.6901 18.142 19.6449 15.955C19.5997 13.7679 18.7258 10.9671 16.1717 11.3647Z" fill="#F7A491"/>
<path d="M16.1717 11.3647C16.1717 11.3647 15.0792 11.6846 14.4388 12.8689C13.7984 14.0532 13.4443 17.4678 15.7347 18.9633C18.0251 20.4588 19.6901 18.142 19.6449 15.955C19.5997 13.7679 18.7258 10.9671 16.1717 11.3647Z" fill="#F7A491"/>
<path d="M14.5069 15.9117C14.6877 16.4735 14.5596 17.0441 14.213 17.1738C13.874 17.3121 13.4521 16.9663 13.2713 16.4044C13.0904 15.8425 13.2185 15.272 13.5651 15.1423C13.9041 15.004 14.326 15.3498 14.5069 15.9117Z" fill="#F7A491"/>


<path d="M15.6441 19.0218C18.4646 24.0624 22.1717 20.9699 22.0042 20.9942C22.1368 20.9617 22.9048 21.1322 23.4144 21.2215C25.5228 21.5867 27.715 20.2637 28.9298 18.1371C32.1412 18.3562 34.7453 15.4423 34.2985 12.3173C36.009 10.6209 36.1067 7.32549 35.1363 4.97973C35.3806 1.55444 31.7014 0.150231 28.9088 0.750875C27.4916 1.05931 26.1581 2.09827 25.3273 3.53494C22.835 2.90995 20.3426 4.58201 19.2954 7.43913C15.1972 7.85308 12.7677 13.8839 15.6441 19.0218Z" fill="#323E41"/>
<path d="M14.2408 44.4437C14.4922 44.7277 16.1468 48.4777 16.7751 50.4907C17.6966 49.817 18.2552 49.0134 19.2884 48.5589C18.4716 47.1871 16.8868 43.8917 16.7541 43.1125C16.447 41.2538 16.0839 40.9778 16.0839 40.9778C16.0839 40.9778 10.7222 43.0882 10.3661 43.6807C10.0101 44.2651 13.2425 43.3073 14.2408 44.4437Z" fill="#F7A491"/>
<path d="M16.8252 43.5183C17.2441 43.5183 16.7903 41.3348 16.6925 40.8316C16.5878 40.2634 16.3016 40.0929 16.2317 40.0767C16.0432 40.0199 10.0811 42.3657 9.07575 43.2098C9.00594 43.2666 8.88726 43.4452 8.86631 43.4858C8.31478 44.679 13.2297 44.9063 13.9348 44.3868C14.5632 43.916 14.9541 43.5102 16.8252 43.5183Z" fill="#454342"/>
<path d="M45.8115 69.8816C46.8867 72.8524 47.124 74.2323 47.2357 74.4271C47.2916 74.5245 47.2008 74.8248 47.2567 74.9303C49.002 74.6543 51.1523 75.5715 52.7162 74.8248C51.9203 74.3702 50.2168 73.9157 49.9306 73.6803C49.5885 73.3962 48.9532 72.893 48.3947 68.031C47.6407 69.0781 46.9076 69.4027 45.8115 69.8816Z" fill="#F8A492"/>
<path d="M47.8008 74.2078C47.3889 74.1186 46.8862 74.4513 46.8792 74.9546C46.8792 75.4578 46.8303 76.099 46.8443 76.6185C46.8653 77.1948 47.1166 77.4302 47.1864 77.4627C47.3819 77.5682 54.7752 76.3588 55.1802 75.8068C55.5851 75.2468 50.9215 73.3718 50.1396 73.729C49.4414 74.0374 49.6578 74.6218 47.8008 74.2078Z" fill="#454342"/>
<path d="M30.2781 29.5088C30.2781 29.5088 29.9639 31.814 28.9656 34.9227C27.9673 38.0233 28.1976 38.7863 32.3935 43.283C36.4776 47.6661 40.7503 51.1401 40.7503 51.1401L45.6792 70.9208C46.6357 71.1561 47.7248 71.1643 49.0163 70.799C49.0163 70.799 46.3354 54.2245 46.517 50.3933C46.5868 48.9242 36.7778 31.9357 36.7778 31.9357L30.2781 29.5088Z" fill="#645E54"/>
<path d="M37.2861 32.9827C37.2861 32.9827 29.9207 29.3789 29.8299 29.7279C29.0829 32.5201 26.6184 31.9276 25.2431 36.8382C24.6636 38.8918 24.531 44.33 24.14 48.356C23.8747 51.1238 23.4977 53.3397 23.4977 53.3397C23.4977 53.3397 21.8292 51.0589 18.6945 46.9518C18.4501 46.6352 15.9229 48.8511 15.9229 48.8511C20.9146 60.3607 24.5938 62.0815 25.3548 61.6756C30.5141 58.9241 34.7379 38.3074 34.7309 38.3074C35.3173 36.9925 37.2861 32.9827 37.2861 32.9827Z" fill="#736B5D"/>
<path d="M26.1864 13.478C26.1864 13.478 17.5992 13.4617 15.7561 13.34C14.0945 13.2263 7.49004 13.4211 7.23173 13.3887C6.97342 13.3562 5.26994 9.99585 4.9837 10.353C4.69746 10.7101 5.93318 12.0169 5.5492 12.3578C5.16522 12.6987 1.07409 11.9358 1.12296 12.2929C1.22768 12.9504 3.61534 12.8692 3.61534 13.1858C3.61534 13.5023 1.11598 13.0072 0.941444 13.5348C0.773889 14.0624 3.34306 13.7539 3.44778 13.9893C3.55251 14.2247 1.06013 14.6549 1.31844 15.15C1.45807 15.4179 3.52458 14.7036 3.5176 15.0689C3.51062 15.4341 2.00262 16.262 2.18414 16.5461C2.37264 16.8383 3.37099 15.6533 4.24367 15.6451C5.11635 15.6289 5.74468 15.1013 7.14097 15.5477C7.83213 15.7669 13.0961 16.5136 17.5503 16.9601C22.1092 17.4146 25.8513 17.5607 25.8513 17.5607L26.1864 13.478Z" fill="#F7A491"/>
<path d="M36.6582 12.3335C36.6582 12.3335 44.6659 8.72967 46.3485 7.84494C47.8634 7.04137 54.0839 4.46834 54.3143 4.32224C54.5447 4.18425 55.0962 0.336886 55.4732 0.547923C55.8502 0.767077 55.1032 2.49596 55.564 2.65829C56.0247 2.81251 59.6132 0.393704 59.6691 0.742727C59.7808 1.40019 57.5188 2.31739 57.6235 2.61771C57.7212 2.90991 59.8995 1.40831 60.2206 1.83038C60.5417 2.25245 58.0424 3.03978 58.0214 3.29952C58.0005 3.55926 60.458 2.92615 60.3672 3.48621C60.3183 3.79465 58.1681 3.98945 58.2937 4.33036C58.4124 4.66315 60.081 4.80925 59.9972 5.15016C59.9134 5.49918 58.6149 4.81737 57.798 5.16639C56.9742 5.51541 56.2272 5.28814 55.0613 6.28651C54.4888 6.78163 49.8043 9.67934 45.7899 11.952C41.6709 14.2816 38.229 15.978 38.229 15.978L36.6582 12.3335Z" fill="#F7A491"/>
<path d="M38.9198 22.3577C39.0315 20.7505 38.7592 17.6986 38.7033 17.171C39.1222 15.5071 41.6635 15.3366 41.9846 14.6386C41.9846 14.6386 40.8606 10.426 39.3317 10.4503C39.3317 10.4503 35.7362 12.0412 34.5284 12.7717C34.5075 12.7636 34.1026 12.9827 33.921 12.9827C32.7551 12.9746 28.678 12.8285 27.917 13.0964L28.3498 20.4259C28.5663 20.8479 28.9293 29.7196 29.3761 30.4095C29.8299 31.0995 36.3017 33.8105 37.3908 32.9988C37.4257 32.9501 38.6894 25.5963 38.9198 22.3577Z" fill="#F7CC7F"/>
<path d="M30.034 13.2589C29.28 12.8449 23.7856 12.853 23.7856 12.853C23.7856 12.853 23.0247 17.2605 23.639 18.3157C23.639 18.3157 28.5051 19.1598 28.3655 19.6225L30.034 13.2589Z" fill="#F7CC7F"/>
<path d="M30.9346 9.97972C30.9346 9.97972 31.8142 12.3579 31.919 13.3563C32.0237 14.3547 33.015 17.4066 34.8023 16.9683C36.5895 16.5219 34.3834 12.8693 34.0343 11.9521C33.6853 11.0349 33.0848 8.07227 33.0848 8.07227L30.9346 9.97972Z" fill="#F7A491"/>
<path d="M33.6015 10.426C33.0988 11.0997 32.3309 11.465 31.3465 11.1646C31.1301 10.5072 30.9346 9.97957 30.9346 9.97957L31.1719 9.76854L33.2803 9.01367C33.3711 9.43575 33.4828 9.93899 33.6015 10.426Z" fill="#454342"/>
<path d="M29.9488 3.44565C29.9488 3.44565 29.0761 4.17616 28.8666 5.53978C28.6572 6.89529 29.3972 10.2232 31.8966 10.7021C34.3959 11.181 35.1709 8.36444 34.4588 6.34335C33.7467 4.31415 32.3923 1.81417 29.9488 3.44565Z" fill="#F7A491"/>
<path d="M34.6758 5.48297C34.6828 6.05115 34.4664 6.51381 34.1802 6.52192C33.8939 6.53004 33.6566 6.0755 33.6496 5.50732C33.6426 4.93914 33.859 4.47649 34.1453 4.46837C34.4315 4.46025 34.6689 4.91479 34.6758 5.48297Z" fill="#F7A491"/>
<path d="M30.2142 3.23462C30.2142 3.23462 30.1583 7.06576 29.1809 7.88555C28.2035 8.71347 28.8109 10.3206 28.8109 10.3206C28.8109 10.3206 27.4635 6.57063 28.1616 5.20701C28.8668 3.8515 30.2142 3.23462 30.2142 3.23462Z" fill="#323E41"/>
<path d="M29.8592 8.34807C30.1943 8.80261 30.2501 9.3789 29.9918 9.63864C29.7265 9.89838 29.2448 9.75227 28.9097 9.29773C28.5746 8.84319 28.5187 8.2669 28.777 8.00716C29.0423 7.73931 29.5241 7.89353 29.8592 8.34807Z" fill="#F7A491"/>


</svg>