<svg width="14" height="13" viewBox="0 0 14 13" fill="none" xmlns="http://www.w3.org/2000/svg">
<path d="M4.71251 10.3166H4.44445C2.30001 10.3166 1.22778 9.78054 1.22778 7.09998V4.41943C1.22778 2.27498 2.30001 1.20276 4.44445 1.20276H8.73334C10.8778 1.20276 11.95 2.27498 11.95 4.41943V7.09998C11.95 9.24443 10.8778 10.3166 8.73334 10.3166H8.46528C8.29909 10.3166 8.13826 10.3971 8.03639 10.5311L7.23223 11.6033C6.87839 12.0751 6.29939 12.0751 5.94556 11.6033L5.14139 10.5311C5.05562 10.4131 4.85726 10.3166 4.71251 10.3166Z" stroke="#90A2B2" stroke-width="0.804167" stroke-miterlimit="10" stroke-linecap="round" stroke-linejoin="round"/>
<path d="M8.73142 6.02776H8.73623" stroke="#90A2B2" stroke-width="0.804167" stroke-linecap="round" stroke-linejoin="round"/>
<path d="M6.58646 6.02776H6.59128" stroke="#90A2B2" stroke-width="0.804167" stroke-linecap="round" stroke-linejoin="round"/>
<path d="M4.4415 6.02776H4.44632" stroke="#90A2B2" stroke-width="0.804167" stroke-linecap="round" stroke-linejoin="round"/>
</svg>
