<svg width="14" height="14" viewBox="0 0 14 14" fill="none" xmlns="http://www.w3.org/2000/svg">
<g id="vuesax/linear/empty-wallet">
<g id="Group">
<path id="Vector" d="M9.82702 8.18646C9.60185 8.40627 9.47318 8.72258 9.50535 9.06033C9.5536 9.63933 10.0843 10.0629 10.6633 10.0629H11.682V10.7008C11.682 11.8106 10.7759 12.7166 9.66618 12.7166H3.51163C2.40188 12.7166 1.49585 11.8106 1.49585 10.7008V7.09281C1.49585 5.98306 2.40188 5.07703 3.51163 5.07703H9.66618C10.7759 5.07703 11.682 5.98306 11.682 7.09281V7.86481H10.599C10.2988 7.86481 10.0254 7.98274 9.82702 8.18646Z" stroke="#90A2B2" stroke-width="0.804167" stroke-linecap="round" stroke-linejoin="round"/>
<path id="Vector_2" d="M1.49585 7.5753V5.1253C1.49585 4.48733 1.88721 3.91902 2.48229 3.69386L6.73902 2.08552C7.40379 1.83355 8.11682 2.32679 8.11682 3.03982V5.07703" stroke="#90A2B2" stroke-width="0.804167" stroke-linecap="round" stroke-linejoin="round"/>
</g>
<path id="Vector_3" d="M12.2496 8.41174V9.51616C12.2496 9.81102 12.0137 10.0522 11.7135 10.063H10.6627C10.0837 10.063 9.55296 9.63945 9.50471 9.06045C9.47254 8.7227 9.60121 8.40639 9.82638 8.18658C10.0247 7.98286 10.2982 7.86493 10.5984 7.86493H11.7135C12.0137 7.87565 12.2496 8.11688 12.2496 8.41174Z" stroke="#90A2B2" stroke-width="0.804167" stroke-linecap="round" stroke-linejoin="round"/>
<path id="Vector_4" d="M3.90833 7.3555H7.6611" stroke="#90A2B2" stroke-width="0.804167" stroke-linecap="round" stroke-linejoin="round"/>
</g>
</svg>
