<svg width="280" height="74" viewBox="0 0 280 74" fill="none" xmlns="http://www.w3.org/2000/svg">
<path d="M0.900604 58.7671C1.00307 58.5075 1.36222 58.3603 1.7028 58.4385C1.92663 58.4898 2.0964 58.6295 2.14636 58.8036L5.98659 72.1819C6.20182 72.9317 7.17372 73.4065 8.15739 73.2424C8.76942 73.1404 9.26983 72.8059 9.48257 72.3567L10.215 70.8104C10.5863 70.0264 11.721 69.6204 12.7494 69.9034C13.1774 70.0211 13.539 70.2476 13.7736 70.5448L14.4887 71.4507C14.964 72.0529 15.9897 72.2473 16.7797 71.885C17.0133 71.7779 17.2088 71.6288 17.3494 71.4507L17.5152 71.2407C18.2207 70.3469 19.7281 70.0393 20.9252 70.5448C22.1223 71.0503 23.6296 70.7427 24.3352 69.8488L27.3617 66.0149C27.837 65.4128 28.8627 65.2183 29.6526 65.5806C29.8862 65.6878 30.0818 65.8369 30.2223 66.0149C30.9535 66.9412 32.5313 67.2402 33.7465 66.6829C33.8032 66.6569 33.8585 66.6293 33.9123 66.6L38.7524 63.9723C40.6469 62.9437 42.9149 62.391 45.2408 62.391H46.0423C47.7638 62.391 49.3594 61.7034 50.2469 60.579C50.6228 60.1029 51.4338 59.9492 52.0584 60.2357C52.3182 60.3549 52.5163 60.5387 52.6193 60.7561L55.2397 66.2886C55.6769 67.2117 56.8262 67.8268 58.1137 67.8268C59.445 67.8268 60.679 67.2951 61.3654 66.4256L61.6896 66.0149C62.6186 64.8379 64.0177 63.9186 65.6818 63.3916L65.9805 63.297C67.8769 62.6964 69.6443 61.8823 71.2237 60.8819L72.9124 59.8123C73.9787 59.1368 75.3215 58.7671 76.708 58.7671C78.0256 58.7671 79.233 58.2062 79.8369 57.3136L84.0219 51.1285C84.7841 50.002 86.6 49.5598 88.0779 50.1408C88.8033 50.426 89.3458 50.9235 89.581 51.5193L89.9062 52.3433C90.2386 53.1855 91.4038 53.6629 92.5087 53.4095C93.1418 53.2643 93.6474 52.8993 93.8719 52.4253L94.9301 50.1912C95.2903 49.4305 96.3913 49.0365 97.3892 49.3112C97.6859 49.3928 97.9516 49.5289 98.1629 49.7073C99.0414 50.4492 100.543 50.5078 101.516 49.8382C101.689 49.7188 101.839 49.5805 101.959 49.4279L103.169 47.8954C104.186 46.6068 106.381 46.1907 108.072 46.9661C108.509 47.1665 108.885 47.436 109.174 47.7564L115.114 54.3415C115.953 55.2709 117.621 55.5062 118.84 54.8671C119.155 54.7018 119.421 54.4871 119.618 54.2372L120.333 53.3312C120.808 52.7291 121.834 52.5347 122.624 52.897C122.858 53.0041 123.053 53.1532 123.194 53.3312L123.887 54.209C124.344 54.7887 125.167 55.1432 126.054 55.1432C126.942 55.1432 127.764 55.4977 128.222 56.0774L130.72 59.2416C131.305 59.9826 132.567 60.2218 133.539 59.776C133.994 59.5675 134.325 59.233 134.463 58.8426L134.677 58.2378C134.913 57.5732 135.81 57.18 136.682 57.3594C137.106 57.4467 137.466 57.6601 137.681 57.9517L138.584 59.1756C139.123 59.905 140.335 60.1637 141.292 59.7534C141.339 59.7331 141.385 59.7113 141.43 59.6882C142.606 59.0825 143.58 58.2759 144.274 57.3326L145.353 55.868C146.123 54.8211 147.861 54.4487 149.235 55.0361C149.578 55.183 149.878 55.3824 150.115 55.6219L150.96 56.4749C152.317 57.8449 154.669 58.4026 156.806 57.8611L158.874 57.3371C159.879 57.0826 160.872 56.8001 161.849 56.4905L163.243 56.0492C165.108 55.4586 166.699 54.458 167.815 53.1751L169.548 51.1821C171.392 49.0616 172.841 46.7562 173.853 44.3319C174.197 43.5089 175.35 43.054 176.43 43.3159C176.956 43.4434 177.392 43.7271 177.64 44.1029L182.386 51.2886C183.526 53.0146 186.286 53.7095 188.55 52.8406C189.324 52.5435 189.972 52.0854 190.419 51.5193L192.353 49.0691C193.261 47.9193 195.219 47.5481 196.728 48.2399C197.05 48.3877 197.335 48.5778 197.571 48.8014C198.421 49.6095 199.97 49.739 201.031 49.0907C201.406 48.8609 201.685 48.5521 201.833 48.2026L203.933 43.2327C204.652 41.5322 205.189 39.7903 205.54 38.0239L206.102 35.1966C206.3 34.2026 207.517 33.5189 208.821 33.6695C209.572 33.7562 210.224 34.1098 210.577 34.622L210.963 35.1815C211.691 36.2357 213.401 36.6409 214.784 36.0865C215.548 35.7805 216.086 35.226 216.247 34.5802L221.674 12.8089C221.915 11.843 223.137 11.2087 224.405 11.3922C225.228 11.5115 225.905 11.9581 226.177 12.5623L227.475 15.4386C227.686 15.9075 228.356 16.1569 228.971 15.9957C229.387 15.8869 229.688 15.6111 229.753 15.2803C229.842 14.8311 230.391 14.5217 230.981 14.5893C231.393 14.6366 231.733 14.8611 231.853 15.1657L234.759 22.5281C235.265 23.8093 237.038 24.5355 238.718 24.15C239.919 23.8748 240.795 23.0875 240.955 22.1399L242.85 10.9369C242.921 10.519 243.422 10.2239 243.971 10.2778C244.33 10.3131 244.637 10.4939 244.772 10.7504C245.024 11.2293 245.737 11.4618 246.366 11.2697C246.734 11.157 247.008 10.9154 247.101 10.6212L247.632 8.93843C247.863 8.20905 248.825 7.76009 249.782 7.93564C250.374 8.04424 250.852 8.37572 251.05 8.81462L251.923 10.7504C252.41 11.8303 253.954 12.4047 255.37 12.0334C256.219 11.811 256.868 11.2832 257.105 10.6236L260.196 2.01003C260.555 1.00866 261.911 0.41892 263.225 0.692797C263.913 0.836353 264.487 1.20032 264.796 1.69063L266.313 4.09292C267.067 5.28636 268.913 5.82273 270.517 5.31453L270.816 5.21992C272.288 4.75368 273.987 5.17928 274.808 6.22051C275.201 6.71828 276.049 6.879 276.702 6.57949C276.96 6.46138 277.16 6.28242 277.272 6.0698L279.099 2.5966" stroke="#F49D37" stroke-width="1.18129" stroke-linecap="round" stroke-linejoin="round"/>
</svg>
