<svg width="178" height="32" viewBox="0 0 178 32" fill="none" xmlns="http://www.w3.org/2000/svg">
<path id="Path" d="M1.61108 25.3257C1.67556 25.2184 1.90156 25.1575 2.11586 25.1898C2.25671 25.211 2.36354 25.2688 2.39497 25.3407L4.81142 30.8703C4.94685 31.1802 5.55842 31.3765 6.17739 31.3087C6.56251 31.2665 6.87739 31.1283 7.01126 30.9426L7.47211 30.3035C7.70575 29.9794 8.41977 29.8116 9.06692 29.9286C9.33618 29.9772 9.56375 30.0709 9.71134 30.1937L10.1614 30.5681C10.4604 30.817 11.1059 30.8974 11.6029 30.7476C11.7499 30.7033 11.873 30.6417 11.9614 30.5681L12.0657 30.4813C12.5097 30.1119 13.4582 29.9847 14.2115 30.1937C14.9648 30.4026 15.9132 30.2755 16.3572 29.906L18.2616 28.3214C18.5607 28.0725 19.2061 27.9921 19.7032 28.1419C19.8502 28.1862 19.9732 28.2478 20.0617 28.3214C20.5218 28.7042 21.5146 28.8278 22.2792 28.5975C22.3149 28.5867 22.3497 28.5753 22.3836 28.5632L25.4292 27.4771C26.6213 27.052 28.0484 26.8235 29.512 26.8235H30.0163C31.0996 26.8235 32.1036 26.5393 32.6621 26.0746C32.8986 25.8778 33.4089 25.8143 33.8019 25.9327C33.9654 25.9819 34.0901 26.0579 34.1549 26.1478L35.8037 28.4345C36.0788 28.816 36.8021 29.0703 37.6122 29.0703C38.4499 29.0703 39.2264 28.8505 39.6583 28.4911L39.8623 28.3214C40.4469 27.8349 41.3273 27.4549 42.3744 27.2371L42.5624 27.198C43.7557 26.9497 44.8678 26.6132 45.8616 26.1998L46.9242 25.7577C47.5952 25.4785 48.4402 25.3257 49.3126 25.3257C50.1417 25.3257 50.9014 25.0938 51.2815 24.7249L53.9148 22.1684C54.3944 21.7028 55.5371 21.52 56.467 21.7602C56.9235 21.8781 57.2649 22.0837 57.4129 22.3299L57.6175 22.6705C57.8267 23.0186 58.5599 23.2159 59.2552 23.1112C59.6535 23.0512 59.9717 22.9003 60.1129 22.7044L60.7788 21.781C61.0055 21.4666 61.6983 21.3038 62.3262 21.4173C62.5128 21.451 62.68 21.5073 62.813 21.581C63.3658 21.8877 64.3104 21.9119 64.9228 21.6351C65.032 21.5858 65.1261 21.5286 65.2019 21.4655L65.9631 20.8321C66.6032 20.2995 67.9844 20.1275 69.0482 20.448C69.3232 20.5308 69.5596 20.6422 69.7415 20.7746L73.4797 23.4964C74.0073 23.8806 75.0569 23.9778 75.8242 23.7137C76.0225 23.6454 76.1893 23.5566 76.3134 23.4533L76.7635 23.0789C77.0626 22.83 77.708 22.7496 78.205 22.8994C78.352 22.9437 78.4751 23.0053 78.5635 23.0789L78.9995 23.4417C79.2875 23.6813 79.8051 23.8278 80.3636 23.8278C80.9221 23.8278 81.4397 23.9743 81.7276 24.2139L83.2994 25.5218C83.6674 25.8281 84.4616 25.9269 85.0733 25.7427C85.3594 25.6565 85.5677 25.5182 85.6548 25.3569L85.7896 25.1069C85.9377 24.8322 86.5026 24.6696 87.0513 24.7438C87.3179 24.7799 87.5444 24.8681 87.6798 24.9886L88.2481 25.4945C88.5868 25.796 89.3496 25.9029 89.9517 25.7333C89.9815 25.7249 90.0106 25.7159 90.0389 25.7064C90.7787 25.456 91.3915 25.1226 91.8284 24.7327L92.5069 24.1274C92.9919 23.6947 94.0856 23.5407 94.9498 23.7836C95.1658 23.8443 95.3544 23.9267 95.5037 24.0257L96.0353 24.3782C96.8893 24.9445 98.3694 25.175 99.7142 24.9512L101.016 24.7346C101.648 24.6294 102.272 24.5127 102.888 24.3847L103.764 24.2023C104.938 23.9582 105.939 23.5446 106.641 23.0143L107.732 22.1906C108.892 21.3141 109.804 20.3612 110.441 19.3592C110.657 19.019 111.383 18.831 112.062 18.9393C112.393 18.992 112.668 19.1092 112.824 19.2646L115.81 22.2346C116.527 22.948 118.264 23.2352 119.689 22.8761C120.176 22.7533 120.584 22.5639 120.865 22.3299L122.082 21.3172C122.653 20.842 123.885 20.6885 124.835 20.9745C125.037 21.0356 125.217 21.1141 125.365 21.2066C125.9 21.5406 126.875 21.5941 127.542 21.3261C127.779 21.2312 127.954 21.1035 128.047 20.9591L129.369 18.9049C129.821 18.202 130.159 17.482 130.38 16.752L130.734 15.5834C130.858 15.1725 131.624 14.8899 132.444 14.9522C132.917 14.988 133.327 15.1342 133.549 15.3459L133.792 15.5771C134.25 16.0129 135.326 16.1803 136.197 15.9512C136.677 15.8247 137.016 15.5955 137.117 15.3286L140.532 6.32991C140.684 5.93068 141.453 5.66853 142.25 5.74439C142.768 5.7937 143.194 5.97827 143.366 6.22802L144.182 7.41687C144.315 7.61066 144.737 7.71374 145.124 7.64711C145.385 7.60214 145.575 7.48817 145.616 7.35141C145.671 7.16575 146.017 7.03788 146.388 7.06581C146.648 7.08537 146.862 7.17814 146.937 7.30404L148.766 10.3471C149.084 10.8767 150.199 11.1768 151.257 11.0175C152.012 10.9037 152.563 10.5783 152.664 10.1867L153.857 5.55617C153.901 5.38344 154.217 5.26147 154.562 5.28375C154.788 5.29835 154.981 5.37308 155.066 5.4791C155.225 5.67704 155.674 5.77314 156.069 5.69374C156.301 5.64717 156.473 5.54728 156.532 5.42569L156.866 4.73017C157.011 4.4287 157.617 4.24313 158.219 4.31569C158.591 4.36057 158.892 4.49758 159.017 4.67899L159.566 5.4791C159.873 5.92544 160.844 6.16287 161.735 6.0094C162.269 5.91749 162.678 5.69934 162.827 5.42668L164.771 1.86648C164.997 1.45259 165.851 1.20883 166.678 1.32203C167.111 1.38137 167.472 1.5318 167.666 1.73446L168.621 2.72739C169.095 3.22067 170.257 3.44237 171.266 3.23231L171.454 3.19321C172.381 3.0005 173.449 3.17641 173.967 3.60678C174.214 3.81252 174.747 3.87895 175.158 3.75515C175.32 3.70634 175.446 3.63237 175.516 3.54449L176.667 2.10892" stroke="#FAFDFF" stroke-width="1.27778" stroke-linecap="round" stroke-linejoin="round"/>
</svg>
