<svg width="361" height="168" viewBox="0 0 361 168" fill="none" xmlns="http://www.w3.org/2000/svg">
<path d="M0.111084 133.256C0.243775 132.67 0.708881 132.338 1.14993 132.514C1.43979 132.63 1.65964 132.946 1.72434 133.339L6.69742 163.548C6.97614 165.242 8.23475 166.314 9.5086 165.943C10.3012 165.713 10.9492 164.958 11.2247 163.943L12.1732 160.451C12.654 158.681 14.1235 157.764 15.4553 158.403C16.0094 158.669 16.4778 159.181 16.7815 159.852L17.7077 161.898C18.3232 163.257 19.6515 163.696 20.6745 162.878C20.9769 162.636 21.2302 162.3 21.4122 161.898L21.6269 161.423C22.5406 159.405 24.4926 158.71 26.0429 159.852C27.5932 160.993 29.5451 160.299 30.4589 158.28L34.3781 149.623C34.9936 148.263 36.3219 147.824 37.3449 148.642C37.6474 148.884 37.9006 149.221 38.0826 149.623C39.0295 151.714 41.0728 152.39 42.6464 151.131C42.7198 151.072 42.7914 151.01 42.8612 150.944L49.129 145.01C51.5824 142.688 54.5195 141.44 57.5315 141.44H58.5695C60.7988 141.44 62.8651 139.887 64.0144 137.348C64.5011 136.273 65.5514 135.926 66.3602 136.573C66.6968 136.842 66.9533 137.257 67.0867 137.748L70.48 150.241C71.0462 152.325 72.5346 153.714 74.2019 153.714C75.926 153.714 77.5239 152.514 78.4128 150.55L78.8326 149.623C80.0358 146.965 81.8475 144.889 84.0026 143.699L84.3894 143.485C86.8452 142.129 89.134 140.291 91.1793 138.032L93.3661 135.617C94.7471 134.091 96.486 133.256 98.2814 133.256C99.9878 133.256 101.551 131.99 102.333 129.974L107.753 116.008C108.74 113.464 111.092 112.465 113.005 113.777C113.945 114.421 114.647 115.545 114.952 116.89L115.373 118.751C115.804 120.653 117.312 121.73 118.743 121.158C119.563 120.83 120.218 120.006 120.509 118.936L121.879 113.891C122.346 112.173 123.771 111.284 125.064 111.904C125.448 112.088 125.792 112.395 126.066 112.798C127.203 114.474 129.147 114.606 130.408 113.094C130.632 112.824 130.826 112.512 130.982 112.167L132.548 108.707C133.866 105.797 136.708 104.857 138.898 106.608C139.464 107.061 139.95 107.669 140.324 108.393L148.018 123.263C149.103 125.361 151.264 125.893 152.843 124.45C153.251 124.077 153.594 123.592 153.85 123.027L154.776 120.982C155.391 119.622 156.72 119.183 157.742 120.001C158.045 120.243 158.298 120.58 158.48 120.982L159.378 122.964C159.97 124.273 161.035 125.073 162.185 125.073C163.334 125.073 164.399 125.874 164.992 127.183L168.227 134.328C168.984 136.001 170.619 136.541 171.877 135.535C172.466 135.064 172.895 134.308 173.074 133.427L173.352 132.061C173.656 130.561 174.819 129.672 175.948 130.078C176.497 130.275 176.963 130.757 177.242 131.415L178.411 134.179C179.108 135.826 180.678 136.41 181.917 135.484C181.979 135.438 182.038 135.389 182.097 135.336C183.619 133.969 184.88 132.147 185.78 130.017L187.176 126.71C188.174 124.346 190.425 123.505 192.203 124.831C192.648 125.163 193.036 125.613 193.343 126.154L194.437 128.08C196.195 131.174 199.241 132.433 202.009 131.211L204.687 130.027C205.988 129.453 207.273 128.815 208.539 128.115L210.344 127.119C212.759 125.785 214.82 123.526 216.265 120.629L218.509 116.129C220.897 111.34 222.773 106.134 224.084 100.66C224.529 98.8016 226.023 97.7745 227.421 98.3658C228.102 98.6538 228.667 99.2944 228.988 100.143L235.134 116.369C236.61 120.267 240.184 121.836 243.116 119.874C244.119 119.203 244.958 118.168 245.537 116.89L248.042 111.357C249.217 108.761 251.753 107.923 253.707 109.485C254.124 109.819 254.494 110.248 254.798 110.753C255.9 112.577 257.906 112.87 259.279 111.406C259.765 110.887 260.127 110.19 260.318 109.401L263.038 98.1779C263.968 94.338 264.664 90.4046 265.119 86.4159L265.847 80.0316C266.103 77.787 267.679 76.2431 269.368 76.5832C270.34 76.7789 271.184 77.5774 271.642 78.734L272.142 79.9975C273.084 82.378 275.299 83.2929 277.09 82.0409C278.078 81.35 278.776 80.0978 278.984 78.6397L286.012 29.4774C286.324 27.2963 287.907 25.8641 289.548 26.2786C290.615 26.5479 291.491 27.5563 291.844 28.9208L293.524 35.4157C293.798 36.4745 294.666 37.0377 295.462 36.6736C296 36.428 296.39 35.8053 296.474 35.0582C296.589 34.0438 297.301 33.3453 298.064 33.4979C298.598 33.6047 299.039 34.1115 299.194 34.7994L302.957 51.4245C303.612 54.3177 305.908 55.9575 308.084 55.0871C309.639 54.4655 310.773 52.6878 310.981 50.548L313.435 25.2503C313.526 24.3066 314.176 23.6403 314.886 23.7619C315.352 23.8417 315.748 24.25 315.923 24.8292C316.25 25.9106 317.174 26.4356 317.987 26.0018C318.465 25.7474 318.819 25.2017 318.94 24.5374L319.628 20.7376C319.926 19.0906 321.172 18.0767 322.412 18.4731C323.178 18.7184 323.797 19.4669 324.054 20.458L325.185 24.8292C325.815 27.2677 327.814 28.5648 329.649 27.7264C330.747 27.2242 331.588 26.0324 331.895 24.5428L335.897 5.09245C336.363 2.83126 338.119 1.49955 339.82 2.11799C340.712 2.44216 341.454 3.26404 341.855 4.37121L343.82 9.79585C344.796 12.4908 347.186 13.702 349.264 12.5544L349.651 12.3408C351.557 11.2879 353.757 12.249 354.821 14.6002C355.33 15.7242 356.428 16.0872 357.274 15.4108C357.607 15.1441 357.866 14.74 358.011 14.2599L360.378 6.41701" stroke="#2196F3" stroke-width="2.14444" stroke-linecap="round" stroke-linejoin="round"/>
</svg>
