<svg width="14" height="14" viewBox="0 0 14 14" fill="none" xmlns="http://www.w3.org/2000/svg">
<path d="M11.7678 6.49697L11.2425 8.73791C10.7921 10.6733 9.90217 11.456 8.22951 11.2952C7.96145 11.2737 7.67195 11.2255 7.36101 11.1504L6.46034 10.936C4.22476 10.4052 3.53317 9.30083 4.05856 7.05989L4.58395 4.81358C4.69117 4.35789 4.81984 3.96116 4.98067 3.63414C5.60792 2.33675 6.67478 1.98827 8.4654 2.4118L9.3607 2.62089C11.607 3.14627 12.2932 4.25602 11.7678 6.49697Z" stroke="#90A2B2" stroke-width="0.804167" stroke-linecap="round" stroke-linejoin="round"/>
<path d="M8.22934 11.2952C7.89695 11.5203 7.47878 11.708 6.96948 11.8742L6.12242 12.1529C3.99406 12.8392 2.87359 12.2655 2.18201 10.1372L1.49578 8.01951C0.809561 5.89115 1.37784 4.76532 3.5062 4.0791L4.35326 3.80032C4.57306 3.73062 4.78214 3.67165 4.98051 3.63412C4.81967 3.96115 4.69101 4.35787 4.58378 4.81357L4.05839 7.05987C3.53301 9.30082 4.22459 10.4052 6.46017 10.936L7.36084 11.1504C7.67178 11.2255 7.96128 11.2737 8.22934 11.2952Z" stroke="#90A2B2" stroke-width="0.804167" stroke-linecap="round" stroke-linejoin="round"/>
<path d="M6.93207 5.47299L9.53221 6.13241" stroke="#90A2B2" stroke-width="0.804167" stroke-linecap="round" stroke-linejoin="round"/>
<path d="M6.40668 7.54773L7.9614 7.94445" stroke="#90A2B2" stroke-width="0.804167" stroke-linecap="round" stroke-linejoin="round"/>
</svg>
