<svg width="14" height="14" viewBox="0 0 14 14" fill="none" xmlns="http://www.w3.org/2000/svg">
<path d="M9.26947 6.18611H10.3417C11.4139 6.18611 11.95 5.64999 11.95 4.57777V3.50555C11.95 2.43333 11.4139 1.89722 10.3417 1.89722H9.26947C8.19724 1.89722 7.66113 2.43333 7.66113 3.50555V4.57777C7.66113 5.64999 8.19724 6.18611 9.26947 6.18611Z" stroke="#2196F3" stroke-width="1.07222" stroke-miterlimit="10" stroke-linecap="round" stroke-linejoin="round"/>
<path d="M2.83612 12.6194H3.90834C4.98056 12.6194 5.51667 12.0833 5.51667 11.0111V9.93887C5.51667 8.86665 4.98056 8.33054 3.90834 8.33054H2.83612C1.76389 8.33054 1.22778 8.86665 1.22778 9.93887V11.0111C1.22778 12.0833 1.76389 12.6194 2.83612 12.6194Z" stroke="#2196F3" stroke-width="1.07222" stroke-miterlimit="10" stroke-linecap="round" stroke-linejoin="round"/>
<path d="M3.37223 6.18611C4.55657 6.18611 5.51667 5.22601 5.51667 4.04166C5.51667 2.85732 4.55657 1.89722 3.37223 1.89722C2.18788 1.89722 1.22778 2.85732 1.22778 4.04166C1.22778 5.22601 2.18788 6.18611 3.37223 6.18611Z" stroke="#2196F3" stroke-width="1.07222" stroke-miterlimit="10" stroke-linecap="round" stroke-linejoin="round"/>
<path d="M9.80558 12.6194C10.9899 12.6194 11.95 11.6593 11.95 10.475C11.95 9.29064 10.9899 8.33054 9.80558 8.33054C8.62123 8.33054 7.66113 9.29064 7.66113 10.475C7.66113 11.6593 8.62123 12.6194 9.80558 12.6194Z" stroke="#2196F3" stroke-width="1.07222" stroke-miterlimit="10" stroke-linecap="round" stroke-linejoin="round"/>
</svg>
