<svg width="81" height="80" viewBox="0 0 81 80" fill="none" xmlns="http://www.w3.org/2000/svg">
<path d="M13.9001 19.9001C9.66675 25.5001 7.16675 32.4667 7.16675 40.0001C7.16675 58.4001 22.1001 73.3334 40.5001 73.3334C58.9001 73.3334 73.8334 58.4001 73.8334 40.0001C73.8334 21.6001 58.9001 6.66675 40.5001 6.66675" stroke="#2196F3" stroke-width="2" stroke-linecap="round" stroke-linejoin="round"/>
<path d="M17.1667 40.0001C17.1667 52.9001 27.6001 63.3334 40.5001 63.3334C53.4001 63.3334 63.8334 52.9001 63.8334 40.0001C63.8334 27.1001 53.4001 16.6667 40.5001 16.6667" stroke="#2196F3" stroke-width="2" stroke-linecap="round" stroke-linejoin="round"/>
<path d="M40.5 53.3334C47.8667 53.3334 53.8333 47.3667 53.8333 40.0001C53.8333 32.6334 47.8667 26.6667 40.5 26.6667" stroke="#2196F3" stroke-width="2" stroke-linecap="round" stroke-linejoin="round"/>
</svg>
