<svg width="81" height="80" viewBox="0 0 81 80" fill="none" xmlns="http://www.w3.org/2000/svg">
<path d="M33.8335 58.3333H47.1668" stroke="#2196F3" stroke-width="2" stroke-linecap="round" stroke-linejoin="round"/>
<path d="M7.1665 58.3333V24.9999C7.1665 11.6666 10.4998 8.33325 23.8332 8.33325" stroke="#2196F3" stroke-width="2" stroke-linecap="round" stroke-linejoin="round"/>
<path d="M73.8332 58.3333V24.9999C73.8332 11.6666 70.4998 8.33325 57.1665 8.33325" stroke="#2196F3" stroke-width="2" stroke-linecap="round" stroke-linejoin="round"/>
<path d="M33.8332 53.0333V64C33.8332 70.6666 31.1665 73.3333 24.4998 73.3333H16.4998C9.83317 73.3333 7.1665 70.6666 7.1665 64V53.0333C7.1665 46.3666 9.83317 43.7 16.4998 43.7H24.4998C31.1665 43.7 33.8332 46.3666 33.8332 53.0333Z" stroke="#2196F3" stroke-width="2" stroke-linecap="round" stroke-linejoin="round"/>
<path d="M73.8332 53.0333V64C73.8332 70.6666 71.1665 73.3333 64.4998 73.3333H56.4998C49.8332 73.3333 47.1665 70.6666 47.1665 64V53.0333C47.1665 46.3666 49.8332 43.7 56.4998 43.7H64.4998C71.1665 43.7 73.8332 46.3666 73.8332 53.0333Z" stroke="#2196F3" stroke-width="2" stroke-linecap="round" stroke-linejoin="round"/>
</svg>
